font.ufo
<glyph name="exclam" format="2">
	<unicode hex="0021"/>
	<advance width="288"/>
	<outline>
		<contour>
			<point x="144" y="-12" type="curve" smooth="yes"/>
			<point x="184" y="-12"/>
			<point x="216" y="20"/>
			<point x="216" y="60" type="curve" smooth="yes"/>
			<point x="216" y="100"/>
			<point x="184" y="132"/>
			<point x="144" y="132" type="curve" smooth="yes"/>
			<point x="104" y="132"/>
			<point x="72" y="100"/>
			<point x="72" y="60" type="curve" smooth="yes"/>
			<point x="72" y="20"/>
			<point x="104" y="-12"/>
		</contour>
		<contour>
			<point x="143" y="686" type="curve" smooth="yes"/>
			<point x="104" y="686"/>
			<point x="80" y="662"/>
			<point x="80" y="622" type="curve" smooth="yes"/>
			<point x="80" y="582"/>
			<point x="88" y="496"/>
			<point x="104" y="340" type="curve" smooth="yes"/>
			<point x="116" y="220" type="line"/>
			<point x="168" y="220" type="line"/>
			<point x="180" y="340" type="line" smooth="yes"/>
			<point x="196" y="496"/>
			<point x="204" y="582"/>
			<point x="204" y="622" type="curve" smooth="yes"/>
			<point x="204" y="662"/>
			<point x="182" y="686"/>
		</contour>
	</outline>
</glyph>
<glyph name="dollar" format="2">
	<unicode hex="0024"/>
	<advance width="536"/>
	<outline>
		<contour>
			<point x="264" y="-12" type="curve" smooth="yes"/>
			<point x="400" y="-12"/>
			<point x="492" y="60"/>
			<point x="492" y="174" type="curve" smooth="yes"/>
			<point x="492" y="276"/>
			<point x="416" y="328"/>
			<point x="312" y="368" type="curve" smooth="yes"/>
			<point x="276" y="382" type="line" smooth="yes"/>
			<point x="200" y="412"/>
			<point x="160" y="450"/>
			<point x="160" y="506" type="curve" smooth="yes"/>
			<point x="160" y="562"/>
			<point x="200" y="608"/>
			<point x="288" y="608" type="curve" smooth="yes"/>
			<point x="328" y="608"/>
			<point x="368" y="600"/>
			<point x="392" y="592" type="curve"/>
			<point x="344" y="624" type="line"/>
			<point x="360" y="536" type="line" smooth="yes"/>
			<point x="368" y="492"/>
			<point x="392" y="476"/>
			<point x="418" y="476" type="curve" smooth="yes"/>
			<point x="444" y="476"/>
			<point x="460" y="492"/>
			<point x="468" y="516" type="curve"/>
			<point x="452" y="604"/>
			<point x="384" y="660"/>
			<point x="272" y="660" type="curve" smooth="yes"/>
			<point x="152" y="660"/>
			<point x="64" y="600"/>
			<point x="64" y="488" type="curve" smooth="yes"/>
			<point x="64" y="384"/>
			<point x="140" y="336"/>
			<point x="244" y="296" type="curve" smooth="yes"/>
			<point x="280" y="282" type="line" smooth="yes"/>
			<point x="368" y="248"/>
			<point x="396" y="212"/>
			<point x="396" y="154" type="curve" smooth="yes"/>
			<point x="396" y="94"/>
			<point x="352" y="40"/>
			<point x="248" y="40" type="curve" smooth="yes"/>
			<point x="200" y="40"/>
			<point x="152" y="48"/>
			<point x="128" y="56" type="curve"/>
			<point x="176" y="24" type="line"/>
			<point x="160" y="112" type="line" smooth="yes"/>
			<point x="152" y="156"/>
			<point x="128" y="172"/>
			<point x="102" y="172" type="curve" smooth="yes"/>
			<point x="76" y="172"/>
			<point x="60" y="156"/>
			<point x="52" y="132" type="curve"/>
			<point x="68" y="44"/>
			<point x="144" y="-12"/>
		</contour>
		<contour>
			<point x="252" y="-112" type="line"/>
			<point x="302" y="-112" type="line"/>
			<point x="302" y="322" type="line"/>
			<point x="252" y="322" type="line"/>
		</contour>
		<contour>
			<point x="252" y="322" type="line"/>
			<point x="302" y="322" type="line"/>
			<point x="302" y="760" type="line"/>
			<point x="252" y="760" type="line"/>
		</contour>
	</outline>
</glyph>
<glyph name="parenleft" format="2">
	<unicode hex="0028"/>
	<advance width="344"/>
	<outline>
		<contour>
			<point x="172" y="280" type="curve" smooth="yes"/>
			<point x="172" y="440"/>
			<point x="216" y="568"/>
			<point x="320" y="720" type="curve"/>
			<point x="280" y="752" type="line"/>
			<point x="152" y="624"/>
			<point x="72" y="472"/>
			<point x="72" y="280" type="curve" smooth="yes"/>
			<point x="72" y="88"/>
			<point x="152" y="-64"/>
			<point x="280" y="-192" type="curve"/>
			<point x="320" y="-160" type="line"/>
			<point x="216" y="-8"/>
			<point x="172" y="120"/>
		</contour>
	</outline>
</glyph>
<glyph name="plus" format="2">
	<unicode hex="002B"/>
	<advance width="538"/>
	<outline>
		<contour>
			<point x="234" y="76" type="line"/>
			<point x="304" y="76" type="line"/>
			<point x="304" y="578" type="line"/>
			<point x="234" y="578" type="line"/>
		</contour>
		<contour>
			<point x="506" y="294" type="line"/>
			<point x="506" y="360" type="line"/>
			<point x="32" y="360" type="line"/>
			<point x="32" y="294" type="line"/>
		</contour>
	</outline>
</glyph>
<glyph name="zero" format="2">
	<unicode hex="0030"/>
	<advance width="548"/>
	<outline>
		<contour>
			<point x="274" y="-12" type="curve" smooth="yes"/>
			<point x="417" y="-12"/>
			<point x="497" y="116"/>
			<point x="497" y="328" type="curve" smooth="yes"/>
			<point x="497" y="540"/>
			<point x="417" y="660"/>
			<point x="274" y="660" type="curve" smooth="yes"/>
			<point x="131" y="660"/>
			<point x="51" y="532"/>
			<point x="51" y="320" type="curve" smooth="yes"/>
			<point x="51" y="108"/>
			<point x="131" y="-12"/>
		</contour>
		<contour>
			<point x="274" y="42" type="curve" smooth="yes"/>
			<point x="184" y="42"/>
			<point x="159" y="150"/>
			<point x="159" y="324" type="curve" smooth="yes"/>
			<point x="159" y="498"/>
			<point x="184" y="606"/>
			<point x="274" y="606" type="curve" smooth="yes"/>
			<point x="364" y="606"/>
			<point x="389" y="498"/>
			<point x="389" y="324" type="curve" smooth="yes"/>
			<point x="389" y="150"/>
			<point x="364" y="42"/>
		</contour>
	</outline>
</glyph>
<glyph name="one" format="2">
	<unicode hex="0031"/>
	<advance width="548"/>
	<outline>
		<contour>
			<point x="88" y="0" type="line"/>
			<point x="460" y="0" type="line"/>
			<point x="460" y="64" type="line"/>
			<point x="300" y="64" type="line"/>
			<point x="256" y="64" type="line"/>
			<point x="88" y="64" type="line"/>
		</contour>
		<contour>
			<point x="224" y="0" type="curve"/>
			<point x="332" y="0" type="line"/>
			<point x="332" y="104"/>
			<point x="332" y="208"/>
			<point x="332" y="312" type="curve" smooth="yes"/>
			<point x="332" y="360" type="line"/>
			<point x="332" y="648" type="line"/>
			<point x="292" y="648" type="line"/>
			<point x="88" y="588" type="line"/>
			<point x="88" y="528" type="line"/>
			<point x="224" y="552" type="line"/>
			<point x="224" y="312" type="line" smooth="yes"/>
			<point x="224" y="208"/>
			<point x="224" y="104"/>
		</contour>
	</outline>
</glyph>
<glyph name="less" format="2">
	<unicode hex="003C"/>
	<advance width="538"/>
	<outline>
		<contour>
			<point x="62" y="300" type="line"/>
			<point x="442" y="82" type="line"/>
			<point x="476" y="140" type="line"/>
			<point x="106" y="342" type="line"/>
			<point x="106" y="312" type="line"/>
			<point x="476" y="514" type="line"/>
			<point x="442" y="572" type="line"/>
			<point x="62" y="354" type="line"/>
		</contour>
	</outline>
</glyph>
<glyph name="at" format="2">
	<unicode hex="0040"/>
	<advance width="832"/>
	<outline>
		<contour>
			<point x="336" y="48" type="curve" smooth="yes"/>
			<point x="396" y="48"/>
			<point x="428" y="80"/>
			<point x="450" y="120" type="curve"/>
			<point x="484" y="120" type="line"/>
			<point x="484" y="172" type="line"/>
			<point x="444" y="136"/>
			<point x="412" y="112"/>
			<point x="372" y="112" type="curve" smooth="yes"/>
			<point x="324" y="112"/>
			<point x="300" y="140"/>
			<point x="300" y="196" type="curve" smooth="yes"/>
			<point x="300" y="296"/>
			<point x="372" y="424"/>
			<point x="456" y="424" type="curve" smooth="yes"/>
			<point x="492" y="424"/>
			<point x="516" y="408"/>
			<point x="532" y="376" type="curve"/>
			<point x="560" y="412" type="line"/>
			<point x="532" y="460"/>
			<point x="500" y="476"/>
			<point x="456" y="476" type="curve" smooth="yes"/>
			<point x="340" y="476"/>
			<point x="220" y="328"/>
			<point x="220" y="184" type="curve" smooth="yes"/>
			<point x="220" y="92"/>
			<point x="272" y="48"/>
		</contour>
		<contour>
			<point x="580" y="48" type="curve" smooth="yes"/>
			<point x="700" y="48"/>
			<point x="796" y="164"/>
			<point x="796" y="328" type="curve" smooth="yes"/>
			<point x="796" y="536"/>
			<point x="660" y="660"/>
			<point x="460" y="660" type="curve" smooth="yes"/>
			<point x="216" y="660"/>
			<point x="36" y="464"/>
			<point x="36" y="204" type="curve" smooth="yes"/>
			<point x="36" y="-36"/>
			<point x="196" y="-156"/>
			<point x="388" y="-156" type="curve" smooth="yes"/>
			<point x="468" y="-156"/>
			<point x="532" y="-140"/>
			<point x="588" y="-112" type="curve"/>
			<point x="568" y="-72" type="line"/>
			<point x="532" y="-88"/>
			<point x="468" y="-104"/>
			<point x="404" y="-104" type="curve" smooth="yes"/>
			<point x="248" y="-104"/>
			<point x="104" y="-4"/>
			<point x="104" y="212" type="curve" smooth="yes"/>
			<point x="104" y="424"/>
			<point x="252" y="608"/>
			<point x="456" y="608" type="curve" smooth="yes"/>
			<point x="624" y="608"/>
			<point x="732" y="496"/>
			<point x="732" y="324" type="curve" smooth="yes"/>
			<point x="732" y="188"/>
			<point x="672" y="100"/>
			<point x="596" y="100" type="curve" smooth="yes"/>
			<point x="556" y="100"/>
			<point x="536" y="120"/>
			<point x="548" y="184" type="curve" smooth="yes"/>
			<point x="604" y="472" type="line"/>
			<point x="564" y="472" type="line"/>
			<point x="516" y="408" type="line"/>
			<point x="464" y="140" type="line"/>
			<point x="472" y="140" type="line"/>
			<point x="472" y="88"/>
			<point x="508" y="48"/>
		</contour>
	</outline>
</glyph>
<glyph name="F" format="2">
	<unicode hex="0046"/>
	<advance width="644"/>
	<outline>
		<contour>
			<point x="36" y="0" type="line"/>
			<point x="368" y="0" type="line"/>
			<point x="368" y="64" type="line"/>
			<point x="216" y="64" type="line"/>
			<point x="172" y="64" type="line"/>
			<point x="36" y="64" type="line"/>
		</contour>
		<contour>
			<point x="140" y="0" type="curve"/>
			<point x="248" y="0" type="line"/>
			<point x="248" y="104"/>
			<point x="248" y="208"/>
			<point x="248" y="312" type="curve" smooth="yes"/>
			<point x="248" y="360" type="line" smooth="yes"/>
			<point x="248" y="464"/>
			<point x="248" y="566"/>
			<point x="248" y="670" type="curve"/>
			<point x="140" y="670" type="line"/>
			<point x="140" y="566"/>
			<point x="140" y="464"/>
			<point x="140" y="360" type="curve" smooth="yes"/>
			<point x="140" y="312" type="line" smooth="yes"/>
			<point x="140" y="208"/>
			<point x="140" y="104"/>
		</contour>
		<contour>
			<point x="196" y="308" type="line"/>
			<point x="448" y="308" type="line"/>
			<point x="448" y="368" type="line"/>
			<point x="196" y="368" type="line"/>
		</contour>
		<contour>
			<point x="420" y="220" type="line"/>
			<point x="480" y="220" type="line"/>
			<point x="480" y="456" type="line"/>
			<point x="420" y="456" type="line"/>
			<point x="396" y="352" type="line"/>
			<point x="396" y="324" type="line"/>
		</contour>
		<contour>
			<point x="36" y="606" type="line"/>
			<point x="172" y="606" type="line"/>
			<point x="188" y="606" type="line"/>
			<point x="188" y="670" type="line"/>
			<point x="36" y="670" type="line"/>
		</contour>
		<contour>
			<point x="540" y="488" type="line"/>
			<point x="604" y="488" type="line"/>
			<point x="596" y="670" type="line"/>
			<point x="188" y="670" type="line"/>
			<point x="188" y="606" type="line"/>
			<point x="548" y="606" type="line"/>
			<point x="500" y="646" type="line"/>
		</contour>
	</outline>
	<anchor name="aboveUC" x="359" y="690"/>
	<anchor name="belowLC" x="193" y="-20"/>
</glyph>
<glyph name="G" format="2">
	<unicode hex="0047"/>
	<advance width="764"/>
	<outline>
		<contour>
			<point x="416" y="-16" type="curve" smooth="yes"/>
			<point x="516" y="-16"/>
			<point x="600" y="8"/>
			<point x="660" y="36" type="curve"/>
			<point x="660" y="88" type="line" smooth="yes"/>
			<point x="660" y="163"/>
			<point x="660" y="241"/>
			<point x="660" y="320" type="curve"/>
			<point x="554" y="320" type="line"/>
			<point x="554" y="241"/>
			<point x="554" y="163"/>
			<point x="554" y="88" type="curve" smooth="yes"/>
			<point x="554" y="36" type="line"/>
			<point x="588" y="84" type="line"/>
			<point x="548" y="64"/>
			<point x="500" y="48"/>
			<point x="428" y="48" type="curve" smooth="yes"/>
			<point x="268" y="48"/>
			<point x="160" y="148"/>
			<point x="160" y="336" type="curve" smooth="yes"/>
			<point x="160" y="524"/>
			<point x="280" y="622"/>
			<point x="424" y="622" type="curve" smooth="yes"/>
			<point x="508" y="622"/>
			<point x="580" y="598"/>
			<point x="624" y="570" type="curve"/>
			<point x="624" y="634" type="line"/>
			<point x="552" y="634" type="line"/>
			<point x="584" y="492" type="line"/>
			<point x="648" y="492" type="line"/>
			<point x="644" y="642" type="line"/>
			<point x="604" y="662"/>
			<point x="524" y="686"/>
			<point x="424" y="686" type="curve" smooth="yes"/>
			<point x="216" y="686"/>
			<point x="48" y="556"/>
			<point x="48" y="332" type="curve" smooth="yes"/>
			<point x="48" y="108"/>
			<point x="204" y="-16"/>
		</contour>
		<contour>
			<point x="444" y="260" type="line"/>
			<point x="592" y="260" type="line"/>
			<point x="628" y="260" type="line"/>
			<point x="732" y="260" type="line"/>
			<point x="732" y="320" type="line"/>
			<point x="444" y="320" type="line"/>
		</contour>
	</outline>
	<anchor name="aboveUC" x="426" y="690"/>
	<anchor name="belowLC" x="430" y="-20"/>
</glyph>
<glyph name="K" format="2">
	<unicode hex="004B"/>
	<advance width="752"/>
	<outline>
		<contour>
			<point x="136" y="0" type="curve"/>
			<point x="244" y="0" type="line"/>
			<point x="244" y="104"/>
			<point x="244" y="208"/>
			<point x="244" y="291" type="curve" smooth="yes"/>
			<point x="244" y="360" type="line" smooth="yes"/>
			<point x="244" y="464"/>
			<point x="244" y="566"/>
			<point x="244" y="670" type="curve"/>
			<point x="136" y="670" type="line"/>
			<point x="136" y="566"/>
			<point x="136" y="464"/>
			<point x="136" y="360" type="curve" smooth="yes"/>
			<point x="136" y="312" type="line" smooth="yes"/>
			<point x="136" y="208"/>
			<point x="136" y="104"/>
		</contour>
		<contour>
			<point x="32" y="0" type="line"/>
			<point x="344" y="0" type="line"/>
			<point x="344" y="64" type="line"/>
			<point x="212" y="64" type="line"/>
			<point x="168" y="64" type="line"/>
			<point x="32" y="64" type="line"/>
		</contour>
		<contour>
			<point x="32" y="606" type="line"/>
			<point x="168" y="606" type="line"/>
			<point x="212" y="606" type="line"/>
			<point x="344" y="606" type="line"/>
			<point x="344" y="670" type="line"/>
			<point x="32" y="670" type="line"/>
		</contour>
		<contour>
			<point x="440" y="0" type="line"/>
			<point x="732" y="0" type="line"/>
			<point x="732" y="64" type="line"/>
			<point x="604" y="64" type="line"/>
			<point x="568" y="64" type="line"/>
			<point x="440" y="64" type="line"/>
		</contour>
		<contour>
			<point x="444" y="606" type="line"/>
			<point x="548" y="606" type="line"/>
			<point x="588" y="606" type="line"/>
			<point x="712" y="606" type="line"/>
			<point x="712" y="670" type="line"/>
			<point x="444" y="670" type="line"/>
		</contour>
		<contour>
			<point x="212" y="188" type="line"/>
			<point x="680" y="670" type="line"/>
			<point x="588" y="670" type="line"/>
			<point x="355" y="415" type="line"/>
			<point x="260" y="286" type="line"/>
			<point x="212" y="286" type="line"/>
		</contour>
		<contour>
			<point x="566" y="0" type="line"/>
			<point x="688" y="0" type="line"/>
			<point x="404" y="436" type="line"/>
			<point x="332" y="360" type="line"/>
		</contour>
	</outline>
	<anchor name="aboveUC" x="374" y="690"/>
	<anchor name="belowLC" x="383" y="-20"/>
</glyph>
<glyph name="L" format="2">
	<unicode hex="004C"/>
	<advance width="640"/>
	<outline>
		<contour>
			<point x="36" y="0" type="line"/>
			<point x="188" y="0" type="line"/>
			<point x="188" y="64" type="line"/>
			<point x="172" y="64" type="line"/>
			<point x="36" y="64" type="line"/>
		</contour>
		<contour>
			<point x="140" y="0" type="curve"/>
			<point x="248" y="0" type="line"/>
			<point x="248" y="104"/>
			<point x="248" y="208"/>
			<point x="248" y="312" type="curve" smooth="yes"/>
			<point x="248" y="360" type="line" smooth="yes"/>
			<point x="248" y="464"/>
			<point x="248" y="566"/>
			<point x="248" y="670" type="curve"/>
			<point x="140" y="670" type="line"/>
			<point x="140" y="566"/>
			<point x="140" y="464"/>
			<point x="140" y="360" type="curve" smooth="yes"/>
			<point x="140" y="312" type="line" smooth="yes"/>
			<point x="140" y="208"/>
			<point x="140" y="104"/>
		</contour>
		<contour>
			<point x="188" y="0" type="line"/>
			<point x="600" y="0" type="line"/>
			<point x="608" y="208" type="line"/>
			<point x="544" y="208" type="line"/>
			<point x="504" y="24" type="line"/>
			<point x="552" y="64" type="line"/>
			<point x="188" y="64" type="line"/>
		</contour>
		<contour>
			<point x="36" y="606" type="line"/>
			<point x="172" y="606" type="line"/>
			<point x="216" y="606" type="line"/>
			<point x="368" y="606" type="line"/>
			<point x="368" y="670" type="line"/>
			<point x="36" y="670" type="line"/>
		</contour>
	</outline>
	<anchor name="aboveUC" x="200" y="690"/>
	<anchor name="belowLC" x="343" y="-20"/>
</glyph>
<glyph name="P" format="2">
	<unicode hex="0050"/>
	<advance width="652"/>
	<outline>
		<contour>
			<point x="32" y="0" type="line"/>
			<point x="364" y="0" type="line"/>
			<point x="364" y="64" type="line"/>
			<point x="212" y="64" type="line"/>
			<point x="168" y="64" type="line"/>
			<point x="32" y="64" type="line"/>
		</contour>
		<contour>
			<point x="136" y="0" type="curve"/>
			<point x="244" y="0" type="line"/>
			<point x="244" y="104"/>
			<point x="244" y="208"/>
			<point x="244" y="293" type="curve" smooth="yes"/>
			<point x="244" y="360" type="line" smooth="yes"/>
			<point x="244" y="464"/>
			<point x="244" y="566"/>
			<point x="244" y="670" type="curve"/>
			<point x="136" y="670" type="line"/>
			<point x="136" y="566"/>
			<point x="136" y="464"/>
			<point x="136" y="360" type="curve" smooth="yes"/>
			<point x="136" y="312" type="line" smooth="yes"/>
			<point x="136" y="208"/>
			<point x="136" y="104"/>
		</contour>
		<contour>
			<point x="196" y="260" type="line"/>
			<point x="304" y="260" type="line" smooth="yes"/>
			<point x="512" y="260"/>
			<point x="612" y="348"/>
			<point x="612" y="472" type="curve" smooth="yes"/>
			<point x="612" y="596"/>
			<point x="512" y="670"/>
			<point x="320" y="670" type="curve" smooth="yes"/>
			<point x="212" y="670" type="line"/>
			<point x="212" y="608" type="line"/>
			<point x="312" y="608" type="line" smooth="yes"/>
			<point x="448" y="608"/>
			<point x="502" y="564"/>
			<point x="502" y="468" type="curve" smooth="yes"/>
			<point x="502" y="372"/>
			<point x="448" y="320"/>
			<point x="296" y="320" type="curve" smooth="yes"/>
			<point x="196" y="320" type="line"/>
		</contour>
		<contour>
			<point x="32" y="606" type="line"/>
			<point x="152" y="606" type="line"/>
			<point x="168" y="606" type="line"/>
			<point x="168" y="670" type="line"/>
			<point x="32" y="670" type="line"/>
		</contour>
	</outline>
	<anchor name="aboveUC" x="321" y="690"/>
	<anchor name="belowLC" x="188" y="-20"/>
</glyph>
<glyph name="R" format="2">
	<unicode hex="0052"/>
	<advance width="728"/>
	<outline>
		<contour>
			<point x="32" y="0" type="line"/>
			<point x="348" y="0" type="line"/>
			<point x="348" y="64" type="line"/>
			<point x="212" y="64" type="line"/>
			<point x="168" y="64" type="line"/>
			<point x="32" y="64" type="line"/>
		</contour>
		<contour>
			<point x="136" y="0" type="curve"/>
			<point x="244" y="0" type="line"/>
			<point x="244" y="104"/>
			<point x="244" y="208"/>
			<point x="244" y="312" type="curve" smooth="yes"/>
			<point x="244" y="350" type="line" smooth="yes"/>
			<point x="244" y="457"/>
			<point x="244" y="563"/>
			<point x="244" y="670" type="curve"/>
			<point x="136" y="670" type="line"/>
			<point x="136" y="566"/>
			<point x="136" y="464"/>
			<point x="136" y="360" type="curve" smooth="yes"/>
			<point x="136" y="312" type="line" smooth="yes"/>
			<point x="136" y="208"/>
			<point x="136" y="104"/>
		</contour>
		<contour>
			<point x="620" y="-8" type="curve" smooth="yes"/>
			<point x="652" y="-8"/>
			<point x="684" y="-4"/>
			<point x="708" y="0" type="curve"/>
			<point x="708" y="60" type="line"/>
			<point x="580" y="68" type="line"/>
			<point x="620" y="32" type="line"/>
			<point x="564" y="208" type="line" smooth="yes"/>
			<point x="536" y="296"/>
			<point x="492" y="324"/>
			<point x="396" y="324" type="curve"/>
			<point x="396" y="344" type="line"/>
			<point x="508" y="348"/>
			<point x="616" y="392"/>
			<point x="616" y="498" type="curve" smooth="yes"/>
			<point x="616" y="604"/>
			<point x="524" y="670"/>
			<point x="356" y="670" type="curve" smooth="yes"/>
			<point x="212" y="670" type="line"/>
			<point x="212" y="608" type="line"/>
			<point x="340" y="608" type="line" smooth="yes"/>
			<point x="452" y="608"/>
			<point x="504" y="572"/>
			<point x="504" y="494" type="curve" smooth="yes"/>
			<point x="504" y="416"/>
			<point x="452" y="360"/>
			<point x="340" y="360" type="curve" smooth="yes"/>
			<point x="196" y="360" type="line"/>
			<point x="196" y="304" type="line"/>
			<point x="332" y="304" type="line" smooth="yes"/>
			<point x="404" y="304"/>
			<point x="433" y="280"/>
			<point x="456" y="200" type="curve" smooth="yes"/>
			<point x="490" y="84" type="line" smooth="yes"/>
			<point x="510" y="16"/>
			<point x="548" y="-8"/>
		</contour>
		<contour>
			<point x="32" y="606" type="line"/>
			<point x="152" y="606" type="line"/>
			<point x="168" y="606" type="line"/>
			<point x="168" y="670" type="line"/>
			<point x="32" y="670" type="line"/>
		</contour>
	</outline>
	<anchor name="aboveUC" x="350" y="690"/>
	<anchor name="belowLC" x="383" y="-20"/>
</glyph>
<glyph name="W" format="2">
	<unicode hex="0057"/>
	<advance width="1048"/>
	<outline>
		<contour>
			<point x="268" y="0" type="line"/>
			<point x="377" y="0" type="line"/>
			<point x="473" y="338" type="line"/>
			<point x="525" y="578" type="line"/>
			<point x="533" y="578" type="line"/>
			<point x="666" y="0" type="line"/>
			<point x="770" y="0" type="line"/>
			<point x="972" y="670" type="line"/>
			<point x="898" y="670" type="line"/>
			<point x="813" y="362" type="line"/>
			<point x="758" y="64" type="line"/>
			<point x="747" y="64" type="line"/>
			<point x="590" y="670" type="line"/>
			<point x="494" y="670" type="line"/>
			<point x="411" y="365" type="line"/>
			<point x="360" y="64" type="line"/>
			<point x="349" y="64" type="line"/>
			<point x="188" y="670" type="line"/>
			<point x="76" y="670" type="line"/>
		</contour>
		<contour>
			<point x="12" y="606" type="line"/>
			<point x="112" y="606" type="line"/>
			<point x="188" y="606" type="line"/>
			<point x="300" y="606" type="line"/>
			<point x="300" y="670" type="line"/>
			<point x="12" y="670" type="line"/>
		</contour>
		<contour>
			<point x="402" y="606" type="line"/>
			<point x="514" y="606" type="line"/>
			<point x="586" y="606" type="line"/>
			<point x="698" y="606" type="line"/>
			<point x="698" y="670" type="line"/>
			<point x="402" y="670" type="line"/>
		</contour>
		<contour>
			<point x="792" y="606" type="line"/>
			<point x="896" y="606" type="line"/>
			<point x="932" y="606" type="line"/>
			<point x="1036" y="606" type="line"/>
			<point x="1036" y="670" type="line"/>
			<point x="792" y="670" type="line"/>
		</contour>
	</outline>
	<anchor name="aboveUC" x="548" y="690"/>
	<anchor name="belowLC" x="532" y="-20"/>
</glyph>
<glyph name="Y" format="2">
	<unicode hex="0059"/>
	<advance width="700"/>
	<outline>
		<contour>
			<point x="180" y="0" type="line"/>
			<point x="520" y="0" type="line"/>
			<point x="520" y="64" type="line"/>
			<point x="372" y="64" type="line"/>
			<point x="328" y="64" type="line"/>
			<point x="180" y="64" type="line"/>
		</contour>
		<contour>
			<point x="296" y="0" type="curve"/>
			<point x="404" y="0" type="line"/>
			<point x="404" y="100"/>
			<point x="404" y="200"/>
			<point x="404" y="300" type="curve"/>
			<point x="296" y="300" type="line"/>
			<point x="296" y="200"/>
			<point x="296" y="100"/>
		</contour>
		<contour>
			<point x="310" y="201" type="line"/>
			<point x="390" y="201" type="line"/>
			<point x="636" y="670" type="line"/>
			<point x="556" y="670" type="line"/>
			<point x="467" y="489" type="line"/>
			<point x="387" y="294" type="line"/>
			<point x="375" y="294" type="line"/>
			<point x="188" y="670" type="line"/>
			<point x="64" y="670" type="line"/>
		</contour>
		<contour>
			<point x="12" y="606" type="line"/>
			<point x="116" y="606" type="line"/>
			<point x="196" y="606" type="line"/>
			<point x="316" y="606" type="line"/>
			<point x="316" y="670" type="line"/>
			<point x="12" y="670" type="line"/>
		</contour>
		<contour>
			<point x="428" y="606" type="line"/>
			<point x="540" y="606" type="line"/>
			<point x="588" y="606" type="line"/>
			<point x="688" y="606" type="line"/>
			<point x="688" y="670" type="line"/>
			<point x="428" y="670" type="line"/>
		</contour>
	</outline>
	<anchor name="aboveUC" x="376" y="690"/>
	<anchor name="belowLC" x="350" y="-20"/>
</glyph>
<glyph name="Z" format="2">
	<unicode hex="005A"/>
	<advance width="620"/>
	<outline>
		<contour>
			<point x="28" y="0" type="line"/>
			<point x="584" y="0" type="line"/>
			<point x="592" y="192" type="line"/>
			<point x="528" y="192" type="line"/>
			<point x="488" y="24" type="line"/>
			<point x="536" y="60" type="line"/>
			<point x="323" y="60" type="line"/>
			<point x="150" y="47" type="line"/>
			<point x="150" y="89" type="line"/>
			<point x="132" y="35" type="line"/>
			<point x="568" y="622" type="line"/>
			<point x="568" y="670" type="line"/>
			<point x="52" y="670" type="line"/>
			<point x="44" y="480" type="line"/>
			<point x="108" y="480" type="line"/>
			<point x="148" y="646" type="line"/>
			<point x="100" y="610" type="line"/>
			<point x="282" y="610" type="line"/>
			<point x="445" y="623" type="line"/>
			<point x="445" y="581" type="line"/>
			<point x="463" y="635" type="line"/>
			<point x="28" y="48" type="line"/>
		</contour>
	</outline>
	<anchor name="aboveUC" x="300" y="690"/>
	<anchor name="belowLC" x="322" y="-20"/>
</glyph>
<glyph name="underscore" format="2">
	<unicode hex="005F"/>
	<advance width="516"/>
	<outline>
		<contour>
			<point x="-5" y="-56" type="line"/>
			<point x="521" y="-56" type="line"/>
			<point x="521" y="24" type="line"/>
			<point x="-5" y="24" type="line"/>
		</contour>
	</outline>
</glyph>
<glyph name="a" format="2">
	<unicode hex="0061"/>
	<advance width="572"/>
	<outline>
		<contour>
			<point x="190" y="-16" type="curve" smooth="yes"/>
			<point x="280" y="-16"/>
			<point x="320" y="40"/>
			<point x="340" y="84" type="curve"/>
			<point x="380" y="84" type="line"/>
			<point x="380" y="148" type="line"/>
			<point x="336" y="100"/>
			<point x="296" y="56"/>
			<point x="232" y="56" type="curve" smooth="yes"/>
			<point x="176" y="56"/>
			<point x="144" y="92"/>
			<point x="144" y="140" type="curve" smooth="yes"/>
			<point x="144" y="188"/>
			<point x="168" y="214"/>
			<point x="240" y="236" type="curve" smooth="yes"/>
			<point x="292" y="252"/>
			<point x="344" y="268"/>
			<point x="396" y="284" type="curve"/>
			<point x="396" y="330" type="line"/>
			<point x="333" y="313"/>
			<point x="271" y="297"/>
			<point x="208" y="280" type="curve" smooth="yes"/>
			<point x="104" y="252"/>
			<point x="48" y="208"/>
			<point x="48" y="120" type="curve" smooth="yes"/>
			<point x="48" y="32"/>
			<point x="112" y="-16"/>
		</contour>
		<contour>
			<point x="472" y="-12" type="curve" smooth="yes"/>
			<point x="516" y="-12"/>
			<point x="544" y="8"/>
			<point x="560" y="20" type="curve"/>
			<point x="548" y="68" type="line"/>
			<point x="538" y="64"/>
			<point x="524" y="60"/>
			<point x="508" y="60" type="curve" smooth="yes"/>
			<point x="476" y="60"/>
			<point x="460" y="76"/>
			<point x="460" y="116" type="curve" smooth="yes"/>
			<point x="460" y="348" type="line" smooth="yes"/>
			<point x="460" y="476"/>
			<point x="380" y="520"/>
			<point x="276" y="520" type="curve" smooth="yes"/>
			<point x="156" y="520"/>
			<point x="76" y="460"/>
			<point x="60" y="372" type="curve"/>
			<point x="64" y="352"/>
			<point x="80" y="328"/>
			<point x="116" y="328" type="curve" smooth="yes"/>
			<point x="152" y="328"/>
			<point x="172" y="348"/>
			<point x="176" y="396" type="curve" smooth="yes"/>
			<point x="184" y="492" type="line"/>
			<point x="146" y="444" type="line"/>
			<point x="172" y="457"/>
			<point x="204" y="464"/>
			<point x="248" y="464" type="curve" smooth="yes"/>
			<point x="324" y="464"/>
			<point x="364" y="428"/>
			<point x="364" y="340" type="curve" smooth="yes"/>
			<point x="364" y="108" type="line"/>
			<point x="368" y="108" type="line"/>
			<point x="372" y="24"/>
			<point x="412" y="-12"/>
		</contour>
	</outline>
	<anchor name="aboveLC" x="276" y="528"/>
	<anchor name="belowLC" x="292" y="-20"/>
	<anchor name="ogonek" x="502" y="0"/>
</glyph>
<glyph name="g" format="2">
	<unicode hex="0067"/>
	<advance width="596"/>
	<outline>
		<contour>
			<point x="268" y="-232" type="curve" smooth="yes"/>
			<point x="412" y="-232"/>
			<point x="540" y="-155"/>
			<point x="540" y="-55" type="curve" smooth="yes"/>
			<point x="540" y="21"/>
			<point x="480" y="80"/>
			<point x="368" y="80" type="curve" smooth="yes"/>
			<point x="228" y="80" type="line" smooth="yes"/>
			<point x="168" y="80"/>
			<point x="148" y="100"/>
			<point x="148" y="128" type="curve" smooth="yes"/>
			<point x="148" y="160"/>
			<point x="168" y="176"/>
			<point x="212" y="208" type="curve"/>
			<point x="144" y="208" type="line"/>
			<point x="144" y="176" type="line"/>
			<point x="92" y="168"/>
			<point x="56" y="148"/>
			<point x="56" y="100" type="curve" smooth="yes"/>
			<point x="56" y="52"/>
			<point x="96" y="36"/>
			<point x="144" y="28" type="curve"/>
			<point x="144" y="0" type="line"/>
			<point x="167" y="0"/>
			<point x="189" y="0"/>
			<point x="212" y="0" type="curve" smooth="yes"/>
			<point x="352" y="0" type="line" smooth="yes"/>
			<point x="416" y="0"/>
			<point x="448" y="-27"/>
			<point x="448" y="-71" type="curve" smooth="yes"/>
			<point x="448" y="-123"/>
			<point x="388" y="-176"/>
			<point x="274" y="-176" type="curve" smooth="yes"/>
			<point x="160" y="-176"/>
			<point x="128" y="-131"/>
			<point x="128" y="-91" type="curve" smooth="yes"/>
			<point x="128" y="-51"/>
			<point x="152" y="-16"/>
			<point x="188" y="4" type="curve"/>
			<point x="180" y="12" type="line"/>
			<point x="80" y="-8"/>
			<point x="32" y="-43"/>
			<point x="32" y="-107" type="curve" smooth="yes"/>
			<point x="32" y="-179"/>
			<point x="124" y="-232"/>
		</contour>
		<contour>
			<point x="260" y="176" type="curve" smooth="yes"/>
			<point x="380" y="176"/>
			<point x="464" y="248"/>
			<point x="464" y="350" type="curve" smooth="yes"/>
			<point x="464" y="384"/>
			<point x="456" y="408"/>
			<point x="440" y="432" type="curve"/>
			<point x="428" y="432" type="line"/>
			<point x="408" y="480"/>
			<point x="348" y="520"/>
			<point x="260" y="520" type="curve" smooth="yes"/>
			<point x="140" y="520"/>
			<point x="56" y="448"/>
			<point x="56" y="346" type="curve" smooth="yes"/>
			<point x="56" y="244"/>
			<point x="140" y="176"/>
		</contour>
		<contour>
			<point x="260" y="232" type="curve" smooth="yes"/>
			<point x="196" y="232"/>
			<point x="152" y="276"/>
			<point x="152" y="348" type="curve" smooth="yes"/>
			<point x="152" y="420"/>
			<point x="196" y="464"/>
			<point x="260" y="464" type="curve" smooth="yes"/>
			<point x="324" y="464"/>
			<point x="368" y="420"/>
			<point x="368" y="348" type="curve" smooth="yes"/>
			<point x="368" y="276"/>
			<point x="324" y="232"/>
		</contour>
		<contour>
			<point x="408" y="416" type="line"/>
			<point x="560" y="416" type="line"/>
			<point x="560" y="528" type="line"/>
			<point x="512" y="528" type="line"/>
			<point x="452" y="448" type="line"/>
			<point x="408" y="448" type="line"/>
		</contour>
	</outline>
	<anchor name="aboveLC" x="290" y="528"/>
	<anchor name="belowLC" x="289" y="-245"/>
</glyph>
<glyph name="k" format="2">
	<unicode hex="006B"/>
	<advance width="640"/>
	<outline>
		<contour>
			<point x="48" y="0" type="line"/>
			<point x="312" y="0" type="line"/>
			<point x="312" y="60" type="line"/>
			<point x="196" y="60" type="line"/>
			<point x="164" y="60" type="line"/>
			<point x="48" y="60" type="line"/>
		</contour>
		<contour>
			<point x="132" y="0" type="curve"/>
			<point x="228" y="0" type="line"/>
			<point x="228" y="73"/>
			<point x="228" y="147"/>
			<point x="228" y="220" type="curve" smooth="yes"/>
			<point x="228" y="618" type="line"/>
			<point x="228" y="730" type="line"/>
			<point x="188" y="730" type="line"/>
			<point x="40" y="706" type="line"/>
			<point x="40" y="658" type="line"/>
			<point x="132" y="638" type="line"/>
			<point x="132" y="220" type="line" smooth="yes"/>
			<point x="132" y="147"/>
			<point x="132" y="73"/>
		</contour>
		<contour>
			<point x="188" y="156" type="line"/>
			<point x="576" y="508" type="line"/>
			<point x="488" y="508" type="line"/>
			<point x="366" y="387" type="line"/>
			<point x="244" y="246" type="line"/>
			<point x="188" y="246" type="line"/>
		</contour>
		<contour>
			<point x="464" y="0" type="line"/>
			<point x="620" y="0" type="line"/>
			<point x="620" y="56" type="line"/>
			<point x="542" y="64" type="line"/>
			<point x="356" y="344" type="line"/>
			<point x="296" y="280" type="line"/>
		</contour>
		<contour>
			<point x="332" y="452" type="line"/>
			<point x="456" y="444" type="line"/>
			<point x="472" y="444" type="line"/>
			<point x="604" y="452" type="line"/>
			<point x="604" y="508" type="line"/>
			<point x="332" y="508" type="line"/>
		</contour>
	</outline>
	<anchor name="aboveLC" x="184" y="740"/>
	<anchor name="belowLC" x="342" y="-20"/>
</glyph>
<glyph name="m" format="2">
	<unicode hex="006D"/>
	<advance width="1008"/>
	<outline>
		<contour>
			<point x="44" y="0" type="line"/>
			<point x="304" y="0" type="line"/>
			<point x="304" y="60" type="line"/>
			<point x="192" y="60" type="line"/>
			<point x="160" y="60" type="line"/>
			<point x="44" y="60" type="line"/>
		</contour>
		<contour>
			<point x="128" y="0" type="curve"/>
			<point x="224" y="0" type="line"/>
			<point x="224" y="73"/>
			<point x="224" y="147"/>
			<point x="224" y="220" type="curve" smooth="yes"/>
			<point x="224" y="408" type="line"/>
			<point x="216" y="408" type="line"/>
			<point x="200" y="508" type="line"/>
			<point x="160" y="508" type="line"/>
			<point x="40" y="468" type="line"/>
			<point x="40" y="416" type="line"/>
			<point x="128" y="416" type="line"/>
			<point x="128" y="369"/>
			<point x="128" y="323"/>
			<point x="128" y="276" type="curve" smooth="yes"/>
			<point x="128" y="220" type="line" smooth="yes"/>
			<point x="128" y="147"/>
			<point x="128" y="73"/>
		</contour>
		<contour>
			<point x="384" y="0" type="line"/>
			<point x="644" y="0" type="line"/>
			<point x="644" y="60" type="line"/>
			<point x="528" y="60" type="line"/>
			<point x="496" y="60" type="line"/>
			<point x="384" y="60" type="line"/>
		</contour>
		<contour>
			<point x="464" y="0" type="curve"/>
			<point x="560" y="0" type="line"/>
			<point x="560" y="73"/>
			<point x="560" y="147"/>
			<point x="560" y="220" type="curve" smooth="yes"/>
			<point x="560" y="352" type="line" smooth="yes"/>
			<point x="560" y="460"/>
			<point x="510" y="520"/>
			<point x="408" y="520" type="curve" smooth="yes"/>
			<point x="330" y="520"/>
			<point x="280" y="472"/>
			<point x="248" y="416" type="curve"/>
			<point x="208" y="416" type="line"/>
			<point x="208" y="368" type="line"/>
			<point x="264" y="408"/>
			<point x="322" y="436"/>
			<point x="376" y="436" type="curve" smooth="yes"/>
			<point x="438" y="436"/>
			<point x="464" y="404"/>
			<point x="464" y="328" type="curve" smooth="yes"/>
			<point x="464" y="220" type="line" smooth="yes"/>
			<point x="464" y="147"/>
			<point x="464" y="73"/>
		</contour>
		<contour>
			<point x="720" y="0" type="line"/>
			<point x="980" y="0" type="line"/>
			<point x="980" y="60" type="line"/>
			<point x="864" y="60" type="line"/>
			<point x="832" y="60" type="line"/>
			<point x="720" y="60" type="line"/>
		</contour>
		<contour>
			<point x="800" y="0" type="curve"/>
			<point x="896" y="0" type="line"/>
			<point x="896" y="73"/>
			<point x="896" y="147"/>
			<point x="896" y="220" type="curve" smooth="yes"/>
			<point x="896" y="352" type="line" smooth="yes"/>
			<point x="896" y="460"/>
			<point x="846" y="520"/>
			<point x="744" y="520" type="curve" smooth="yes"/>
			<point x="666" y="520"/>
			<point x="616" y="472"/>
			<point x="584" y="416" type="curve"/>
			<point x="544" y="416" type="line"/>
			<point x="544" y="368" type="line"/>
			<point x="600" y="408"/>
			<point x="658" y="436"/>
			<point x="712" y="436" type="curve" smooth="yes"/>
			<point x="774" y="436"/>
			<point x="800" y="404"/>
			<point x="800" y="328" type="curve" smooth="yes"/>
			<point x="800" y="220" type="line" smooth="yes"/>
			<point x="800" y="147"/>
			<point x="800" y="73"/>
		</contour>
	</outline>
	<anchor name="aboveLC" x="512" y="528"/>
	<anchor name="belowLC" x="517" y="-20"/>
</glyph>
<glyph name="s" format="2">
	<unicode hex="0073"/>
	<advance width="496"/>
	<outline>
		<contour>
			<point x="234" y="-12" type="curve" smooth="yes"/>
			<point x="364" y="-12"/>
			<point x="444" y="52"/>
			<point x="444" y="144" type="curve" smooth="yes"/>
			<point x="444" y="228"/>
			<point x="380" y="269"/>
			<point x="266" y="303" type="curve" smooth="yes"/>
			<point x="246" y="309" type="line" smooth="yes"/>
			<point x="174" y="331"/>
			<point x="148" y="352"/>
			<point x="148" y="392" type="curve" smooth="yes"/>
			<point x="148" y="432"/>
			<point x="180" y="466"/>
			<point x="254" y="466" type="curve" smooth="yes"/>
			<point x="300" y="466"/>
			<point x="340" y="458"/>
			<point x="372" y="442" type="curve"/>
			<point x="372" y="480" type="line"/>
			<point x="328" y="480" type="line"/>
			<point x="352" y="364" type="line"/>
			<point x="416" y="364" type="line"/>
			<point x="416" y="488" type="line"/>
			<point x="380" y="504"/>
			<point x="316" y="520"/>
			<point x="254" y="520" type="curve" smooth="yes"/>
			<point x="132" y="520"/>
			<point x="52" y="464"/>
			<point x="52" y="376" type="curve" smooth="yes"/>
			<point x="52" y="296"/>
			<point x="112" y="255"/>
			<point x="226" y="221" type="curve" smooth="yes"/>
			<point x="246" y="215" type="line" smooth="yes"/>
			<point x="318" y="193"/>
			<point x="346" y="172"/>
			<point x="346" y="128" type="curve" smooth="yes"/>
			<point x="346" y="84"/>
			<point x="316" y="42"/>
			<point x="234" y="42" type="curve" smooth="yes"/>
			<point x="172" y="42"/>
			<point x="116" y="58"/>
			<point x="84" y="74" type="curve"/>
			<point x="84" y="28" type="line"/>
			<point x="140" y="28" type="line"/>
			<point x="112" y="152" type="line"/>
			<point x="48" y="152" type="line"/>
			<point x="52" y="20" type="line"/>
			<point x="92" y="4"/>
			<point x="156" y="-12"/>
		</contour>
	</outline>
	<anchor name="aboveLC" x="252" y="528"/>
	<anchor name="baseLC" x="235" y="0"/>
	<anchor name="belowLC" x="237" y="-20"/>
</glyph>
<glyph name="t" format="2">
	<unicode hex="0074"/>
	<advance width="392"/>
	<outline>
		<contour>
			<point x="172" y="446" type="line"/>
			<point x="360" y="446" type="line"/>
			<point x="360" y="508" type="line"/>
			<point x="172" y="508" type="line"/>
		</contour>
		<contour>
			<point x="256" y="-8" type="curve" smooth="yes"/>
			<point x="312" y="-8"/>
			<point x="356" y="16"/>
			<point x="372" y="28" type="curve"/>
			<point x="350" y="78" type="line"/>
			<point x="336" y="72"/>
			<point x="314" y="64"/>
			<point x="286" y="64" type="curve" smooth="yes"/>
			<point x="240" y="64"/>
			<point x="216" y="84"/>
			<point x="216" y="140" type="curve" smooth="yes"/>
			<point x="216" y="460" type="line"/>
			<point x="208" y="460" type="line"/>
			<point x="224" y="648" type="line"/>
			<point x="160" y="648" type="line"/>
			<point x="128" y="484" type="line"/>
			<point x="160" y="512" type="line"/>
			<point x="28" y="496" type="line"/>
			<point x="28" y="446" type="line"/>
			<point x="120" y="446" type="line"/>
			<point x="120" y="200" type="line" smooth="yes"/>
			<point x="120" y="177"/>
			<point x="120" y="155"/>
			<point x="120" y="132" type="curve" smooth="yes"/>
			<point x="120" y="36"/>
			<point x="176" y="-8"/>
		</contour>
	</outline>
	<anchor name="aboveLC" x="192" y="648"/>
	<anchor name="baseLC" x="242" y="0"/>
	<anchor name="belowLC" x="242" y="-20"/>
</glyph>
<glyph name="y" format="2">
	<unicode hex="0079"/>
	<advance width="660"/>
	<outline>
		<contour>
			<point x="123" y="-237" type="curve" smooth="yes"/>
			<point x="247" y="-237"/>
			<point x="315" y="-168"/>
			<point x="379" y="-12" type="curve" smooth="yes"/>
			<point x="592" y="508" type="line"/>
			<point x="512" y="508" type="line"/>
			<point x="430" y="276" type="line"/>
			<point x="361" y="10" type="line"/>
			<point x="332" y="10" type="line"/>
			<point x="315" y="-24" type="line" smooth="yes"/>
			<point x="276" y="-104"/>
			<point x="247" y="-153"/>
			<point x="199" y="-193" type="curve"/>
			<point x="163" y="-193" type="line"/>
			<point x="183" y="-197" type="line"/>
			<point x="159" y="-173" type="line" smooth="yes"/>
			<point x="135" y="-149"/>
			<point x="111" y="-133"/>
			<point x="73" y="-133" type="curve" smooth="yes"/>
			<point x="35" y="-133"/>
			<point x="15" y="-153"/>
			<point x="7" y="-177" type="curve"/>
			<point x="15" y="-205"/>
			<point x="51" y="-237"/>
		</contour>
		<contour>
			<point x="304" y="-80" type="line"/>
			<point x="381" y="34" type="line"/>
			<point x="345" y="34" type="line"/>
			<point x="180" y="508" type="line"/>
			<point x="72" y="508" type="line"/>
		</contour>
		<contour>
			<point x="24" y="452" type="line"/>
			<point x="132" y="444" type="line"/>
			<point x="172" y="444" type="line"/>
			<point x="296" y="452" type="line"/>
			<point x="296" y="508" type="line"/>
			<point x="24" y="508" type="line"/>
		</contour>
		<contour>
			<point x="400" y="452" type="line"/>
			<point x="504" y="444" type="line"/>
			<point x="544" y="444" type="line"/>
			<point x="636" y="452" type="line"/>
			<point x="636" y="508" type="line"/>
			<point x="400" y="508" type="line"/>
		</contour>
	</outline>
	<anchor name="aboveLC" x="352" y="528"/>
	<anchor name="belowLC" x="189" y="-245"/>
</glyph>
<glyph name="z" format="2">
	<unicode hex="007A"/>
	<advance width="524"/>
	<outline>
		<contour>
			<point x="36" y="0" type="line"/>
			<point x="480" y="0" type="line"/>
			<point x="488" y="172" type="line"/>
			<point x="424" y="172" type="line"/>
			<point x="392" y="16" type="line"/>
			<point x="428" y="56" type="line"/>
			<point x="274" y="56" type="line"/>
			<point x="149" y="44" type="line"/>
			<point x="149" y="70" type="line"/>
			<point x="143" y="52" type="line"/>
			<point x="472" y="460" type="line"/>
			<point x="472" y="508" type="line"/>
			<point x="52" y="508" type="line"/>
			<point x="44" y="344" type="line"/>
			<point x="108" y="344" type="line"/>
			<point x="144" y="492" type="line"/>
			<point x="104" y="452" type="line"/>
			<point x="246" y="452" type="line"/>
			<point x="358" y="464" type="line"/>
			<point x="358" y="438" type="line"/>
			<point x="364" y="456" type="line"/>
			<point x="36" y="48" type="line"/>
		</contour>
	</outline>
	<anchor name="aboveLC" x="261" y="528"/>
	<anchor name="belowLC" x="270" y="-20"/>
</glyph>
<glyph name="braceleft" format="2">
	<unicode hex="007B"/>
	<advance width="374"/>
	<outline>
		<contour>
			<point x="60" y="256" type="line"/>
			<point x="140" y="240"/>
			<point x="172" y="216"/>
			<point x="172" y="164" type="curve" smooth="yes"/>
			<point x="172" y="112"/>
			<point x="124" y="48"/>
			<point x="124" y="-36" type="curve" smooth="yes"/>
			<point x="124" y="-112"/>
			<point x="172" y="-160"/>
			<point x="288" y="-160" type="curve" smooth="yes"/>
			<point x="336" y="-160" type="line"/>
			<point x="336" y="-108" type="line"/>
			<point x="304" y="-104" type="line" smooth="yes"/>
			<point x="240" y="-96"/>
			<point x="216" y="-72"/>
			<point x="216" y="-20" type="curve" smooth="yes"/>
			<point x="216" y="32"/>
			<point x="240" y="104"/>
			<point x="240" y="164" type="curve" smooth="yes"/>
			<point x="240" y="224"/>
			<point x="196" y="264"/>
			<point x="92" y="272" type="curve"/>
			<point x="92" y="284" type="line"/>
			<point x="196" y="292"/>
			<point x="240" y="332"/>
			<point x="240" y="392" type="curve" smooth="yes"/>
			<point x="240" y="452"/>
			<point x="216" y="524"/>
			<point x="216" y="576" type="curve" smooth="yes"/>
			<point x="216" y="628"/>
			<point x="240" y="652"/>
			<point x="304" y="660" type="curve" smooth="yes"/>
			<point x="336" y="664" type="line"/>
			<point x="336" y="716" type="line"/>
			<point x="288" y="716" type="line" smooth="yes"/>
			<point x="172" y="716"/>
			<point x="124" y="668"/>
			<point x="124" y="592" type="curve" smooth="yes"/>
			<point x="124" y="508"/>
			<point x="172" y="444"/>
			<point x="172" y="392" type="curve" smooth="yes"/>
			<point x="172" y="340"/>
			<point x="140" y="316"/>
			<point x="60" y="300" type="curve"/>
		</contour>
	</outline>
</glyph>
<glyph name="sterling" format="2">
	<unicode hex="00A3"/>
	<advance width="537"/>
	<outline>
		<contour>
			<point x="60" y="288" type="line"/>
			<point x="396" y="288" type="line"/>
			<point x="396" y="336" type="line"/>
			<point x="60" y="336" type="line"/>
		</contour>
		<contour>
			<point x="52" y="0" type="line"/>
			<point x="484" y="0" type="line"/>
			<point x="484" y="89" type="line"/>
			<point x="140" y="89" type="line"/>
			<point x="140" y="113" type="line"/>
			<point x="131" y="98" type="line"/>
			<point x="198" y="130"/>
			<point x="232" y="173"/>
			<point x="232" y="240" type="curve" smooth="yes"/>
			<point x="232" y="328"/>
			<point x="188" y="392"/>
			<point x="188" y="476" type="curve" smooth="yes"/>
			<point x="188" y="560"/>
			<point x="228" y="608"/>
			<point x="300" y="608" type="curve" smooth="yes"/>
			<point x="332" y="608"/>
			<point x="363" y="608"/>
			<point x="396" y="608" type="curve"/>
			<point x="332" y="624" type="line"/>
			<point x="356" y="544" type="line" smooth="yes"/>
			<point x="370" y="496"/>
			<point x="396" y="484"/>
			<point x="424" y="484" type="curve" smooth="yes"/>
			<point x="452" y="484"/>
			<point x="468" y="500"/>
			<point x="476" y="524" type="curve"/>
			<point x="452" y="612"/>
			<point x="380" y="660"/>
			<point x="276" y="660" type="curve" smooth="yes"/>
			<point x="156" y="660"/>
			<point x="92" y="576"/>
			<point x="92" y="476" type="curve" smooth="yes"/>
			<point x="92" y="368"/>
			<point x="156" y="304"/>
			<point x="156" y="232" type="curve" smooth="yes"/>
			<point x="156" y="160"/>
			<point x="124" y="119"/>
			<point x="52" y="71" type="curve"/>
		</contour>
	</outline>
</glyph>
<glyph name="currency" format="2">
	<unicode hex="00A4"/>
	<advance width="500"/>
	<outline>
		<contour>
			<point x="367" y="428" type="line"/>
			<point x="414" y="456" type="line" smooth="yes"/>
			<point x="459" y="483"/>
			<point x="471" y="497"/>
			<point x="471" y="514" type="curve" smooth="yes"/>
			<point x="471" y="534"/>
			<point x="455" y="550"/>
			<point x="435" y="550" type="curve" smooth="yes"/>
			<point x="418" y="550"/>
			<point x="404" y="538"/>
			<point x="377" y="493" type="curve" smooth="yes"/>
			<point x="349" y="446" type="line"/>
		</contour>
		<contour>
			<point x="141" y="329" type="curve" smooth="yes"/>
			<point x="141" y="395"/>
			<point x="190" y="441"/>
			<point x="250" y="441" type="curve" smooth="yes"/>
			<point x="309" y="441"/>
			<point x="358" y="395"/>
			<point x="358" y="329" type="curve" smooth="yes"/>
			<point x="358" y="263"/>
			<point x="309" y="217"/>
			<point x="250" y="217" type="curve" smooth="yes"/>
			<point x="190" y="217"/>
			<point x="141" y="263"/>
		</contour>
		<contour>
			<point x="85" y="329" type="curve" smooth="yes"/>
			<point x="85" y="232"/>
			<point x="161" y="167"/>
			<point x="250" y="167" type="curve" smooth="yes"/>
			<point x="338" y="167"/>
			<point x="414" y="232"/>
			<point x="414" y="329" type="curve" smooth="yes"/>
			<point x="414" y="426"/>
			<point x="338" y="491"/>
			<point x="250" y="491" type="curve" smooth="yes"/>
			<point x="161" y="491"/>
			<point x="85" y="426"/>
		</contour>
		<contour>
			<point x="151" y="446" type="line"/>
			<point x="123" y="493" type="line" smooth="yes"/>
			<point x="96" y="538"/>
			<point x="82" y="550"/>
			<point x="65" y="550" type="curve" smooth="yes"/>
			<point x="45" y="550"/>
			<point x="29" y="534"/>
			<point x="29" y="514" type="curve" smooth="yes"/>
			<point x="29" y="497"/>
			<point x="41" y="483"/>
			<point x="86" y="456" type="curve" smooth="yes"/>
			<point x="133" y="428" type="line"/>
		</contour>
		<contour>
			<point x="133" y="230" type="line"/>
			<point x="86" y="202" type="line" smooth="yes"/>
			<point x="41" y="175"/>
			<point x="29" y="161"/>
			<point x="29" y="144" type="curve" smooth="yes"/>
			<point x="29" y="124"/>
			<point x="45" y="108"/>
			<point x="65" y="108" type="curve" smooth="yes"/>
			<point x="82" y="108"/>
			<point x="96" y="120"/>
			<point x="123" y="165" type="curve" smooth="yes"/>
			<point x="151" y="212" type="line"/>
		</contour>
		<contour>
			<point x="349" y="212" type="line"/>
			<point x="377" y="165" type="line" smooth="yes"/>
			<point x="404" y="120"/>
			<point x="418" y="108"/>
			<point x="435" y="108" type="curve" smooth="yes"/>
			<point x="455" y="108"/>
			<point x="471" y="124"/>
			<point x="471" y="144" type="curve" smooth="yes"/>
			<point x="471" y="161"/>
			<point x="459" y="175"/>
			<point x="414" y="202" type="curve" smooth="yes"/>
			<point x="367" y="230" type="line"/>
		</contour>
	</outline>
</glyph>
<glyph name="yen" format="2">
	<unicode hex="00A5"/>
	<advance width="536"/>
	<outline>
		<contour>
			<point x="291" y="252" type="line"/>
			<point x="479" y="648" type="line"/>
			<point x="415" y="648" type="line"/>
			<point x="344" y="483" type="line"/>
			<point x="287" y="308" type="line"/>
			<point x="307" y="308" type="line"/>
			<point x="167" y="648" type="line"/>
			<point x="59" y="648" type="line"/>
			<point x="247" y="252" type="line"/>
		</contour>
		<contour>
			<point x="95" y="588" type="line"/>
			<point x="175" y="588" type="line"/>
			<point x="255" y="588" type="line"/>
			<point x="255" y="648" type="line"/>
			<point x="31" y="648" type="line"/>
			<point x="31" y="588" type="line"/>
		</contour>
		<contour>
			<point x="247" y="60" type="line"/>
			<point x="131" y="60" type="line"/>
			<point x="131" y="0" type="line"/>
			<point x="407" y="0" type="line"/>
			<point x="407" y="60" type="line"/>
			<point x="291" y="60" type="line"/>
		</contour>
		<contour>
			<point x="225" y="165" type="line" smooth="yes"/>
			<point x="225" y="110"/>
			<point x="225" y="55"/>
			<point x="225" y="0" type="curve"/>
			<point x="313" y="0" type="line"/>
			<point x="313" y="55"/>
			<point x="313" y="109"/>
			<point x="313" y="164" type="curve" smooth="yes"/>
			<point x="313" y="324" type="line"/>
			<point x="225" y="324" type="line"/>
		</contour>
		<contour>
			<point x="395" y="588" type="line"/>
			<point x="443" y="588" type="line"/>
			<point x="507" y="588" type="line"/>
			<point x="507" y="648" type="line"/>
			<point x="327" y="648" type="line"/>
			<point x="327" y="588" type="line"/>
		</contour>
		<contour>
			<point x="83" y="144" type="line"/>
			<point x="455" y="144" type="line"/>
			<point x="455" y="192" type="line"/>
			<point x="83" y="192" type="line"/>
		</contour>
		<contour>
			<point x="83" y="268" type="line"/>
			<point x="455" y="268" type="line"/>
			<point x="455" y="316" type="line"/>
			<point x="83" y="316" type="line"/>
		</contour>
	</outline>
</glyph>
<glyph name="copyright" format="2">
	<unicode hex="00A9"/>
	<advance width="756"/>
	<outline>
		<contour>
			<point x="378" y="-16" type="curve" smooth="yes"/>
			<point x="572" y="-16"/>
			<point x="726" y="116"/>
			<point x="726" y="334" type="curve" smooth="yes"/>
			<point x="726" y="552"/>
			<point x="572" y="686"/>
			<point x="378" y="686" type="curve" smooth="yes"/>
			<point x="184" y="686"/>
			<point x="30" y="552"/>
			<point x="30" y="334" type="curve" smooth="yes"/>
			<point x="30" y="116"/>
			<point x="184" y="-16"/>
		</contour>
		<contour>
			<point x="378" y="32" type="curve" smooth="yes"/>
			<point x="213" y="32"/>
			<point x="88" y="147"/>
			<point x="88" y="334" type="curve" smooth="yes"/>
			<point x="88" y="522"/>
			<point x="213" y="638"/>
			<point x="378" y="638" type="curve" smooth="yes"/>
			<point x="543" y="638"/>
			<point x="668" y="523"/>
			<point x="668" y="334" type="curve" smooth="yes"/>
			<point x="668" y="147"/>
			<point x="543" y="32"/>
		</contour>
		<contour>
			<point x="394" y="135" type="curve" smooth="yes"/>
			<point x="436" y="135"/>
			<point x="476" y="143"/>
			<point x="512" y="162" type="curve"/>
			<point x="515" y="273" type="line"/>
			<point x="467" y="273" type="line"/>
			<point x="448" y="161" type="line"/>
			<point x="500" y="209" type="line"/>
			<point x="469" y="188"/>
			<point x="424" y="183"/>
			<point x="401" y="183" type="curve" smooth="yes"/>
			<point x="322" y="183"/>
			<point x="269" y="238"/>
			<point x="269" y="338" type="curve" smooth="yes"/>
			<point x="269" y="439"/>
			<point x="328" y="494"/>
			<point x="401" y="494" type="curve" smooth="yes"/>
			<point x="428" y="494"/>
			<point x="462" y="487"/>
			<point x="495" y="466" type="curve"/>
			<point x="443" y="512" type="line"/>
			<point x="462" y="402" type="line"/>
			<point x="509" y="402" type="line"/>
			<point x="507" y="511" type="line"/>
			<point x="468" y="533"/>
			<point x="436" y="539"/>
			<point x="393" y="539" type="curve" smooth="yes"/>
			<point x="282" y="539"/>
			<point x="199" y="454"/>
			<point x="199" y="338" type="curve" smooth="yes"/>
			<point x="199" y="219"/>
			<point x="278" y="135"/>
		</contour>
	</outline>
</glyph>
<glyph name="degree" format="2">
	<unicode hex="00B0"/>
	<advance width="360"/>
	<outline>
		<contour>
			<point x="180" y="458" type="curve" smooth="yes"/>
			<point x="128" y="458"/>
			<point x="92" y="496"/>
			<point x="92" y="550" type="curve" smooth="yes"/>
			<point x="92" y="604"/>
			<point x="128" y="642"/>
			<point x="180" y="642" type="curve" smooth="yes"/>
			<point x="232" y="642"/>
			<point x="268" y="604"/>
			<point x="268" y="550" type="curve" smooth="yes"/>
			<point x="268" y="496"/>
			<point x="232" y="458"/>
		</contour>
		<contour>
			<point x="180" y="414" type="curve" smooth="yes"/>
			<point x="260" y="414"/>
			<point x="320" y="468"/>
			<point x="320" y="550" type="curve" smooth="yes"/>
			<point x="320" y="632"/>
			<point x="260" y="686"/>
			<point x="180" y="686" type="curve" smooth="yes"/>
			<point x="100" y="686"/>
			<point x="40" y="632"/>
			<point x="40" y="550" type="curve" smooth="yes"/>
			<point x="40" y="468"/>
			<point x="100" y="414"/>
		</contour>
	</outline>
</glyph>
<glyph name="three.sups" format="2">
	<unicode hex="00B3"/>
	<advance width="392"/>
	<outline>
		<contour>
			<point x="179" y="397" type="curve" smooth="yes"/>
			<point x="296" y="397"/>
			<point x="355" y="452"/>
			<point x="355" y="519" type="curve" smooth="yes"/>
			<point x="355" y="590"/>
			<point x="303" y="619"/>
			<point x="211" y="622" type="curve"/>
			<point x="211" y="633" type="line"/>
			<point x="291" y="636"/>
			<point x="346" y="674"/>
			<point x="346" y="738" type="curve" smooth="yes"/>
			<point x="346" y="800"/>
			<point x="285" y="840"/>
			<point x="192" y="840" type="curve" smooth="yes"/>
			<point x="113" y="840"/>
			<point x="61" y="806"/>
			<point x="50" y="749" type="curve"/>
			<point x="54" y="733"/>
			<point x="65" y="718"/>
			<point x="90" y="718" type="curve" smooth="yes"/>
			<point x="115" y="718"/>
			<point x="129" y="731"/>
			<point x="137" y="764" type="curve" smooth="yes"/>
			<point x="147" y="820" type="line"/>
			<point x="109" y="797" type="line"/>
			<point x="126" y="799"/>
			<point x="143" y="802"/>
			<point x="170" y="802" type="curve" smooth="yes"/>
			<point x="231" y="802"/>
			<point x="258" y="777"/>
			<point x="258" y="727" type="curve" smooth="yes"/>
			<point x="258" y="677"/>
			<point x="229" y="646"/>
			<point x="158" y="646" type="curve" smooth="yes"/>
			<point x="135" y="646" type="line"/>
			<point x="135" y="605" type="line"/>
			<point x="162" y="605" type="line" smooth="yes"/>
			<point x="235" y="605"/>
			<point x="268" y="574"/>
			<point x="268" y="523" type="curve" smooth="yes"/>
			<point x="268" y="470"/>
			<point x="236" y="435"/>
			<point x="169" y="435" type="curve" smooth="yes"/>
			<point x="136" y="435"/>
			<point x="114" y="438"/>
			<point x="100" y="441" type="curve"/>
			<point x="134" y="418" type="line"/>
			<point x="125" y="476" type="line" smooth="yes"/>
			<point x="118" y="512"/>
			<point x="101" y="525"/>
			<point x="76" y="525" type="curve" smooth="yes"/>
			<point x="52" y="525"/>
			<point x="40" y="509"/>
			<point x="36" y="488" type="curve"/>
			<point x="49" y="430"/>
			<point x="97" y="397"/>
		</contour>
	</outline>
</glyph>
<glyph name="one.sups" format="2">
	<unicode hex="00B9"/>
	<advance width="392"/>
	<outline>
		<contour>
			<point x="65" y="426" type="line"/>
			<point x="327" y="426" type="line"/>
			<point x="327" y="472" type="line"/>
			<point x="218" y="472" type="line"/>
			<point x="176" y="472" type="line"/>
			<point x="65" y="472" type="line"/>
		</contour>
		<contour>
			<point x="154" y="426" type="line"/>
			<point x="243" y="426" type="line"/>
			<point x="243" y="851" type="line"/>
			<point x="211" y="851" type="line"/>
			<point x="72" y="808" type="line"/>
			<point x="72" y="764" type="line"/>
			<point x="154" y="777" type="line"/>
		</contour>
	</outline>
</glyph>
<glyph name="AE" format="2">
	<unicode hex="00C6"/>
	<advance width="992"/>
	<outline>
		<contour>
			<point x="484" y="0" type="curve"/>
			<point x="592" y="0" type="line"/>
			<point x="592" y="104"/>
			<point x="592" y="208"/>
			<point x="592" y="312" type="curve" smooth="yes"/>
			<point x="592" y="360" type="line" smooth="yes"/>
			<point x="592" y="464"/>
			<point x="592" y="566"/>
			<point x="592" y="670" type="curve"/>
			<point x="484" y="670" type="line"/>
			<point x="484" y="312" type="line" smooth="yes"/>
			<point x="484" y="208"/>
			<point x="484" y="104"/>
		</contour>
		<contour>
			<point x="20" y="0" type="line"/>
			<point x="268" y="0" type="line"/>
			<point x="268" y="64" type="line"/>
			<point x="152" y="64" type="line"/>
			<point x="116" y="64" type="line"/>
			<point x="20" y="64" type="line"/>
		</contour>
		<contour>
			<point x="740" y="224" type="line"/>
			<point x="800" y="224" type="line"/>
			<point x="800" y="460" type="line"/>
			<point x="740" y="460" type="line"/>
			<point x="716" y="356" type="line"/>
			<point x="716" y="328" type="line"/>
		</contour>
		<contour>
			<point x="860" y="488" type="line"/>
			<point x="924" y="488" type="line"/>
			<point x="916" y="670" type="line"/>
			<point x="540" y="670" type="line"/>
			<point x="540" y="606" type="line"/>
			<point x="830" y="606" type="line"/>
		</contour>
		<contour>
			<point x="532" y="0" type="line"/>
			<point x="936" y="0" type="line"/>
			<point x="944" y="192" type="line"/>
			<point x="880" y="192" type="line"/>
			<point x="850" y="64" type="line"/>
			<point x="532" y="64" type="line"/>
		</contour>
		<contour>
			<point x="308" y="606" type="line"/>
			<point x="500" y="606" type="line"/>
			<point x="516" y="606" type="line"/>
			<point x="516" y="670" type="line"/>
			<point x="308" y="670" type="line"/>
		</contour>
		<contour>
			<point x="380" y="0" type="line"/>
			<point x="532" y="0" type="line"/>
			<point x="532" y="64" type="line"/>
			<point x="516" y="64" type="line"/>
			<point x="380" y="64" type="line"/>
		</contour>
		<contour>
			<point x="64" y="0" type="line"/>
			<point x="138" y="0" type="line"/>
			<point x="282" y="260" type="line"/>
			<point x="498" y="670" type="line"/>
			<point x="438" y="670" type="line"/>
		</contour>
		<contour>
			<point x="244" y="228" type="line"/>
			<point x="500" y="228" type="line"/>
			<point x="500" y="284" type="line"/>
			<point x="244" y="284" type="line"/>
		</contour>
		<contour>
			<point x="540" y="312" type="line"/>
			<point x="768" y="312" type="line"/>
			<point x="768" y="372" type="line"/>
			<point x="540" y="372" type="line"/>
		</contour>
	</outline>
	<anchor name="aboveUC" x="627" y="690"/>
</glyph>
<glyph name="multiply" format="2">
	<unicode hex="00D7"/>
	<advance width="536"/>
	<outline>
		<contour>
			<point x="438" y="111" type="line"/>
			<point x="486" y="159" type="line"/>
			<point x="96" y="549" type="line"/>
			<point x="48" y="501" type="line"/>
		</contour>
		<contour>
			<point x="485" y="502" type="line"/>
			<point x="439" y="548" type="line"/>
			<point x="49" y="158" type="line"/>
			<point x="95" y="112" type="line"/>
		</contour>
	</outline>
</glyph>
<glyph name="Oslash" format="2">
	<unicode hex="00D8"/>
	<advance width="768"/>
	<outline>
		<contour>
			<point x="712" y="650" type="line"/>
			<point x="672" y="686" type="line"/>
			<point x="56" y="20" type="line"/>
			<point x="96" y="-16" type="line"/>
		</contour>
		<contour>
			<point x="152" y="336" type="curve" smooth="yes"/>
			<point x="152" y="500"/>
			<point x="232" y="624"/>
			<point x="384" y="624" type="curve" smooth="yes"/>
			<point x="536" y="624"/>
			<point x="616" y="500"/>
			<point x="616" y="336" type="curve" smooth="yes"/>
			<point x="616" y="172"/>
			<point x="536" y="46"/>
			<point x="384" y="46" type="curve" smooth="yes"/>
			<point x="232" y="46"/>
			<point x="152" y="172"/>
		</contour>
		<contour>
			<point x="384" y="686" type="curve" smooth="yes"/>
			<point x="184" y="686"/>
			<point x="48" y="544"/>
			<point x="48" y="332" type="curve" smooth="yes"/>
			<point x="48" y="120"/>
			<point x="184" y="-16"/>
			<point x="384" y="-16" type="curve" smooth="yes"/>
			<point x="584" y="-16"/>
			<point x="720" y="128"/>
			<point x="720" y="340" type="curve" smooth="yes"/>
			<point x="720" y="552"/>
			<point x="584" y="686"/>
		</contour>
	</outline>
	<anchor name="aboveUC" x="385" y="690"/>
</glyph>
<glyph name="eth" format="2">
	<unicode hex="00F0"/>
	<advance width="584"/>
	<outline>
		<contour>
			<point x="292" y="-12" type="curve" smooth="yes"/>
			<point x="428" y="-12"/>
			<point x="536" y="100"/>
			<point x="536" y="276" type="curve" smooth="yes"/>
			<point x="536" y="532"/>
			<point x="384" y="650"/>
			<point x="184" y="742" type="curve"/>
			<point x="156" y="702" type="line"/>
			<point x="328" y="602"/>
			<point x="416" y="516"/>
			<point x="460" y="340" type="curve"/>
			<point x="440" y="340" type="line"/>
			<point x="424" y="420"/>
			<point x="382" y="480"/>
			<point x="282" y="480" type="curve" smooth="yes"/>
			<point x="160" y="480"/>
			<point x="48" y="392"/>
			<point x="48" y="230" type="curve" smooth="yes"/>
			<point x="48" y="68"/>
			<point x="156" y="-12"/>
		</contour>
		<contour>
			<point x="292" y="48" type="curve" smooth="yes"/>
			<point x="202" y="48"/>
			<point x="152" y="116"/>
			<point x="152" y="234" type="curve" smooth="yes"/>
			<point x="152" y="352"/>
			<point x="202" y="420"/>
			<point x="294" y="420" type="curve" smooth="yes"/>
			<point x="383" y="420"/>
			<point x="432" y="352"/>
			<point x="432" y="234" type="curve" smooth="yes"/>
			<point x="432" y="116"/>
			<point x="382" y="48"/>
		</contour>
		<contour>
			<point x="184" y="544" type="line"/>
			<point x="504" y="686" type="line"/>
			<point x="480" y="726" type="line"/>
			<point x="160" y="574" type="line"/>
		</contour>
	</outline>
</glyph>
<glyph name="oslash" format="2">
	<unicode hex="00F8"/>
	<advance width="608"/>
	<outline>
		<contour>
			<point x="544" y="488" type="line"/>
			<point x="508" y="520" type="line"/>
			<point x="64" y="20" type="line"/>
			<point x="100" y="-12" type="line"/>
		</contour>
		<contour>
			<point x="304" y="-12" type="curve" smooth="yes"/>
			<point x="440" y="-12"/>
			<point x="560" y="92"/>
			<point x="560" y="258" type="curve" smooth="yes"/>
			<point x="560" y="424"/>
			<point x="440" y="520"/>
			<point x="304" y="520" type="curve" smooth="yes"/>
			<point x="168" y="520"/>
			<point x="48" y="420"/>
			<point x="48" y="252" type="curve" smooth="yes"/>
			<point x="48" y="84"/>
			<point x="168" y="-12"/>
		</contour>
		<contour>
			<point x="304" y="44" type="curve" smooth="yes"/>
			<point x="204" y="44"/>
			<point x="146" y="114"/>
			<point x="146" y="256" type="curve" smooth="yes"/>
			<point x="146" y="394"/>
			<point x="204" y="464"/>
			<point x="304" y="464" type="curve" smooth="yes"/>
			<point x="404" y="464"/>
			<point x="462" y="394"/>
			<point x="462" y="252" type="curve" smooth="yes"/>
			<point x="462" y="114"/>
			<point x="404" y="44"/>
		</contour>
	</outline>
	<anchor name="aboveLC" x="305" y="528"/>
</glyph>
<glyph name="dotlessi" format="2">
	<unicode hex="0131"/>
	<advance width="360"/>
	<outline>
		<contour>
			<point x="48" y="0" type="line"/>
			<point x="312" y="0" type="line"/>
			<point x="312" y="60" type="line"/>
			<point x="196" y="60" type="line"/>
			<point x="164" y="60" type="line"/>
			<point x="48" y="60" type="line"/>
		</contour>
		<contour>
			<point x="132" y="0" type="curve"/>
			<point x="228" y="0" type="line"/>
			<point x="228" y="73"/>
			<point x="228" y="147"/>
			<point x="228" y="220" type="curve" smooth="yes"/>
			<point x="228" y="400" type="line"/>
			<point x="228" y="508" type="line"/>
			<point x="188" y="508" type="line"/>
			<point x="44" y="468" type="line"/>
			<point x="44" y="416" type="line"/>
			<point x="132" y="416" type="line"/>
			<point x="132" y="369"/>
			<point x="132" y="323"/>
			<point x="132" y="276" type="curve" smooth="yes"/>
			<point x="132" y="220" type="line" smooth="yes"/>
			<point x="132" y="147"/>
			<point x="132" y="73"/>
		</contour>
	</outline>
	<anchor name="aboveLC" x="179" y="528"/>
	<anchor name="belowLC" x="179" y="-20"/>
	<anchor name="ogonek" x="225" y="0"/>
</glyph>
<glyph name="Lslash" format="2">
	<unicode hex="0141"/>
	<advance width="640"/>
	<outline>
		<contour>
			<point x="438" y="483" type="line"/>
			<point x="209" y="352" type="line"/>
			<point x="209" y="290" type="line"/>
			<point x="438" y="422" type="line"/>
		</contour>
		<contour>
			<point x="185" y="345" type="line"/>
			<point x="44" y="265" type="line"/>
			<point x="44" y="204" type="line"/>
			<point x="185" y="283" type="line"/>
		</contour>
		<component base="L"/>
	</outline>
</glyph>
<glyph name="OE" format="2">
	<unicode hex="0152"/>
	<advance width="1004"/>
	<outline>
		<contour>
			<point x="160" y="336" type="curve" smooth="yes"/>
			<point x="160" y="500"/>
			<point x="240" y="622"/>
			<point x="388" y="622" type="curve" smooth="yes"/>
			<point x="456" y="622"/>
			<point x="496" y="606"/>
			<point x="528" y="586" type="curve"/>
			<point x="528" y="662" type="line"/>
			<point x="496" y="674"/>
			<point x="464" y="686"/>
			<point x="384" y="686" type="curve" smooth="yes"/>
			<point x="188" y="686"/>
			<point x="48" y="544"/>
			<point x="48" y="332" type="curve" smooth="yes"/>
			<point x="48" y="120"/>
			<point x="188" y="-16"/>
			<point x="384" y="-16" type="curve" smooth="yes"/>
			<point x="464" y="-16"/>
			<point x="496" y="-4"/>
			<point x="528" y="8" type="curve"/>
			<point x="528" y="84" type="line"/>
			<point x="496" y="64"/>
			<point x="456" y="48"/>
			<point x="388" y="48" type="curve" smooth="yes"/>
			<point x="240" y="48"/>
			<point x="160" y="172"/>
		</contour>
		<contour>
			<point x="496" y="0" type="curve"/>
			<point x="604" y="0" type="line"/>
			<point x="604" y="104"/>
			<point x="604" y="208"/>
			<point x="604" y="320" type="curve" smooth="yes"/>
			<point x="604" y="360" type="line" smooth="yes"/>
			<point x="604" y="464"/>
			<point x="604" y="566"/>
			<point x="604" y="670" type="curve"/>
			<point x="496" y="670" type="line"/>
			<point x="496" y="566"/>
			<point x="496" y="464"/>
			<point x="496" y="360" type="curve" smooth="yes"/>
			<point x="496" y="320" type="line" smooth="yes"/>
			<point x="496" y="208"/>
			<point x="496" y="104"/>
		</contour>
		<contour>
			<point x="752" y="224" type="line"/>
			<point x="812" y="224" type="line"/>
			<point x="812" y="460" type="line"/>
			<point x="752" y="460" type="line"/>
			<point x="728" y="356" type="line"/>
			<point x="728" y="328" type="line"/>
		</contour>
		<contour>
			<point x="552" y="312" type="line"/>
			<point x="780" y="312" type="line"/>
			<point x="780" y="372" type="line"/>
			<point x="552" y="372" type="line"/>
		</contour>
		<contour>
			<point x="872" y="488" type="line"/>
			<point x="936" y="488" type="line"/>
			<point x="928" y="670" type="line"/>
			<point x="544" y="670" type="line"/>
			<point x="544" y="606" type="line"/>
			<point x="842" y="606" type="line"/>
		</contour>
		<contour>
			<point x="893" y="192" type="line"/>
			<point x="863" y="64" type="line"/>
			<point x="545" y="64" type="line"/>
			<point x="545" y="0" type="line"/>
			<point x="949" y="0" type="line"/>
			<point x="957" y="192" type="line"/>
		</contour>
	</outline>
	<anchor name="aboveUC" x="549" y="690"/>
</glyph>
<glyph name="Uhorn" format="2">
	<unicode hex="01AF"/>
	<advance width="788"/>
	<outline>
		<contour>
			<point x="400" y="-16" type="curve" smooth="yes"/>
			<point x="568" y="-16"/>
			<point x="664" y="84"/>
			<point x="664" y="260" type="curve" smooth="yes"/>
			<point x="664" y="670" type="line"/>
			<point x="596" y="670" type="line"/>
			<point x="596" y="264" type="line" smooth="yes"/>
			<point x="596" y="116"/>
			<point x="528" y="48"/>
			<point x="416" y="48" type="curve" smooth="yes"/>
			<point x="304" y="48"/>
			<point x="236" y="116"/>
			<point x="236" y="264" type="curve" smooth="yes"/>
			<point x="236" y="360" type="line" smooth="yes"/>
			<point x="236" y="464"/>
			<point x="236" y="566"/>
			<point x="236" y="670" type="curve"/>
			<point x="128" y="670" type="line"/>
			<point x="128" y="566"/>
			<point x="128" y="464"/>
			<point x="128" y="360" type="curve" smooth="yes"/>
			<point x="128" y="248" type="line" smooth="yes"/>
			<point x="128" y="76"/>
			<point x="232" y="-16"/>
		</contour>
		<contour>
			<point x="640" y="623" type="line"/>
			<point x="748" y="625"/>
			<point x="791" y="665"/>
			<point x="791" y="744" type="curve" smooth="yes"/>
			<point x="791" y="776"/>
			<point x="783" y="806"/>
			<point x="777" y="816" type="curve"/>
			<point x="769" y="818"/>
			<point x="756" y="825"/>
			<point x="742" y="825" type="curve" smooth="yes"/>
			<point x="708" y="825"/>
			<point x="693" y="809"/>
			<point x="693" y="781" type="curve" smooth="yes"/>
			<point x="693" y="745"/>
			<point x="719" y="724"/>
			<point x="719" y="696" type="curve" smooth="yes"/>
			<point x="719" y="676"/>
			<point x="693" y="670"/>
			<point x="640" y="670" type="curve"/>
		</contour>
		<contour>
			<point x="24" y="606" type="line"/>
			<point x="144" y="606" type="line"/>
			<point x="220" y="606" type="line"/>
			<point x="348" y="606" type="line"/>
			<point x="348" y="670" type="line"/>
			<point x="24" y="670" type="line"/>
		</contour>
		<contour>
			<point x="484" y="606" type="line"/>
			<point x="612" y="606" type="line"/>
			<point x="628" y="606" type="line"/>
			<point x="628" y="670" type="line"/>
			<point x="484" y="670" type="line"/>
		</contour>
	</outline>
	<anchor name="aboveUC" x="415" y="690"/>
	<anchor name="belowLC" x="396" y="-20"/>
</glyph>
<glyph name="dotlessj" format="2">
	<unicode hex="0237"/>
	<advance width="328"/>
	<outline>
		<contour>
			<point x="34" y="-236" type="curve" smooth="yes"/>
			<point x="110" y="-236"/>
			<point x="154" y="-200"/>
			<point x="182" y="-144" type="curve" smooth="yes"/>
			<point x="210" y="-88"/>
			<point x="222" y="-24"/>
			<point x="222" y="96" type="curve" smooth="yes"/>
			<point x="222" y="400" type="line"/>
			<point x="222" y="508" type="line"/>
			<point x="182" y="508" type="line"/>
			<point x="38" y="468" type="line"/>
			<point x="38" y="416" type="line"/>
			<point x="126" y="416" type="line"/>
			<point x="126" y="369"/>
			<point x="126" y="323"/>
			<point x="126" y="276" type="curve" smooth="yes"/>
			<point x="126" y="96" type="line" smooth="yes"/>
			<point x="126" y="-16"/>
			<point x="120" y="-80"/>
			<point x="114" y="-120" type="curve" smooth="yes"/>
			<point x="108" y="-160"/>
			<point x="104" y="-176"/>
			<point x="94" y="-201" type="curve"/>
			<point x="108" y="-192" type="line"/>
			<point x="84" y="-192" type="line"/>
			<point x="107" y="-201" type="line"/>
			<point x="88" y="-172" type="line" smooth="yes"/>
			<point x="72" y="-148"/>
			<point x="48" y="-128"/>
			<point x="8" y="-128" type="curve" smooth="yes"/>
			<point x="-38" y="-128"/>
			<point x="-58" y="-152"/>
			<point x="-64" y="-180" type="curve"/>
			<point x="-56" y="-200"/>
			<point x="-30" y="-236"/>
		</contour>
	</outline>
	<anchor name="aboveLC" x="178" y="528"/>
	<anchor name="belowLC" x="105" y="-245"/>
</glyph>
<glyph name="alphalatin" format="2">
	<unicode hex="0251"/>
	<advance width="644"/>
	<outline>
		<contour>
			<point x="260" y="-12" type="curve" smooth="yes"/>
			<point x="348" y="-12"/>
			<point x="380" y="36"/>
			<point x="408" y="92" type="curve"/>
			<point x="464" y="92" type="line"/>
			<point x="464" y="180" type="line"/>
			<point x="408" y="104"/>
			<point x="364" y="60"/>
			<point x="292" y="60" type="curve" smooth="yes"/>
			<point x="212" y="60"/>
			<point x="152" y="120"/>
			<point x="152" y="256" type="curve" smooth="yes"/>
			<point x="152" y="392"/>
			<point x="212" y="452"/>
			<point x="292" y="452" type="curve" smooth="yes"/>
			<point x="364" y="452"/>
			<point x="408" y="408"/>
			<point x="464" y="332" type="curve"/>
			<point x="464" y="420" type="line"/>
			<point x="412" y="420" type="line"/>
			<point x="380" y="472"/>
			<point x="348" y="520"/>
			<point x="260" y="520" type="curve" smooth="yes"/>
			<point x="140" y="520"/>
			<point x="48" y="424"/>
			<point x="48" y="252" type="curve" smooth="yes"/>
			<point x="48" y="80"/>
			<point x="140" y="-12"/>
		</contour>
		<contour>
			<point x="432" y="108" type="line"/>
			<point x="436" y="108" type="line"/>
			<point x="440" y="24"/>
			<point x="480" y="-12"/>
			<point x="540" y="-12" type="curve" smooth="yes"/>
			<point x="584" y="-12"/>
			<point x="612" y="8"/>
			<point x="628" y="20" type="curve"/>
			<point x="616" y="68" type="line"/>
			<point x="606" y="64"/>
			<point x="592" y="60"/>
			<point x="576" y="60" type="curve" smooth="yes"/>
			<point x="544" y="60"/>
			<point x="528" y="76"/>
			<point x="528" y="116" type="curve" smooth="yes"/>
			<point x="528" y="400" type="line"/>
			<point x="528" y="508" type="line"/>
			<point x="476" y="508" type="line"/>
			<point x="438" y="408" type="line"/>
			<point x="432" y="408" type="line"/>
		</contour>
	</outline>
	<anchor name="aboveLC" x="336" y="528"/>
	<anchor name="belowLC" x="320" y="-20"/>
</glyph>
<glyph name="j.sups" format="2">
	<unicode hex="02B2"/>
	<advance width="233"/>
	<outline>
		<contour>
			<point x="28" y="270" type="curve" smooth="yes"/>
			<point x="78" y="270"/>
			<point x="110" y="294"/>
			<point x="129" y="329" type="curve" smooth="yes"/>
			<point x="149" y="365"/>
			<point x="158" y="407"/>
			<point x="158" y="490" type="curve" smooth="yes"/>
			<point x="158" y="765" type="line"/>
			<point x="127" y="765" type="line"/>
			<point x="21" y="733" type="line"/>
			<point x="21" y="694" type="line"/>
			<point x="75" y="694" type="line"/>
			<point x="75" y="508" type="line" smooth="yes"/>
			<point x="75" y="424"/>
			<point x="77" y="378"/>
			<point x="74" y="341" type="curve" smooth="yes"/>
			<point x="71" y="320"/>
			<point x="69" y="310"/>
			<point x="64" y="295" type="curve"/>
			<point x="75" y="303" type="line"/>
			<point x="49" y="303" type="line"/>
			<point x="66" y="296" type="line"/>
			<point x="55" y="318" type="line" smooth="yes"/>
			<point x="46" y="340"/>
			<point x="30" y="355"/>
			<point x="2" y="355" type="curve" smooth="yes"/>
			<point x="-27" y="355"/>
			<point x="-42" y="338"/>
			<point x="-46" y="313" type="curve"/>
			<point x="-40" y="292"/>
			<point x="-19" y="270"/>
		</contour>
		<contour>
			<point x="116" y="813" type="curve" smooth="yes"/>
			<point x="145" y="813"/>
			<point x="167" y="835"/>
			<point x="167" y="864" type="curve" smooth="yes"/>
			<point x="167" y="893"/>
			<point x="145" y="915"/>
			<point x="116" y="915" type="curve" smooth="yes"/>
			<point x="87" y="915"/>
			<point x="65" y="893"/>
			<point x="65" y="864" type="curve" smooth="yes"/>
			<point x="65" y="835"/>
			<point x="87" y="813"/>
		</contour>
	</outline>
</glyph>
<glyph name="r.sups" format="2">
	<unicode hex="02B3"/>
	<advance width="346"/>
	<outline>
		<contour>
			<point x="85" y="406" type="line"/>
			<point x="169" y="406" type="line"/>
			<point x="169" y="651" type="line"/>
			<point x="160" y="651" type="line"/>
			<point x="154" y="745" type="line"/>
			<point x="124" y="745" type="line"/>
			<point x="31" y="713" type="line"/>
			<point x="31" y="674" type="line"/>
			<point x="85" y="674" type="line"/>
		</contour>
		<contour>
			<point x="155" y="592" type="line"/>
			<point x="175" y="632"/>
			<point x="207" y="669"/>
			<point x="254" y="687" type="curve"/>
			<point x="217" y="687" type="line"/>
			<point x="227" y="677" type="line" smooth="yes"/>
			<point x="239" y="662"/>
			<point x="254" y="651"/>
			<point x="276" y="651" type="curve" smooth="yes"/>
			<point x="309" y="651"/>
			<point x="325" y="677"/>
			<point x="329" y="706" type="curve"/>
			<point x="323" y="730"/>
			<point x="305" y="751"/>
			<point x="272" y="751" type="curve" smooth="yes"/>
			<point x="226" y="751"/>
			<point x="203" y="716"/>
			<point x="180" y="655" type="curve"/>
			<point x="155" y="655" type="line"/>
		</contour>
		<contour>
			<point x="34" y="406" type="line"/>
			<point x="237" y="406" type="line"/>
			<point x="237" y="450" type="line"/>
			<point x="145" y="450" type="line"/>
			<point x="110" y="450" type="line"/>
			<point x="34" y="450" type="line"/>
		</contour>
	</outline>
</glyph>
<glyph name="ringhalfrightmod" format="2">
	<unicode hex="02BE"/>
	<advance width="166"/>
	<outline>
		<contour>
			<point x="24" y="548" type="line"/>
			<point x="92" y="548"/>
			<point x="140" y="584"/>
			<point x="140" y="650" type="curve" smooth="yes"/>
			<point x="140" y="716"/>
			<point x="92" y="752"/>
			<point x="24" y="752" type="curve"/>
			<point x="24" y="704" type="line"/>
			<point x="60" y="704"/>
			<point x="84" y="684"/>
			<point x="84" y="650" type="curve" smooth="yes"/>
			<point x="84" y="616"/>
			<point x="60" y="596"/>
			<point x="24" y="596" type="curve"/>
		</contour>
	</outline>
</glyph>
<glyph name="ringhalfleftmod" format="2">
	<unicode hex="02BF"/>
	<advance width="166"/>
	<outline>
		<contour>
			<point x="24" y="650" type="curve" smooth="yes"/>
			<point x="24" y="584"/>
			<point x="72" y="548"/>
			<point x="140" y="548" type="curve"/>
			<point x="140" y="596" type="line"/>
			<point x="104" y="596"/>
			<point x="80" y="616"/>
			<point x="80" y="650" type="curve" smooth="yes"/>
			<point x="80" y="684"/>
			<point x="104" y="704"/>
			<point x="140" y="704" type="curve"/>
			<point x="140" y="752" type="line"/>
			<point x="72" y="752"/>
			<point x="24" y="716"/>
		</contour>
	</outline>
</glyph>
<glyph name="verticallinemod" format="2">
	<unicode hex="02C8"/>
	<advance width="116"/>
	<outline>
		<contour>
			<point x="20" y="556" type="line"/>
			<point x="96" y="556" type="line"/>
			<point x="104" y="752" type="line"/>
			<point x="12" y="752" type="line"/>
		</contour>
	</outline>
</glyph>
<glyph name="x.sups" format="2">
	<unicode hex="02E3"/>
	<advance width="423"/>
	<outline>
		<contour>
			<point x="21" y="426" type="line"/>
			<point x="170" y="426" type="line"/>
			<point x="170" y="470" type="line"/>
			<point x="111" y="470" type="line"/>
			<point x="86" y="470" type="line"/>
			<point x="21" y="470" type="line"/>
		</contour>
		<contour>
			<point x="23" y="724" type="line"/>
			<point x="95" y="717" type="line"/>
			<point x="138" y="717" type="line"/>
			<point x="207" y="724" type="line"/>
			<point x="207" y="765" type="line"/>
			<point x="23" y="765" type="line"/>
		</contour>
		<contour>
			<point x="298" y="426" type="line"/>
			<point x="392" y="426" type="line"/>
			<point x="234" y="621" type="line"/>
			<point x="125" y="765" type="line"/>
			<point x="32" y="765" type="line"/>
			<point x="181" y="583" type="line"/>
		</contour>
		<contour>
			<point x="214" y="426" type="line"/>
			<point x="402" y="426" type="line"/>
			<point x="402" y="470" type="line"/>
			<point x="333" y="470" type="line"/>
			<point x="281" y="470" type="line"/>
			<point x="214" y="470" type="line"/>
		</contour>
		<contour>
			<point x="246" y="724" type="line"/>
			<point x="306" y="717" type="line"/>
			<point x="323" y="717" type="line"/>
			<point x="391" y="724" type="line"/>
			<point x="391" y="765" type="line"/>
			<point x="246" y="765" type="line"/>
		</contour>
		<contour>
			<point x="35" y="428" type="line"/>
			<point x="98" y="428" type="line"/>
			<point x="181" y="568" type="line"/>
			<point x="214" y="568" type="line"/>
			<point x="182" y="621" type="line"/>
		</contour>
		<contour>
			<point x="236" y="583" type="line"/>
			<point x="380" y="761" type="line"/>
			<point x="320" y="761" type="line"/>
			<point x="237" y="632" type="line"/>
			<point x="208" y="632" type="line"/>
		</contour>
	</outline>
</glyph>
<glyph name="hoicmb" format="2">
	<unicode hex="0309"/>
	<outline>
		<contour>
			<point x="-18" y="548" type="line"/>
			<point x="52" y="556"/>
			<point x="88" y="588"/>
			<point x="88" y="644" type="curve" smooth="yes"/>
			<point x="88" y="700"/>
			<point x="44" y="740"/>
			<point x="-48" y="748" type="curve"/>
			<point x="-56" y="680" type="line"/>
			<point x="4" y="672"/>
			<point x="24" y="656"/>
			<point x="24" y="630" type="curve" smooth="yes"/>
			<point x="24" y="604"/>
			<point x="4" y="592"/>
			<point x="-28" y="586" type="curve"/>
		</contour>
	</outline>
	<anchor name="_aboveLC" x="0" y="528"/>
	<anchor name="aboveLC" x="1" y="748"/>
</glyph>
<glyph name="ringcmb" format="2">
	<unicode hex="030A"/>
	<outline>
		<contour>
			<point x="0" y="612" type="curve" smooth="yes"/>
			<point x="-34" y="612"/>
			<point x="-58" y="636"/>
			<point x="-58" y="670" type="curve" smooth="yes"/>
			<point x="-58" y="704"/>
			<point x="-34" y="728"/>
			<point x="0" y="728" type="curve" smooth="yes"/>
			<point x="34" y="728"/>
			<point x="58" y="704"/>
			<point x="58" y="670" type="curve" smooth="yes"/>
			<point x="58" y="636"/>
			<point x="34" y="612"/>
		</contour>
		<contour>
			<point x="0" y="568" type="curve" smooth="yes"/>
			<point x="62" y="568"/>
			<point x="108" y="612"/>
			<point x="108" y="670" type="curve" smooth="yes"/>
			<point x="108" y="728"/>
			<point x="62" y="772"/>
			<point x="0" y="772" type="curve" smooth="yes"/>
			<point x="-62" y="772"/>
			<point x="-108" y="728"/>
			<point x="-108" y="670" type="curve" smooth="yes"/>
			<point x="-108" y="612"/>
			<point x="-62" y="568"/>
		</contour>
	</outline>
	<anchor name="_aboveLC" x="0" y="528"/>
	<anchor name="aboveLC" x="0" y="772"/>
</glyph>
<glyph name="hungarumlautcmb" format="2">
	<unicode hex="030B"/>
	<outline>
		<contour>
			<point x="-136" y="594" type="line"/>
			<point x="-92" y="570" type="line"/>
			<point x="-8" y="684" type="line" smooth="yes"/>
			<point x="6" y="704"/>
			<point x="16" y="718"/>
			<point x="16" y="738" type="curve" smooth="yes"/>
			<point x="16" y="758"/>
			<point x="2" y="776"/>
			<point x="-26" y="776" type="curve" smooth="yes"/>
			<point x="-54" y="776"/>
			<point x="-68" y="758"/>
			<point x="-84" y="720" type="curve" smooth="yes"/>
		</contour>
		<contour>
			<point x="36" y="594" type="line"/>
			<point x="80" y="570" type="line"/>
			<point x="164" y="684" type="line" smooth="yes"/>
			<point x="178" y="704"/>
			<point x="188" y="718"/>
			<point x="188" y="738" type="curve" smooth="yes"/>
			<point x="188" y="758"/>
			<point x="174" y="776"/>
			<point x="146" y="776" type="curve" smooth="yes"/>
			<point x="118" y="776"/>
			<point x="104" y="758"/>
			<point x="88" y="720" type="curve" smooth="yes"/>
		</contour>
	</outline>
	<anchor name="_aboveLC" x="0" y="528"/>
	<anchor name="aboveLC" x="0" y="776"/>
</glyph>
<glyph name="caroncmb" format="2">
	<unicode hex="030C"/>
	<outline>
		<contour>
			<point x="-112" y="768" type="line"/>
			<point x="-148" y="740" type="line"/>
			<point x="-32" y="592" type="line"/>
			<point x="32" y="592" type="line"/>
			<point x="148" y="740" type="line"/>
			<point x="112" y="768" type="line"/>
			<point x="-48" y="624" type="line"/>
			<point x="48" y="624" type="line"/>
		</contour>
	</outline>
	<anchor name="_aboveLC" x="0" y="528"/>
	<anchor name="aboveLC" x="0" y="768"/>
</glyph>
<glyph name="cedillacmb" format="2">
	<unicode hex="0327"/>
	<outline>
		<contour>
			<point x="-32" y="-88" type="line"/>
			<point x="24" y="-92"/>
			<point x="44" y="-108"/>
			<point x="44" y="-136" type="curve" smooth="yes"/>
			<point x="44" y="-164"/>
			<point x="24" y="-180"/>
			<point x="-10" y="-180" type="curve" smooth="yes"/>
			<point x="-32" y="-180"/>
			<point x="-48" y="-176"/>
			<point x="-60" y="-172" type="curve"/>
			<point x="-72" y="-214" type="line"/>
			<point x="-62" y="-218"/>
			<point x="-40" y="-224"/>
			<point x="-6" y="-224" type="curve" smooth="yes"/>
			<point x="72" y="-224"/>
			<point x="116" y="-188"/>
			<point x="116" y="-136" type="curve" smooth="yes"/>
			<point x="116" y="-84"/>
			<point x="72" y="-60"/>
			<point x="0" y="-56" type="curve"/>
			<point x="16" y="-80" type="line"/>
			<point x="28" y="4" type="line"/>
			<point x="-16" y="4" type="line"/>
		</contour>
	</outline>
	<anchor name="_baseLC" x="0" y="0"/>
</glyph>
<glyph name="Xi" format="2">
	<unicode hex="039E"/>
	<advance width="640"/>
	<outline>
		<contour>
			<point x="52" y="0" type="line"/>
			<point x="588" y="0" type="line"/>
			<point x="592" y="192" type="line"/>
			<point x="528" y="192" type="line"/>
			<point x="492" y="24" type="line"/>
			<point x="540" y="76" type="line"/>
			<point x="100" y="76" type="line"/>
			<point x="148" y="24" type="line"/>
			<point x="112" y="192" type="line"/>
			<point x="48" y="192" type="line"/>
		</contour>
		<contour>
			<point x="148" y="236" type="line"/>
			<point x="204" y="236" type="line"/>
			<point x="228" y="328" type="line"/>
			<point x="228" y="356" type="line"/>
			<point x="204" y="448" type="line"/>
			<point x="148" y="448" type="line"/>
		</contour>
		<contour>
			<point x="176" y="312" type="line"/>
			<point x="464" y="312" type="line"/>
			<point x="464" y="372" type="line"/>
			<point x="176" y="372" type="line"/>
		</contour>
		<contour>
			<point x="436" y="236" type="line"/>
			<point x="492" y="236" type="line"/>
			<point x="492" y="448" type="line"/>
			<point x="436" y="448" type="line"/>
			<point x="412" y="356" type="line"/>
			<point x="412" y="328" type="line"/>
		</contour>
		<contour>
			<point x="60" y="500" type="line"/>
			<point x="124" y="500" type="line"/>
			<point x="164" y="646" type="line"/>
			<point x="116" y="598" type="line"/>
			<point x="524" y="598" type="line"/>
			<point x="476" y="646" type="line"/>
			<point x="516" y="500" type="line"/>
			<point x="580" y="500" type="line"/>
			<point x="572" y="670" type="line"/>
			<point x="68" y="670" type="line"/>
		</contour>
	</outline>
</glyph>
<glyph name="Pi" format="2">
	<unicode hex="03A0"/>
	<advance width="792"/>
	<outline>
		<contour>
			<point x="144" y="0" type="curve"/>
			<point x="252" y="0" type="line"/>
			<point x="252" y="104"/>
			<point x="252" y="208"/>
			<point x="252" y="312" type="curve" smooth="yes"/>
			<point x="252" y="360" type="line" smooth="yes"/>
			<point x="252" y="464"/>
			<point x="252" y="566"/>
			<point x="252" y="670" type="curve"/>
			<point x="144" y="670" type="line"/>
			<point x="144" y="566"/>
			<point x="144" y="464"/>
			<point x="144" y="360" type="curve" smooth="yes"/>
			<point x="144" y="312" type="line" smooth="yes"/>
			<point x="144" y="208"/>
			<point x="144" y="104"/>
		</contour>
		<contour>
			<point x="540" y="0" type="curve"/>
			<point x="648" y="0" type="line"/>
			<point x="648" y="104"/>
			<point x="648" y="208"/>
			<point x="648" y="312" type="curve" smooth="yes"/>
			<point x="648" y="360" type="line" smooth="yes"/>
			<point x="648" y="464"/>
			<point x="648" y="566"/>
			<point x="648" y="670" type="curve"/>
			<point x="540" y="670" type="line"/>
			<point x="540" y="566"/>
			<point x="540" y="464"/>
			<point x="540" y="360" type="curve" smooth="yes"/>
			<point x="540" y="312" type="line" smooth="yes"/>
			<point x="540" y="208"/>
			<point x="540" y="104"/>
		</contour>
		<contour>
			<point x="32" y="0" type="line"/>
			<point x="348" y="0" type="line"/>
			<point x="348" y="64" type="line"/>
			<point x="220" y="64" type="line"/>
			<point x="176" y="64" type="line"/>
			<point x="32" y="64" type="line"/>
		</contour>
		<contour>
			<point x="444" y="0" type="line"/>
			<point x="760" y="0" type="line"/>
			<point x="760" y="64" type="line"/>
			<point x="616" y="64" type="line"/>
			<point x="572" y="64" type="line"/>
			<point x="444" y="64" type="line"/>
		</contour>
		<contour>
			<point x="32" y="606" type="line"/>
			<point x="152" y="606" type="line"/>
			<point x="160" y="606" type="line"/>
			<point x="160" y="670" type="line"/>
			<point x="32" y="670" type="line"/>
		</contour>
		<contour>
			<point x="632" y="606" type="line"/>
			<point x="640" y="606" type="line"/>
			<point x="760" y="606" type="line"/>
			<point x="760" y="670" type="line"/>
			<point x="632" y="670" type="line"/>
		</contour>
		<contour>
			<point x="204" y="606" type="line"/>
			<point x="588" y="606" type="line"/>
			<point x="588" y="670" type="line"/>
			<point x="204" y="670" type="line"/>
		</contour>
	</outline>
</glyph>
<glyph name="iota" format="2">
	<unicode hex="03B9"/>
	<advance width="320"/>
	<outline>
		<contour>
			<point x="204" y="-12" type="curve" smooth="yes"/>
			<point x="256" y="-12"/>
			<point x="288" y="12"/>
			<point x="308" y="32" type="curve"/>
			<point x="284" y="76" type="line"/>
			<point x="272" y="68"/>
			<point x="256" y="60"/>
			<point x="234" y="60" type="curve" smooth="yes"/>
			<point x="208" y="60"/>
			<point x="196" y="76"/>
			<point x="196" y="100" type="curve" smooth="yes"/>
			<point x="196" y="124"/>
			<point x="204" y="312"/>
			<point x="212" y="504" type="curve"/>
			<point x="188" y="520" type="line"/>
			<point x="100" y="496" type="line"/>
			<point x="100" y="92" type="line" smooth="yes"/>
			<point x="100" y="24"/>
			<point x="136" y="-12"/>
		</contour>
	</outline>
	<anchor name="aboveLC" x="162" y="528"/>
</glyph>
<glyph name="lambda" format="2">
	<unicode hex="03BB"/>
	<advance width="600"/>
	<outline>
		<contour>
			<point x="39" y="-4" type="line"/>
			<point x="125" y="-11" type="line"/>
			<point x="299" y="433" type="line"/>
			<point x="268" y="512" type="line"/>
			<point x="32" y="12" type="line"/>
		</contour>
		<contour>
			<point x="488" y="-16" type="curve" smooth="yes"/>
			<point x="536" y="-16"/>
			<point x="568" y="16"/>
			<point x="588" y="52" type="curve"/>
			<point x="560" y="88" type="line"/>
			<point x="544" y="80"/>
			<point x="528" y="72"/>
			<point x="504" y="72" type="curve" smooth="yes"/>
			<point x="464" y="72"/>
			<point x="440" y="96"/>
			<point x="416" y="172" type="curve" smooth="yes"/>
			<point x="276" y="602" type="line" smooth="yes"/>
			<point x="244" y="702"/>
			<point x="208" y="742"/>
			<point x="144" y="742" type="curve" smooth="yes"/>
			<point x="88" y="742"/>
			<point x="48" y="710"/>
			<point x="20" y="666" type="curve"/>
			<point x="48" y="630" type="line"/>
			<point x="72" y="646"/>
			<point x="96" y="654"/>
			<point x="128" y="654" type="curve" smooth="yes"/>
			<point x="176" y="654"/>
			<point x="209" y="641"/>
			<point x="236" y="556" type="curve" smooth="yes"/>
			<point x="284" y="406" type="line"/>
			<point x="301" y="406" type="line"/>
			<point x="356" y="136" type="line" smooth="yes"/>
			<point x="377" y="33"/>
			<point x="408" y="-16"/>
		</contour>
	</outline>
</glyph>
<glyph name="nu" format="2">
	<unicode hex="03BD"/>
	<advance width="580"/>
	<outline>
		<contour>
			<point x="246" y="-8" type="curve"/>
			<point x="319" y="-8" type="line"/>
			<point x="436" y="153"/>
			<point x="540" y="328"/>
			<point x="540" y="464" type="curve" smooth="yes"/>
			<point x="540" y="488"/>
			<point x="538" y="504"/>
			<point x="535" y="513" type="curve"/>
			<point x="528" y="518"/>
			<point x="520" y="520"/>
			<point x="502" y="520" type="curve" smooth="yes"/>
			<point x="460" y="520"/>
			<point x="428" y="496"/>
			<point x="428" y="444" type="curve" smooth="yes"/>
			<point x="428" y="400"/>
			<point x="444" y="360"/>
			<point x="472" y="284" type="curve"/>
			<point x="472" y="364" type="line"/>
			<point x="446" y="290"/>
			<point x="413" y="220"/>
			<point x="382" y="165" type="curve"/>
			<point x="314" y="40" type="line"/>
			<point x="303" y="40" type="line"/>
			<point x="287" y="152"/>
			<point x="264" y="272"/>
			<point x="232" y="392" type="curve" smooth="yes"/>
			<point x="204" y="496"/>
			<point x="168" y="520"/>
			<point x="108" y="520" type="curve" smooth="yes"/>
			<point x="64" y="520"/>
			<point x="32" y="496"/>
			<point x="12" y="476" type="curve"/>
			<point x="36" y="432" type="line"/>
			<point x="48" y="440"/>
			<point x="62" y="448"/>
			<point x="82" y="448" type="curve" smooth="yes"/>
			<point x="110" y="448"/>
			<point x="120" y="432"/>
			<point x="140" y="368" type="curve" smooth="yes"/>
			<point x="180" y="240"/>
			<point x="213" y="132"/>
		</contour>
	</outline>
</glyph>
<glyph name="xi" format="2">
	<unicode hex="03BE"/>
	<advance width="472"/>
	<outline>
		<contour>
			<point x="332" y="-204" type="curve"/>
			<point x="392" y="-204" type="line"/>
			<point x="416" y="-164"/>
			<point x="440" y="-128"/>
			<point x="440" y="-72" type="curve" smooth="yes"/>
			<point x="440" y="-8"/>
			<point x="404" y="32"/>
			<point x="308" y="60" type="curve" smooth="yes"/>
			<point x="200" y="92"/>
			<point x="144" y="124"/>
			<point x="144" y="196" type="curve" smooth="yes"/>
			<point x="144" y="268"/>
			<point x="192" y="328"/>
			<point x="312" y="328" type="curve" smooth="yes"/>
			<point x="352" y="328"/>
			<point x="392" y="324"/>
			<point x="408" y="320" type="curve"/>
			<point x="408" y="400" type="line"/>
			<point x="381" y="400"/>
			<point x="355" y="400"/>
			<point x="328" y="400" type="curve" smooth="yes"/>
			<point x="220" y="400"/>
			<point x="172" y="432"/>
			<point x="172" y="504" type="curve" smooth="yes"/>
			<point x="172" y="576"/>
			<point x="228" y="622"/>
			<point x="448" y="658" type="curve"/>
			<point x="448" y="730" type="line"/>
			<point x="64" y="738" type="line"/>
			<point x="64" y="658" type="line"/>
			<point x="392" y="682" type="line"/>
			<point x="392" y="656" type="line"/>
			<point x="402" y="667" type="line"/>
			<point x="172" y="646"/>
			<point x="84" y="600"/>
			<point x="84" y="504" type="curve" smooth="yes"/>
			<point x="84" y="401"/>
			<point x="172" y="366"/>
			<point x="320" y="366" type="curve"/>
			<point x="320" y="347" type="line"/>
			<point x="128" y="347"/>
			<point x="48" y="281"/>
			<point x="48" y="180" type="curve" smooth="yes"/>
			<point x="48" y="76"/>
			<point x="140" y="20"/>
			<point x="260" y="-16" type="curve" smooth="yes"/>
			<point x="340" y="-40"/>
			<point x="364" y="-64"/>
			<point x="364" y="-104" type="curve" smooth="yes"/>
			<point x="364" y="-144"/>
			<point x="348" y="-164"/>
		</contour>
	</outline>
</glyph>
<glyph name="rho" format="2">
	<unicode hex="03C1"/>
	<advance width="652"/>
	<outline>
		<contour>
			<point x="100" y="-176" type="line"/>
			<point x="124" y="-192" type="line"/>
			<point x="212" y="-168" type="line"/>
			<point x="196" y="84" type="line"/>
			<point x="204" y="84" type="line"/>
			<point x="204" y="268" type="line" smooth="yes"/>
			<point x="204" y="396"/>
			<point x="264" y="460"/>
			<point x="352" y="460" type="curve" smooth="yes"/>
			<point x="440" y="460"/>
			<point x="500" y="396"/>
			<point x="500" y="258" type="curve" smooth="yes"/>
			<point x="500" y="120"/>
			<point x="436" y="56"/>
			<point x="336" y="56" type="curve" smooth="yes"/>
			<point x="280" y="56"/>
			<point x="236" y="80"/>
			<point x="188" y="136" type="curve"/>
			<point x="188" y="72" type="line"/>
			<point x="228" y="72" type="line"/>
			<point x="252" y="24"/>
			<point x="288" y="-12"/>
			<point x="368" y="-12" type="curve" smooth="yes"/>
			<point x="500" y="-12"/>
			<point x="604" y="84"/>
			<point x="604" y="258" type="curve" smooth="yes"/>
			<point x="604" y="432"/>
			<point x="504" y="520"/>
			<point x="356" y="520" type="curve" smooth="yes"/>
			<point x="208" y="520"/>
			<point x="108" y="440"/>
			<point x="108" y="252" type="curve" smooth="yes"/>
			<point x="108" y="44" type="line"/>
		</contour>
	</outline>
	<anchor name="aboveLC" x="353" y="528"/>
</glyph>
<glyph name="sigma.end" format="2">
	<unicode hex="03C2"/>
	<advance width="492"/>
	<outline>
		<contour>
			<point x="348" y="-204" type="curve"/>
			<point x="408" y="-204" type="line"/>
			<point x="432" y="-164"/>
			<point x="456" y="-112"/>
			<point x="456" y="-56" type="curve" smooth="yes"/>
			<point x="456" y="8"/>
			<point x="424" y="48"/>
			<point x="324" y="76" type="curve" smooth="yes"/>
			<point x="196" y="112"/>
			<point x="144" y="164"/>
			<point x="144" y="276" type="curve" smooth="yes"/>
			<point x="144" y="388"/>
			<point x="200" y="484"/>
			<point x="316" y="484" type="curve" smooth="yes"/>
			<point x="356" y="484"/>
			<point x="388" y="480"/>
			<point x="412" y="476" type="curve"/>
			<point x="276" y="512" type="line"/>
			<point x="312" y="464" type="line" smooth="yes"/>
			<point x="342" y="424"/>
			<point x="368" y="408"/>
			<point x="406" y="408" type="curve" smooth="yes"/>
			<point x="444" y="408"/>
			<point x="464" y="432"/>
			<point x="468" y="464" type="curve"/>
			<point x="444" y="496"/>
			<point x="396" y="520"/>
			<point x="308" y="520" type="curve" smooth="yes"/>
			<point x="152" y="520"/>
			<point x="48" y="404"/>
			<point x="48" y="260" type="curve" smooth="yes"/>
			<point x="48" y="116"/>
			<point x="132" y="40"/>
			<point x="272" y="0" type="curve" smooth="yes"/>
			<point x="356" y="-24"/>
			<point x="380" y="-48"/>
			<point x="380" y="-88" type="curve" smooth="yes"/>
			<point x="380" y="-128"/>
			<point x="364" y="-164"/>
		</contour>
	</outline>
</glyph>
<glyph name="tau" format="2">
	<unicode hex="03C4"/>
	<advance width="520"/>
	<outline>
		<contour>
			<point x="28" y="412" type="line"/>
			<point x="240" y="444" type="line"/>
			<point x="500" y="428" type="line"/>
			<point x="492" y="508" type="line"/>
			<point x="248" y="508" type="line" smooth="yes"/>
			<point x="124" y="508"/>
			<point x="52" y="484"/>
			<point x="12" y="460" type="curve"/>
		</contour>
		<contour>
			<point x="300" y="-12" type="curve" smooth="yes"/>
			<point x="360" y="-12"/>
			<point x="394" y="12"/>
			<point x="416" y="32" type="curve"/>
			<point x="392" y="76" type="line"/>
			<point x="378" y="68"/>
			<point x="360" y="60"/>
			<point x="334" y="60" type="curve" smooth="yes"/>
			<point x="300" y="60"/>
			<point x="282" y="80"/>
			<point x="280" y="116" type="curve" smooth="yes"/>
			<point x="280" y="476" type="line"/>
			<point x="232" y="476" type="line"/>
			<point x="192" y="204"/>
			<point x="184" y="156"/>
			<point x="184" y="108" type="curve" smooth="yes"/>
			<point x="184" y="28"/>
			<point x="220" y="-12"/>
		</contour>
	</outline>
</glyph>
<glyph name="upsilon" format="2">
	<unicode hex="03C5"/>
	<advance width="612"/>
	<outline>
		<contour>
			<point x="304" y="-12" type="curve" smooth="yes"/>
			<point x="428" y="-12"/>
			<point x="524" y="64"/>
			<point x="524" y="256" type="curve" smooth="yes"/>
			<point x="524" y="360"/>
			<point x="516" y="462"/>
			<point x="500" y="516" type="curve"/>
			<point x="492" y="518"/>
			<point x="482" y="520"/>
			<point x="466" y="520" type="curve" smooth="yes"/>
			<point x="428" y="520"/>
			<point x="404" y="500"/>
			<point x="404" y="460" type="curve" smooth="yes"/>
			<point x="404" y="420"/>
			<point x="420" y="392"/>
			<point x="484" y="280" type="curve"/>
			<point x="484" y="336" type="line"/>
			<point x="460" y="336" type="line"/>
			<point x="464" y="312"/>
			<point x="468" y="280"/>
			<point x="468" y="240" type="curve" smooth="yes"/>
			<point x="468" y="112"/>
			<point x="404" y="48"/>
			<point x="320" y="48" type="curve" smooth="yes"/>
			<point x="236" y="48"/>
			<point x="196" y="96"/>
			<point x="196" y="176" type="curve" smooth="yes"/>
			<point x="196" y="256"/>
			<point x="228" y="344"/>
			<point x="228" y="416" type="curve" smooth="yes"/>
			<point x="228" y="484"/>
			<point x="188" y="520"/>
			<point x="116" y="520" type="curve" smooth="yes"/>
			<point x="64" y="520"/>
			<point x="32" y="496"/>
			<point x="12" y="476" type="curve"/>
			<point x="36" y="432" type="line"/>
			<point x="48" y="440"/>
			<point x="64" y="448"/>
			<point x="86" y="448" type="curve" smooth="yes"/>
			<point x="116" y="448"/>
			<point x="132" y="432"/>
			<point x="132" y="400" type="curve" smooth="yes"/>
			<point x="132" y="352"/>
			<point x="104" y="264"/>
			<point x="104" y="176" type="curve" smooth="yes"/>
			<point x="104" y="56"/>
			<point x="180" y="-12"/>
		</contour>
	</outline>
	<anchor name="aboveLC" x="303" y="528"/>
</glyph>
<glyph name="phi" format="2">
	<unicode hex="03C6"/>
	<advance width="764"/>
	<outline>
		<contour>
			<point x="328" y="-176" type="line"/>
			<point x="352" y="-192" type="line"/>
			<point x="436" y="-168" type="line"/>
			<point x="420" y="8" type="line"/>
			<point x="412" y="672" type="line"/>
			<point x="352" y="672" type="line"/>
			<point x="344" y="8" type="line"/>
		</contour>
		<contour>
			<point x="360" y="-10" type="curve"/>
			<point x="360" y="46" type="line"/>
			<point x="220" y="46"/>
			<point x="152" y="117"/>
			<point x="152" y="254" type="curve" smooth="yes"/>
			<point x="152" y="391"/>
			<point x="220" y="462"/>
			<point x="360" y="462" type="curve"/>
			<point x="360" y="518" type="line"/>
			<point x="164" y="518"/>
			<point x="48" y="414"/>
			<point x="48" y="250" type="curve" smooth="yes"/>
			<point x="48" y="86"/>
			<point x="164" y="-10"/>
		</contour>
		<contour>
			<point x="404" y="-10" type="line"/>
			<point x="600" y="-10"/>
			<point x="716" y="94"/>
			<point x="716" y="258" type="curve" smooth="yes"/>
			<point x="716" y="422"/>
			<point x="600" y="518"/>
			<point x="404" y="518" type="curve"/>
			<point x="404" y="462" type="line"/>
			<point x="544" y="462"/>
			<point x="612" y="391"/>
			<point x="612" y="254" type="curve" smooth="yes"/>
			<point x="612" y="117"/>
			<point x="544" y="46"/>
			<point x="404" y="46" type="curve"/>
		</contour>
	</outline>
</glyph>
<glyph name="psi" format="2">
	<unicode hex="03C8"/>
	<advance width="808"/>
	<outline>
		<contour>
			<point x="392" y="-192" type="line"/>
			<point x="476" y="-168" type="line"/>
			<point x="460" y="8" type="line"/>
			<point x="452" y="672" type="line"/>
			<point x="392" y="672" type="line"/>
			<point x="384" y="8" type="line"/>
			<point x="368" y="-176" type="line"/>
		</contour>
		<contour>
			<point x="392" y="0" type="curve"/>
			<point x="392" y="56" type="line"/>
			<point x="260" y="56"/>
			<point x="204" y="104"/>
			<point x="204" y="192" type="curve" smooth="yes"/>
			<point x="204" y="264"/>
			<point x="228" y="344"/>
			<point x="228" y="416" type="curve" smooth="yes"/>
			<point x="228" y="484"/>
			<point x="188" y="520"/>
			<point x="116" y="520" type="curve" smooth="yes"/>
			<point x="64" y="520"/>
			<point x="32" y="496"/>
			<point x="12" y="476" type="curve"/>
			<point x="36" y="432" type="line"/>
			<point x="48" y="440"/>
			<point x="64" y="448"/>
			<point x="86" y="448" type="curve" smooth="yes"/>
			<point x="116" y="448"/>
			<point x="132" y="432"/>
			<point x="132" y="400" type="curve" smooth="yes"/>
			<point x="132" y="352"/>
			<point x="112" y="272"/>
			<point x="112" y="192" type="curve" smooth="yes"/>
			<point x="112" y="64"/>
			<point x="196" y="0"/>
		</contour>
		<contour>
			<point x="452" y="0" type="line"/>
			<point x="616" y="0"/>
			<point x="720" y="80"/>
			<point x="720" y="256" type="curve" smooth="yes"/>
			<point x="720" y="360"/>
			<point x="712" y="462"/>
			<point x="696" y="516" type="curve"/>
			<point x="688" y="518"/>
			<point x="678" y="520"/>
			<point x="662" y="520" type="curve" smooth="yes"/>
			<point x="624" y="520"/>
			<point x="600" y="500"/>
			<point x="600" y="460" type="curve" smooth="yes"/>
			<point x="600" y="420"/>
			<point x="616" y="392"/>
			<point x="680" y="280" type="curve"/>
			<point x="680" y="336" type="line"/>
			<point x="656" y="336" type="line"/>
			<point x="660" y="312"/>
			<point x="664" y="280"/>
			<point x="664" y="240" type="curve" smooth="yes"/>
			<point x="664" y="128"/>
			<point x="600" y="56"/>
			<point x="452" y="56" type="curve"/>
		</contour>
	</outline>
</glyph>
<glyph name="koppa" format="2">
	<unicode hex="03D9"/>
	<advance width="608"/>
	<outline>
		<contour>
			<point x="271" y="-190" type="line"/>
			<point x="350" y="-172" type="line"/>
			<point x="329" y="20" type="line"/>
			<point x="275" y="20" type="line"/>
			<point x="259" y="-180" type="line"/>
		</contour>
		<component base="omicron"/>
	</outline>
	<anchor name="aboveLC" x="305" y="528"/>
</glyph>
<glyph name="digamma" format="2">
	<unicode hex="03DD"/>
	<advance width="464"/>
	<outline>
		<contour>
			<point x="72" y="-176" type="line"/>
			<point x="96" y="-192" type="line"/>
			<point x="184" y="-168" type="line"/>
			<point x="168" y="116" type="line"/>
			<point x="169" y="240"/>
			<point x="171" y="364"/>
			<point x="172" y="488" type="curve"/>
			<point x="156" y="472" type="line"/>
			<point x="432" y="448" type="line"/>
			<point x="432" y="520" type="line"/>
			<point x="64" y="508" type="line"/>
			<point x="88" y="156" type="line"/>
		</contour>
		<contour>
			<point x="132" y="184" type="line"/>
			<point x="408" y="168" type="line"/>
			<point x="408" y="240" type="line"/>
			<point x="132" y="224" type="line"/>
		</contour>
	</outline>
	<anchor name="aboveLC" x="262" y="528"/>
</glyph>
<glyph name="Dje" format="2">
	<unicode hex="0402"/>
	<advance width="760"/>
	<outline>
		<contour>
			<point x="20" y="480" type="line"/>
			<point x="84" y="480" type="line"/>
			<point x="124" y="646" type="line"/>
			<point x="76" y="606" type="line"/>
			<point x="584" y="606" type="line"/>
			<point x="536" y="646" type="line"/>
			<point x="576" y="496" type="line"/>
			<point x="640" y="496" type="line"/>
			<point x="632" y="670" type="line"/>
			<point x="28" y="670" type="line"/>
		</contour>
		<contour>
			<point x="260" y="0" type="curve"/>
			<point x="368" y="0" type="line"/>
			<point x="368" y="104"/>
			<point x="368" y="208"/>
			<point x="368" y="312" type="curve" smooth="yes"/>
			<point x="368" y="360" type="line" smooth="yes"/>
			<point x="368" y="464"/>
			<point x="368" y="566"/>
			<point x="368" y="670" type="curve"/>
			<point x="260" y="670" type="line"/>
			<point x="260" y="566"/>
			<point x="260" y="464"/>
			<point x="260" y="360" type="curve" smooth="yes"/>
			<point x="260" y="312" type="line" smooth="yes"/>
			<point x="260" y="208"/>
			<point x="260" y="104"/>
		</contour>
		<contour>
			<point x="504" y="-72" type="line"/>
			<point x="648" y="-16"/>
			<point x="720" y="72"/>
			<point x="720" y="200" type="curve" smooth="yes"/>
			<point x="720" y="344"/>
			<point x="620" y="404"/>
			<point x="444" y="404" type="curve" smooth="yes"/>
			<point x="388" y="404"/>
			<point x="344" y="396"/>
			<point x="312" y="388" type="curve"/>
			<point x="312" y="328" type="line"/>
			<point x="344" y="336"/>
			<point x="388" y="344"/>
			<point x="436" y="344" type="curve" smooth="yes"/>
			<point x="556" y="344"/>
			<point x="610" y="296"/>
			<point x="610" y="192" type="curve" smooth="yes"/>
			<point x="610" y="88"/>
			<point x="568" y="24"/>
			<point x="480" y="-24" type="curve"/>
		</contour>
		<contour>
			<point x="156" y="0" type="line"/>
			<point x="292" y="0" type="line"/>
			<point x="292" y="64" type="line"/>
			<point x="276" y="64" type="line"/>
			<point x="156" y="64" type="line"/>
		</contour>
	</outline>
</glyph>
<glyph name="Ieukran" format="2">
	<unicode hex="0404"/>
	<advance width="644"/>
	<outline>
		<contour>
			<point x="396" y="-16" type="curve" smooth="yes"/>
			<point x="492" y="-16"/>
			<point x="562" y="2"/>
			<point x="596" y="16" type="curve"/>
			<point x="600" y="176" type="line"/>
			<point x="536" y="176" type="line"/>
			<point x="504" y="24" type="line"/>
			<point x="576" y="24" type="line"/>
			<point x="576" y="88" type="line"/>
			<point x="540" y="66"/>
			<point x="480" y="48"/>
			<point x="408" y="48" type="curve" smooth="yes"/>
			<point x="260" y="48"/>
			<point x="160" y="118"/>
			<point x="160" y="336" type="curve" smooth="yes"/>
			<point x="160" y="554"/>
			<point x="268" y="622"/>
			<point x="412" y="622" type="curve" smooth="yes"/>
			<point x="472" y="622"/>
			<point x="528" y="606"/>
			<point x="564" y="584" type="curve"/>
			<point x="564" y="648" type="line"/>
			<point x="492" y="648" type="line"/>
			<point x="524" y="500" type="line"/>
			<point x="588" y="500" type="line"/>
			<point x="584" y="656" type="line"/>
			<point x="550" y="670"/>
			<point x="484" y="686"/>
			<point x="404" y="686" type="curve" smooth="yes"/>
			<point x="200" y="686"/>
			<point x="48" y="556"/>
			<point x="48" y="332" type="curve" smooth="yes"/>
			<point x="48" y="108"/>
			<point x="192" y="-16"/>
		</contour>
		<contour>
			<point x="144" y="312" type="line"/>
			<point x="412" y="312" type="line"/>
			<point x="412" y="372" type="line"/>
			<point x="144" y="372" type="line"/>
		</contour>
		<contour>
			<point x="384" y="224" type="line"/>
			<point x="444" y="224" type="line"/>
			<point x="444" y="460" type="line"/>
			<point x="384" y="460" type="line"/>
			<point x="360" y="356" type="line"/>
			<point x="360" y="328" type="line"/>
		</contour>
	</outline>
	<anchor name="aboveUC" x="388" y="690"/>
</glyph>
<glyph name="Be" format="2">
	<unicode hex="0411"/>
	<advance width="644"/>
	<outline>
		<contour>
			<point x="32" y="0" type="line"/>
			<point x="168" y="0" type="line"/>
			<point x="168" y="64" type="line"/>
			<point x="152" y="64" type="line"/>
			<point x="32" y="64" type="line"/>
		</contour>
		<contour>
			<point x="136" y="0" type="curve"/>
			<point x="244" y="0" type="line"/>
			<point x="244" y="104"/>
			<point x="244" y="208"/>
			<point x="244" y="312" type="curve" smooth="yes"/>
			<point x="244" y="360" type="line" smooth="yes"/>
			<point x="244" y="464"/>
			<point x="244" y="566"/>
			<point x="244" y="670" type="curve"/>
			<point x="136" y="670" type="line"/>
			<point x="136" y="566"/>
			<point x="136" y="464"/>
			<point x="136" y="360" type="curve" smooth="yes"/>
			<point x="136" y="312" type="line" smooth="yes"/>
			<point x="136" y="208"/>
			<point x="136" y="104"/>
		</contour>
		<contour>
			<point x="196" y="0" type="line"/>
			<point x="312" y="0" type="line" smooth="yes"/>
			<point x="508" y="0"/>
			<point x="604" y="80"/>
			<point x="604" y="204" type="curve" smooth="yes"/>
			<point x="604" y="328"/>
			<point x="508" y="396"/>
			<point x="336" y="396" type="curve" smooth="yes"/>
			<point x="280" y="396"/>
			<point x="236" y="388"/>
			<point x="204" y="380" type="curve"/>
			<point x="204" y="320" type="line"/>
			<point x="236" y="328"/>
			<point x="272" y="336"/>
			<point x="320" y="336" type="curve" smooth="yes"/>
			<point x="444" y="336"/>
			<point x="494" y="288"/>
			<point x="494" y="200" type="curve" smooth="yes"/>
			<point x="494" y="112"/>
			<point x="444" y="60"/>
			<point x="304" y="60" type="curve" smooth="yes"/>
			<point x="196" y="60" type="line"/>
		</contour>
		<contour>
			<point x="32" y="606" type="line"/>
			<point x="152" y="606" type="line"/>
			<point x="168" y="606" type="line"/>
			<point x="168" y="670" type="line"/>
			<point x="32" y="670" type="line"/>
		</contour>
		<contour>
			<point x="484" y="488" type="line"/>
			<point x="548" y="488" type="line"/>
			<point x="540" y="670" type="line"/>
			<point x="228" y="670" type="line"/>
			<point x="228" y="606" type="line"/>
			<point x="492" y="606" type="line"/>
			<point x="444" y="646" type="line"/>
		</contour>
	</outline>
</glyph>
<glyph name="De" format="2">
	<unicode hex="0414"/>
	<advance width="756"/>
	<outline>
		<contour>
			<point x="32" y="-186" type="line"/>
			<point x="96" y="-186" type="line"/>
			<point x="128" y="40" type="line"/>
			<point x="80" y="0" type="line"/>
			<point x="686" y="0" type="line"/>
			<point x="638" y="40" type="line"/>
			<point x="670" y="-186" type="line"/>
			<point x="734" y="-186" type="line"/>
			<point x="734" y="64" type="line"/>
			<point x="32" y="64" type="line"/>
		</contour>
		<contour>
			<point x="156" y="606" type="line"/>
			<point x="276" y="606" type="line"/>
			<point x="292" y="606" type="line"/>
			<point x="292" y="670" type="line"/>
			<point x="156" y="670" type="line"/>
		</contour>
		<contour>
			<point x="292" y="610" type="line"/>
			<point x="528" y="610" type="line"/>
			<point x="528" y="670" type="line"/>
			<point x="292" y="670" type="line"/>
		</contour>
		<contour>
			<point x="512" y="0" type="curve"/>
			<point x="620" y="0" type="line"/>
			<point x="620" y="104"/>
			<point x="620" y="208"/>
			<point x="620" y="312" type="curve" smooth="yes"/>
			<point x="620" y="360" type="line" smooth="yes"/>
			<point x="620" y="464"/>
			<point x="620" y="566"/>
			<point x="620" y="670" type="curve"/>
			<point x="512" y="670" type="line"/>
			<point x="512" y="566"/>
			<point x="512" y="464"/>
			<point x="512" y="360" type="curve" smooth="yes"/>
			<point x="512" y="312" type="line" smooth="yes"/>
			<point x="512" y="208"/>
			<point x="512" y="104"/>
		</contour>
		<contour>
			<point x="588" y="606" type="line"/>
			<point x="604" y="606" type="line"/>
			<point x="719" y="606" type="line"/>
			<point x="719" y="670" type="line"/>
			<point x="588" y="670" type="line"/>
		</contour>
		<contour>
			<point x="100" y="48" type="curve"/>
			<point x="161" y="32" type="line"/>
			<point x="161" y="84" type="line"/>
			<point x="222" y="129"/>
			<point x="261" y="194"/>
			<point x="282" y="280" type="curve" smooth="yes"/>
			<point x="306" y="376"/>
			<point x="323" y="502"/>
			<point x="326" y="670" type="curve"/>
			<point x="258" y="670" type="line"/>
			<point x="250" y="334"/>
			<point x="194" y="165"/>
		</contour>
	</outline>
</glyph>
<glyph name="Ze" format="2">
	<unicode hex="0417"/>
	<advance width="568"/>
	<outline>
		<contour>
			<point x="260" y="-12" type="curve" smooth="yes"/>
			<point x="420" y="-12"/>
			<point x="512" y="74"/>
			<point x="512" y="186" type="curve" smooth="yes"/>
			<point x="512" y="300"/>
			<point x="424" y="344"/>
			<point x="272" y="352" type="curve"/>
			<point x="272" y="364" type="line"/>
			<point x="400" y="372"/>
			<point x="500" y="422"/>
			<point x="500" y="526" type="curve" smooth="yes"/>
			<point x="500" y="622"/>
			<point x="404" y="682"/>
			<point x="256" y="682" type="curve" smooth="yes"/>
			<point x="184" y="682"/>
			<point x="128" y="666"/>
			<point x="96" y="650" type="curve"/>
			<point x="96" y="504" type="line"/>
			<point x="160" y="504" type="line"/>
			<point x="192" y="650" type="line"/>
			<point x="144" y="650" type="line"/>
			<point x="144" y="622" type="line"/>
			<point x="160" y="626"/>
			<point x="192" y="630"/>
			<point x="232" y="630" type="curve" smooth="yes"/>
			<point x="348" y="630"/>
			<point x="392" y="582"/>
			<point x="392" y="510" type="curve" smooth="yes"/>
			<point x="392" y="438"/>
			<point x="348" y="384"/>
			<point x="232" y="384" type="curve" smooth="yes"/>
			<point x="200" y="384" type="line"/>
			<point x="200" y="328" type="line"/>
			<point x="240" y="328" type="line" smooth="yes"/>
			<point x="356" y="328"/>
			<point x="408" y="274"/>
			<point x="408" y="186" type="curve" smooth="yes"/>
			<point x="408" y="98"/>
			<point x="356" y="40"/>
			<point x="236" y="40" type="curve" smooth="yes"/>
			<point x="192" y="40"/>
			<point x="156" y="44"/>
			<point x="132" y="48" type="curve"/>
			<point x="176" y="20" type="line"/>
			<point x="160" y="92" type="line" smooth="yes"/>
			<point x="148" y="144"/>
			<point x="130" y="160"/>
			<point x="98" y="160" type="curve" smooth="yes"/>
			<point x="66" y="160"/>
			<point x="52" y="136"/>
			<point x="48" y="116" type="curve"/>
			<point x="64" y="36"/>
			<point x="140" y="-12"/>
		</contour>
	</outline>
	<anchor name="aboveUC" x="288" y="690"/>
</glyph>
<glyph name="Icyr" format="2">
	<unicode hex="0418"/>
	<advance width="804"/>
	<outline>
		<contour>
			<point x="128" y="0" type="curve"/>
			<point x="236" y="0" type="line"/>
			<point x="236" y="360" type="line" smooth="yes"/>
			<point x="236" y="464"/>
			<point x="236" y="566"/>
			<point x="236" y="670" type="curve"/>
			<point x="128" y="670" type="line"/>
			<point x="128" y="566"/>
			<point x="128" y="464"/>
			<point x="128" y="360" type="curve" smooth="yes"/>
			<point x="128" y="312" type="line" smooth="yes"/>
			<point x="128" y="208"/>
			<point x="128" y="104"/>
		</contour>
		<contour>
			<point x="568" y="0" type="curve"/>
			<point x="676" y="0" type="line"/>
			<point x="676" y="104"/>
			<point x="676" y="208"/>
			<point x="676" y="312" type="curve" smooth="yes"/>
			<point x="676" y="360" type="line" smooth="yes"/>
			<point x="676" y="464"/>
			<point x="676" y="566"/>
			<point x="676" y="670" type="curve"/>
			<point x="568" y="670" type="line"/>
			<point x="568" y="312" type="line" smooth="yes"/>
			<point x="568" y="208"/>
			<point x="568" y="104"/>
		</contour>
		<contour>
			<point x="24" y="0" type="line"/>
			<point x="340" y="0" type="line"/>
			<point x="340" y="64" type="line"/>
			<point x="204" y="64" type="line"/>
			<point x="160" y="64" type="line"/>
			<point x="24" y="64" type="line"/>
		</contour>
		<contour>
			<point x="24" y="606" type="line"/>
			<point x="160" y="606" type="line"/>
			<point x="204" y="606" type="line"/>
			<point x="340" y="606" type="line"/>
			<point x="340" y="670" type="line"/>
			<point x="24" y="670" type="line"/>
		</contour>
		<contour>
			<point x="464" y="0" type="line"/>
			<point x="780" y="0" type="line"/>
			<point x="780" y="64" type="line"/>
			<point x="644" y="64" type="line"/>
			<point x="600" y="64" type="line"/>
			<point x="464" y="64" type="line"/>
		</contour>
		<contour>
			<point x="464" y="606" type="line"/>
			<point x="600" y="606" type="line"/>
			<point x="644" y="606" type="line"/>
			<point x="780" y="606" type="line"/>
			<point x="780" y="670" type="line"/>
			<point x="464" y="670" type="line"/>
		</contour>
		<contour>
			<point x="212" y="75" type="line"/>
			<point x="378" y="268" type="line"/>
			<point x="544" y="480" type="line"/>
			<point x="592" y="480" type="line"/>
			<point x="592" y="595" type="line"/>
			<point x="426" y="404" type="line"/>
			<point x="260" y="192" type="line"/>
			<point x="212" y="192" type="line"/>
		</contour>
	</outline>
	<anchor name="aboveUC" x="403" y="690"/>
</glyph>
<glyph name="Ka" format="2">
	<unicode hex="041A"/>
	<advance width="708"/>
	<outline>
		<contour>
			<point x="32" y="0" type="line"/>
			<point x="340" y="0" type="line"/>
			<point x="340" y="64" type="line"/>
			<point x="212" y="64" type="line"/>
			<point x="168" y="64" type="line"/>
			<point x="32" y="64" type="line"/>
		</contour>
		<contour>
			<point x="32" y="606" type="line"/>
			<point x="168" y="606" type="line"/>
			<point x="212" y="606" type="line"/>
			<point x="340" y="606" type="line"/>
			<point x="340" y="670" type="line"/>
			<point x="32" y="670" type="line"/>
		</contour>
		<contour>
			<point x="136" y="0" type="curve"/>
			<point x="244" y="0" type="line"/>
			<point x="244" y="104"/>
			<point x="244" y="208"/>
			<point x="244" y="321" type="curve" smooth="yes"/>
			<point x="244" y="360" type="line" smooth="yes"/>
			<point x="244" y="464"/>
			<point x="244" y="566"/>
			<point x="244" y="670" type="curve"/>
			<point x="136" y="670" type="line"/>
			<point x="136" y="566"/>
			<point x="136" y="464"/>
			<point x="136" y="360" type="curve" smooth="yes"/>
			<point x="136" y="312" type="line" smooth="yes"/>
			<point x="136" y="208"/>
			<point x="136" y="104"/>
		</contour>
		<contour>
			<point x="466" y="84" type="line" smooth="yes"/>
			<point x="486" y="16"/>
			<point x="524" y="-8"/>
			<point x="596" y="-8" type="curve" smooth="yes"/>
			<point x="628" y="-8"/>
			<point x="660" y="-4"/>
			<point x="684" y="0" type="curve"/>
			<point x="684" y="60" type="line"/>
			<point x="556" y="68" type="line"/>
			<point x="596" y="32" type="line"/>
			<point x="538" y="216" type="line" smooth="yes"/>
			<point x="508" y="312"/>
			<point x="460" y="328"/>
			<point x="364" y="336" type="curve"/>
			<point x="364" y="356" type="line"/>
			<point x="408" y="372"/>
			<point x="432" y="396"/>
			<point x="468" y="472" type="curve" smooth="yes"/>
			<point x="504" y="548"/>
			<point x="528" y="590"/>
			<point x="572" y="638" type="curve"/>
			<point x="504" y="610" type="line"/>
			<point x="528" y="594"/>
			<point x="564" y="578"/>
			<point x="600" y="578" type="curve" smooth="yes"/>
			<point x="648" y="578"/>
			<point x="672" y="602"/>
			<point x="672" y="634" type="curve" smooth="yes"/>
			<point x="672" y="662"/>
			<point x="648" y="678"/>
			<point x="620" y="686" type="curve"/>
			<point x="524" y="682"/>
			<point x="468" y="632"/>
			<point x="416" y="496" type="curve" smooth="yes"/>
			<point x="384" y="412"/>
			<point x="348" y="364"/>
			<point x="272" y="364" type="curve" smooth="yes"/>
			<point x="220" y="364" type="line"/>
			<point x="220" y="312" type="line"/>
			<point x="296" y="312" type="line" smooth="yes"/>
			<point x="372" y="312"/>
			<point x="408" y="284"/>
			<point x="430" y="208" type="curve" smooth="yes"/>
		</contour>
	</outline>
	<anchor name="aboveUC" x="366" y="690"/>
</glyph>
<glyph name="Yeru" format="2">
	<unicode hex="042B"/>
	<advance width="968"/>
	<outline>
		<contour>
			<point x="212" y="0" type="line"/>
			<point x="288" y="0" type="line" smooth="yes"/>
			<point x="480" y="0"/>
			<point x="588" y="72"/>
			<point x="588" y="204" type="curve" smooth="yes"/>
			<point x="588" y="336"/>
			<point x="480" y="396"/>
			<point x="312" y="396" type="curve" smooth="yes"/>
			<point x="256" y="396"/>
			<point x="212" y="388"/>
			<point x="180" y="380" type="curve"/>
			<point x="180" y="320" type="line"/>
			<point x="212" y="328"/>
			<point x="256" y="336"/>
			<point x="304" y="336" type="curve" smooth="yes"/>
			<point x="424" y="336"/>
			<point x="478" y="288"/>
			<point x="478" y="200" type="curve" smooth="yes"/>
			<point x="478" y="112"/>
			<point x="424" y="60"/>
			<point x="280" y="60" type="curve" smooth="yes"/>
			<point x="212" y="60" type="line"/>
		</contour>
		<contour>
			<point x="136" y="0" type="curve"/>
			<point x="244" y="0" type="line"/>
			<point x="244" y="104"/>
			<point x="244" y="208"/>
			<point x="244" y="312" type="curve" smooth="yes"/>
			<point x="244" y="360" type="line" smooth="yes"/>
			<point x="244" y="463"/>
			<point x="244" y="567"/>
			<point x="244" y="670" type="curve"/>
			<point x="136" y="670" type="line"/>
			<point x="136" y="567"/>
			<point x="136" y="463"/>
			<point x="136" y="360" type="curve" smooth="yes"/>
			<point x="136" y="312" type="line" smooth="yes"/>
			<point x="136" y="208"/>
			<point x="136" y="104"/>
		</contour>
		<contour>
			<point x="724" y="0" type="curve"/>
			<point x="832" y="0" type="line"/>
			<point x="832" y="104"/>
			<point x="832" y="208"/>
			<point x="832" y="312" type="curve" smooth="yes"/>
			<point x="832" y="360" type="line" smooth="yes"/>
			<point x="832" y="463"/>
			<point x="832" y="567"/>
			<point x="832" y="670" type="curve"/>
			<point x="724" y="670" type="line"/>
			<point x="724" y="567"/>
			<point x="724" y="463"/>
			<point x="724" y="360" type="curve" smooth="yes"/>
			<point x="724" y="312" type="line" smooth="yes"/>
			<point x="724" y="208"/>
			<point x="724" y="104"/>
		</contour>
		<contour>
			<point x="32" y="606" type="line"/>
			<point x="168" y="606" type="line"/>
			<point x="212" y="606" type="line"/>
			<point x="364" y="606" type="line"/>
			<point x="364" y="670" type="line"/>
			<point x="32" y="670" type="line"/>
		</contour>
		<contour>
			<point x="636" y="0" type="line"/>
			<point x="936" y="0" type="line"/>
			<point x="936" y="64" type="line"/>
			<point x="800" y="64" type="line"/>
			<point x="756" y="64" type="line"/>
			<point x="636" y="64" type="line"/>
		</contour>
		<contour>
			<point x="620" y="606" type="line"/>
			<point x="756" y="606" type="line"/>
			<point x="800" y="606" type="line"/>
			<point x="936" y="606" type="line"/>
			<point x="936" y="670" type="line"/>
			<point x="620" y="670" type="line"/>
		</contour>
		<contour>
			<point x="32" y="0" type="line"/>
			<point x="168" y="0" type="line"/>
			<point x="168" y="64" type="line"/>
			<point x="152" y="64" type="line"/>
			<point x="32" y="64" type="line"/>
		</contour>
	</outline>
	<anchor name="aboveUC" x="496" y="690"/>
</glyph>
<glyph name="Ecyr" format="2">
	<unicode hex="042D"/>
	<advance width="652"/>
	<outline>
		<contour>
			<point x="52" y="16" type="line"/>
			<point x="90" y="2"/>
			<point x="160" y="-16"/>
			<point x="248" y="-16" type="curve" smooth="yes"/>
			<point x="472" y="-16"/>
			<point x="604" y="116"/>
			<point x="604" y="340" type="curve" smooth="yes"/>
			<point x="604" y="564"/>
			<point x="480" y="686"/>
			<point x="256" y="686" type="curve" smooth="yes"/>
			<point x="160" y="686"/>
			<point x="90" y="668"/>
			<point x="56" y="654" type="curve"/>
			<point x="52" y="496" type="line"/>
			<point x="116" y="496" type="line"/>
			<point x="148" y="646" type="line"/>
			<point x="76" y="646" type="line"/>
			<point x="76" y="582" type="line"/>
			<point x="112" y="604"/>
			<point x="172" y="622"/>
			<point x="244" y="622" type="curve" smooth="yes"/>
			<point x="422" y="622"/>
			<point x="492" y="556"/>
			<point x="492" y="336" type="curve" smooth="yes"/>
			<point x="492" y="116"/>
			<point x="414" y="48"/>
			<point x="240" y="48" type="curve" smooth="yes"/>
			<point x="172" y="48"/>
			<point x="112" y="66"/>
			<point x="72" y="88" type="curve"/>
			<point x="72" y="24" type="line"/>
			<point x="144" y="24" type="line"/>
			<point x="112" y="172" type="line"/>
			<point x="48" y="172" type="line"/>
		</contour>
		<contour>
			<point x="208" y="224" type="line"/>
			<point x="268" y="224" type="line"/>
			<point x="292" y="328" type="line"/>
			<point x="292" y="356" type="line"/>
			<point x="268" y="460" type="line"/>
			<point x="208" y="460" type="line"/>
		</contour>
		<contour>
			<point x="240" y="312" type="line"/>
			<point x="508" y="312" type="line"/>
			<point x="508" y="372" type="line"/>
			<point x="240" y="372" type="line"/>
		</contour>
	</outline>
	<anchor name="aboveUC" x="286" y="690"/>
</glyph>
<glyph name="Yu" format="2">
	<unicode hex="042E"/>
	<advance width="1060"/>
	<outline>
		<contour>
			<point x="136" y="0" type="curve"/>
			<point x="244" y="0" type="line"/>
			<point x="244" y="104"/>
			<point x="244" y="208"/>
			<point x="244" y="323" type="curve" smooth="yes"/>
			<point x="244" y="360" type="line" smooth="yes"/>
			<point x="244" y="464"/>
			<point x="244" y="566"/>
			<point x="244" y="670" type="curve"/>
			<point x="136" y="670" type="line"/>
			<point x="136" y="566"/>
			<point x="136" y="464"/>
			<point x="136" y="360" type="curve" smooth="yes"/>
			<point x="136" y="312" type="line" smooth="yes"/>
			<point x="136" y="208"/>
			<point x="136" y="104"/>
		</contour>
		<contour>
			<point x="32" y="0" type="line"/>
			<point x="348" y="0" type="line"/>
			<point x="348" y="64" type="line"/>
			<point x="212" y="64" type="line"/>
			<point x="168" y="64" type="line"/>
			<point x="32" y="64" type="line"/>
		</contour>
		<contour>
			<point x="32" y="606" type="line"/>
			<point x="168" y="606" type="line"/>
			<point x="212" y="606" type="line"/>
			<point x="348" y="606" type="line"/>
			<point x="348" y="670" type="line"/>
			<point x="32" y="670" type="line"/>
		</contour>
		<contour>
			<point x="196" y="312" type="line"/>
			<point x="420" y="312" type="line"/>
			<point x="420" y="376" type="line"/>
			<point x="196" y="376" type="line"/>
		</contour>
		<contour>
			<point x="700" y="-16" type="curve" smooth="yes"/>
			<point x="888" y="-16"/>
			<point x="1012" y="128"/>
			<point x="1012" y="340" type="curve" smooth="yes"/>
			<point x="1012" y="552"/>
			<point x="888" y="686"/>
			<point x="700" y="686" type="curve" smooth="yes"/>
			<point x="512" y="686"/>
			<point x="388" y="544"/>
			<point x="388" y="332" type="curve" smooth="yes"/>
			<point x="388" y="120"/>
			<point x="512" y="-16"/>
		</contour>
		<contour>
			<point x="700" y="48" type="curve" smooth="yes"/>
			<point x="570" y="48"/>
			<point x="500" y="172"/>
			<point x="500" y="336" type="curve" smooth="yes"/>
			<point x="500" y="500"/>
			<point x="570" y="622"/>
			<point x="700" y="622" type="curve" smooth="yes"/>
			<point x="830" y="622"/>
			<point x="900" y="500"/>
			<point x="900" y="336" type="curve" smooth="yes"/>
			<point x="900" y="172"/>
			<point x="830" y="48"/>
		</contour>
	</outline>
	<anchor name="aboveUC" x="447" y="690"/>
</glyph>
<glyph name="Ya" format="2">
	<unicode hex="042F"/>
	<advance width="720"/>
	<outline>
		<contour>
			<point x="20" y="0" type="line"/>
			<point x="44" y="-4"/>
			<point x="76" y="-8"/>
			<point x="108" y="-8" type="curve" smooth="yes"/>
			<point x="180" y="-8"/>
			<point x="216" y="14"/>
			<point x="238" y="84" type="curve" smooth="yes"/>
			<point x="272" y="192" type="line" smooth="yes"/>
			<point x="296" y="268"/>
			<point x="324" y="296"/>
			<point x="396" y="296" type="curve" smooth="yes"/>
			<point x="524" y="296" type="line"/>
			<point x="524" y="352" type="line"/>
			<point x="388" y="352" type="line" smooth="yes"/>
			<point x="276" y="352"/>
			<point x="224" y="410"/>
			<point x="224" y="490" type="curve" smooth="yes"/>
			<point x="224" y="571"/>
			<point x="276" y="608"/>
			<point x="388" y="608" type="curve" smooth="yes"/>
			<point x="508" y="608" type="line"/>
			<point x="508" y="670" type="line"/>
			<point x="372" y="670" type="line" smooth="yes"/>
			<point x="204" y="670"/>
			<point x="112" y="600"/>
			<point x="112" y="490" type="curve" smooth="yes"/>
			<point x="112" y="378"/>
			<point x="220" y="332"/>
			<point x="332" y="328" type="curve"/>
			<point x="332" y="308" type="line"/>
			<point x="238" y="308"/>
			<point x="196" y="284"/>
			<point x="168" y="200" type="curve" smooth="yes"/>
			<point x="112" y="32" type="line"/>
			<point x="148" y="68" type="line"/>
			<point x="20" y="60" type="line"/>
		</contour>
		<contour>
			<point x="476" y="0" type="curve"/>
			<point x="584" y="0" type="line"/>
			<point x="584" y="104"/>
			<point x="584" y="208"/>
			<point x="584" y="312" type="curve" smooth="yes"/>
			<point x="584" y="360" type="line" smooth="yes"/>
			<point x="584" y="464"/>
			<point x="584" y="566"/>
			<point x="584" y="670" type="curve"/>
			<point x="476" y="670" type="line"/>
			<point x="476" y="566"/>
			<point x="476" y="464"/>
			<point x="476" y="341" type="curve" smooth="yes"/>
			<point x="476" y="312" type="line" smooth="yes"/>
			<point x="476" y="208"/>
			<point x="476" y="104"/>
		</contour>
		<contour>
			<point x="380" y="0" type="line"/>
			<point x="688" y="0" type="line"/>
			<point x="688" y="64" type="line"/>
			<point x="552" y="64" type="line"/>
			<point x="508" y="64" type="line"/>
			<point x="380" y="64" type="line"/>
		</contour>
		<contour>
			<point x="552" y="606" type="line"/>
			<point x="568" y="606" type="line"/>
			<point x="688" y="606" type="line"/>
			<point x="688" y="670" type="line"/>
			<point x="552" y="670" type="line"/>
		</contour>
	</outline>
	<anchor name="aboveUC" x="400" y="690"/>
</glyph>
<glyph name="ghe" format="2">
	<unicode hex="0433"/>
	<advance width="508"/>
	<outline>
		<contour>
			<point x="128" y="0" type="curve"/>
			<point x="224" y="0" type="line"/>
			<point x="224" y="75"/>
			<point x="224" y="151"/>
			<point x="224" y="226" type="curve" smooth="yes"/>
			<point x="224" y="282" type="line" smooth="yes"/>
			<point x="224" y="357"/>
			<point x="224" y="433"/>
			<point x="224" y="508" type="curve"/>
			<point x="128" y="508" type="line"/>
			<point x="128" y="433"/>
			<point x="128" y="357"/>
			<point x="128" y="282" type="curve" smooth="yes"/>
			<point x="128" y="226" type="line" smooth="yes"/>
			<point x="128" y="151"/>
			<point x="128" y="75"/>
		</contour>
		<contour>
			<point x="208" y="448" type="line"/>
			<point x="420" y="448" type="line"/>
			<point x="380" y="480" type="line"/>
			<point x="412" y="324" type="line"/>
			<point x="476" y="324" type="line"/>
			<point x="468" y="508" type="line"/>
			<point x="208" y="508" type="line"/>
		</contour>
		<contour>
			<point x="44" y="0" type="line"/>
			<point x="324" y="0" type="line"/>
			<point x="324" y="60" type="line"/>
			<point x="192" y="60" type="line"/>
			<point x="160" y="60" type="line"/>
			<point x="44" y="60" type="line"/>
		</contour>
		<contour>
			<point x="44" y="448" type="line"/>
			<point x="160" y="448" type="line"/>
			<point x="176" y="448" type="line"/>
			<point x="176" y="508" type="line"/>
			<point x="44" y="508" type="line"/>
		</contour>
	</outline>
	<anchor name="aboveLC" x="283" y="528"/>
</glyph>
<glyph name="ka" format="2">
	<unicode hex="043A"/>
	<advance width="628"/>
	<outline>
		<contour>
			<point x="40" y="0" type="line"/>
			<point x="304" y="0" type="line"/>
			<point x="304" y="60" type="line"/>
			<point x="188" y="60" type="line"/>
			<point x="156" y="60" type="line"/>
			<point x="40" y="60" type="line"/>
		</contour>
		<contour>
			<point x="40" y="448" type="line"/>
			<point x="156" y="448" type="line"/>
			<point x="188" y="448" type="line"/>
			<point x="304" y="448" type="line"/>
			<point x="304" y="508" type="line"/>
			<point x="40" y="508" type="line"/>
		</contour>
		<contour>
			<point x="124" y="0" type="curve"/>
			<point x="220" y="0" type="line"/>
			<point x="220" y="75"/>
			<point x="220" y="151"/>
			<point x="220" y="226" type="curve" smooth="yes"/>
			<point x="220" y="282" type="line" smooth="yes"/>
			<point x="220" y="357"/>
			<point x="220" y="433"/>
			<point x="220" y="508" type="curve"/>
			<point x="124" y="508" type="line"/>
			<point x="124" y="433"/>
			<point x="124" y="357"/>
			<point x="124" y="282" type="curve" smooth="yes"/>
			<point x="124" y="226" type="line" smooth="yes"/>
			<point x="124" y="151"/>
			<point x="124" y="75"/>
		</contour>
		<contour>
			<point x="412" y="72" type="line" smooth="yes"/>
			<point x="428" y="16"/>
			<point x="460" y="-8"/>
			<point x="532" y="-8" type="curve" smooth="yes"/>
			<point x="556" y="-8"/>
			<point x="580" y="-4"/>
			<point x="604" y="0" type="curve"/>
			<point x="604" y="56" type="line"/>
			<point x="464" y="64" type="line"/>
			<point x="532" y="12" type="line"/>
			<point x="484" y="156" type="line" smooth="yes"/>
			<point x="460" y="228"/>
			<point x="412" y="256"/>
			<point x="308" y="256" type="curve"/>
			<point x="308" y="268" type="line"/>
			<point x="380" y="276"/>
			<point x="412" y="300"/>
			<point x="440" y="360" type="curve" smooth="yes"/>
			<point x="468" y="420"/>
			<point x="484" y="444"/>
			<point x="500" y="468" type="curve"/>
			<point x="440" y="452" type="line"/>
			<point x="464" y="432"/>
			<point x="496" y="416"/>
			<point x="536" y="416" type="curve" smooth="yes"/>
			<point x="576" y="416"/>
			<point x="600" y="440"/>
			<point x="600" y="470" type="curve" smooth="yes"/>
			<point x="600" y="495"/>
			<point x="580" y="514"/>
			<point x="556" y="520" type="curve"/>
			<point x="484" y="516"/>
			<point x="436" y="492"/>
			<point x="404" y="408" type="curve" smooth="yes"/>
			<point x="372" y="324"/>
			<point x="340" y="292"/>
			<point x="268" y="292" type="curve" smooth="yes"/>
			<point x="204" y="292" type="line"/>
			<point x="204" y="232" type="line"/>
			<point x="284" y="232" type="line" smooth="yes"/>
			<point x="340" y="232"/>
			<point x="372" y="216"/>
			<point x="392" y="144" type="curve" smooth="yes"/>
		</contour>
	</outline>
	<anchor name="aboveLC" x="328" y="528"/>
</glyph>
<glyph name="che" format="2">
	<unicode hex="0447"/>
	<advance width="636"/>
	<outline>
		<contour>
			<point x="292" y="192" type="curve" smooth="yes"/>
			<point x="356" y="192"/>
			<point x="416" y="204"/>
			<point x="440" y="212" type="curve"/>
			<point x="440" y="264" type="line"/>
			<point x="424" y="259"/>
			<point x="376" y="252"/>
			<point x="316" y="252" type="curve" smooth="yes"/>
			<point x="236" y="252"/>
			<point x="204" y="276"/>
			<point x="204" y="352" type="curve" smooth="yes"/>
			<point x="204" y="404"/>
			<point x="204" y="456"/>
			<point x="204" y="508" type="curve"/>
			<point x="108" y="508" type="line"/>
			<point x="108" y="452"/>
			<point x="108" y="396"/>
			<point x="108" y="340" type="curve" smooth="yes"/>
			<point x="108" y="228"/>
			<point x="164" y="192"/>
		</contour>
		<contour>
			<point x="416" y="0" type="curve"/>
			<point x="512" y="0" type="line"/>
			<point x="512" y="75"/>
			<point x="512" y="151"/>
			<point x="512" y="226" type="curve" smooth="yes"/>
			<point x="512" y="282" type="line" smooth="yes"/>
			<point x="512" y="357"/>
			<point x="512" y="433"/>
			<point x="512" y="508" type="curve"/>
			<point x="416" y="508" type="line"/>
			<point x="416" y="433"/>
			<point x="416" y="357"/>
			<point x="416" y="282" type="curve" smooth="yes"/>
			<point x="416" y="226" type="line" smooth="yes"/>
			<point x="416" y="151"/>
			<point x="416" y="75"/>
		</contour>
		<contour>
			<point x="32" y="448" type="line"/>
			<point x="140" y="448" type="line"/>
			<point x="172" y="448" type="line"/>
			<point x="288" y="448" type="line"/>
			<point x="288" y="508" type="line"/>
			<point x="32" y="508" type="line"/>
		</contour>
		<contour>
			<point x="316" y="0" type="line"/>
			<point x="596" y="0" type="line"/>
			<point x="596" y="60" type="line"/>
			<point x="480" y="60" type="line"/>
			<point x="448" y="60" type="line"/>
			<point x="316" y="60" type="line"/>
		</contour>
		<contour>
			<point x="332" y="448" type="line"/>
			<point x="448" y="448" type="line"/>
			<point x="480" y="448" type="line"/>
			<point x="596" y="448" type="line"/>
			<point x="596" y="508" type="line"/>
			<point x="332" y="508" type="line"/>
		</contour>
	</outline>
	<anchor name="aboveLC" x="309" y="528"/>
</glyph>
<glyph name="shcha" format="2">
	<unicode hex="0449"/>
	<advance width="971"/>
	<outline>
		<contour>
			<point x="124" y="0" type="curve"/>
			<point x="220" y="0" type="line"/>
			<point x="220" y="75"/>
			<point x="220" y="151"/>
			<point x="220" y="226" type="curve" smooth="yes"/>
			<point x="220" y="282" type="line" smooth="yes"/>
			<point x="220" y="357"/>
			<point x="220" y="433"/>
			<point x="220" y="508" type="curve"/>
			<point x="124" y="508" type="line"/>
			<point x="124" y="433"/>
			<point x="124" y="357"/>
			<point x="124" y="282" type="curve" smooth="yes"/>
			<point x="124" y="226" type="line" smooth="yes"/>
			<point x="124" y="151"/>
			<point x="124" y="75"/>
		</contour>
		<contour>
			<point x="440" y="0" type="curve"/>
			<point x="536" y="0" type="line"/>
			<point x="536" y="75"/>
			<point x="536" y="151"/>
			<point x="536" y="226" type="curve" smooth="yes"/>
			<point x="536" y="282" type="line" smooth="yes"/>
			<point x="536" y="357"/>
			<point x="536" y="433"/>
			<point x="536" y="508" type="curve"/>
			<point x="440" y="508" type="line"/>
			<point x="440" y="433"/>
			<point x="440" y="357"/>
			<point x="440" y="282" type="curve" smooth="yes"/>
			<point x="440" y="226" type="line" smooth="yes"/>
			<point x="440" y="151"/>
			<point x="440" y="75"/>
		</contour>
		<contour>
			<point x="756" y="0" type="curve"/>
			<point x="852" y="0" type="line"/>
			<point x="852" y="75"/>
			<point x="852" y="151"/>
			<point x="852" y="226" type="curve" smooth="yes"/>
			<point x="852" y="282" type="line" smooth="yes"/>
			<point x="852" y="357"/>
			<point x="852" y="433"/>
			<point x="852" y="508" type="curve"/>
			<point x="756" y="508" type="line"/>
			<point x="756" y="433"/>
			<point x="756" y="357"/>
			<point x="756" y="282" type="curve" smooth="yes"/>
			<point x="756" y="226" type="line" smooth="yes"/>
			<point x="756" y="151"/>
			<point x="756" y="75"/>
		</contour>
		<contour>
			<point x="878" y="-156" type="line"/>
			<point x="942" y="-156" type="line"/>
			<point x="944" y="60" type="line"/>
			<point x="204" y="60" type="line"/>
			<point x="204" y="0" type="line"/>
			<point x="896" y="0" type="line"/>
			<point x="856" y="32" type="line"/>
		</contour>
		<contour>
			<point x="40" y="448" type="line"/>
			<point x="156" y="448" type="line"/>
			<point x="188" y="448" type="line"/>
			<point x="288" y="448" type="line"/>
			<point x="288" y="508" type="line"/>
			<point x="40" y="508" type="line"/>
		</contour>
		<contour>
			<point x="372" y="448" type="line"/>
			<point x="472" y="448" type="line"/>
			<point x="504" y="448" type="line"/>
			<point x="604" y="448" type="line"/>
			<point x="604" y="508" type="line"/>
			<point x="372" y="508" type="line"/>
		</contour>
		<contour>
			<point x="688" y="448" type="line"/>
			<point x="788" y="448" type="line"/>
			<point x="820" y="448" type="line"/>
			<point x="936" y="448" type="line"/>
			<point x="936" y="508" type="line"/>
			<point x="688" y="508" type="line"/>
		</contour>
		<contour>
			<point x="40" y="0" type="line"/>
			<point x="172" y="0" type="line"/>
			<point x="172" y="60" type="line"/>
			<point x="156" y="60" type="line"/>
			<point x="40" y="60" type="line"/>
		</contour>
	</outline>
</glyph>
<glyph name="yeru" format="2">
	<unicode hex="044B"/>
	<advance width="860"/>
	<outline>
		<contour>
			<point x="196" y="0" type="line"/>
			<point x="308" y="0" type="line" smooth="yes"/>
			<point x="436" y="0"/>
			<point x="512" y="60"/>
			<point x="512" y="166" type="curve" smooth="yes"/>
			<point x="512" y="272"/>
			<point x="436" y="324"/>
			<point x="292" y="324" type="curve" smooth="yes"/>
			<point x="244" y="324"/>
			<point x="196" y="316"/>
			<point x="180" y="312" type="curve"/>
			<point x="180" y="252" type="line"/>
			<point x="196" y="257"/>
			<point x="236" y="264"/>
			<point x="284" y="264" type="curve" smooth="yes"/>
			<point x="380" y="264"/>
			<point x="416" y="224"/>
			<point x="416" y="162" type="curve" smooth="yes"/>
			<point x="416" y="100"/>
			<point x="380" y="60"/>
			<point x="300" y="60" type="curve" smooth="yes"/>
			<point x="196" y="60" type="line"/>
		</contour>
		<contour>
			<point x="124" y="0" type="curve"/>
			<point x="220" y="0" type="line"/>
			<point x="220" y="75"/>
			<point x="220" y="151"/>
			<point x="220" y="226" type="curve" smooth="yes"/>
			<point x="220" y="282" type="line" smooth="yes"/>
			<point x="220" y="357"/>
			<point x="220" y="433"/>
			<point x="220" y="508" type="curve"/>
			<point x="124" y="508" type="line"/>
			<point x="124" y="433"/>
			<point x="124" y="357"/>
			<point x="124" y="282" type="curve" smooth="yes"/>
			<point x="124" y="226" type="line" smooth="yes"/>
			<point x="124" y="151"/>
			<point x="124" y="75"/>
		</contour>
		<contour>
			<point x="640" y="0" type="curve"/>
			<point x="736" y="0" type="line"/>
			<point x="736" y="75"/>
			<point x="736" y="151"/>
			<point x="736" y="226" type="curve" smooth="yes"/>
			<point x="736" y="282" type="line" smooth="yes"/>
			<point x="736" y="357"/>
			<point x="736" y="433"/>
			<point x="736" y="508" type="curve"/>
			<point x="640" y="508" type="line"/>
			<point x="640" y="433"/>
			<point x="640" y="357"/>
			<point x="640" y="282" type="curve" smooth="yes"/>
			<point x="640" y="226" type="line" smooth="yes"/>
			<point x="640" y="151"/>
			<point x="640" y="75"/>
		</contour>
		<contour>
			<point x="40" y="448" type="line"/>
			<point x="156" y="448" type="line"/>
			<point x="188" y="448" type="line"/>
			<point x="320" y="448" type="line"/>
			<point x="320" y="508" type="line"/>
			<point x="40" y="508" type="line"/>
		</contour>
		<contour>
			<point x="556" y="0" type="line"/>
			<point x="820" y="0" type="line"/>
			<point x="820" y="60" type="line"/>
			<point x="704" y="60" type="line"/>
			<point x="672" y="60" type="line"/>
			<point x="556" y="60" type="line"/>
		</contour>
		<contour>
			<point x="556" y="448" type="line"/>
			<point x="672" y="448" type="line"/>
			<point x="704" y="448" type="line"/>
			<point x="820" y="448" type="line"/>
			<point x="820" y="508" type="line"/>
			<point x="556" y="508" type="line"/>
		</contour>
		<contour>
			<point x="40" y="0" type="line"/>
			<point x="172" y="0" type="line"/>
			<point x="172" y="60" type="line"/>
			<point x="156" y="60" type="line"/>
			<point x="40" y="60" type="line"/>
		</contour>
	</outline>
	<anchor name="aboveLC" x="438" y="528"/>
</glyph>
<glyph name="ecyr" format="2">
	<unicode hex="044D"/>
	<advance width="556"/>
	<outline>
		<contour>
			<point x="248" y="-12" type="curve" smooth="yes"/>
			<point x="408" y="-12"/>
			<point x="508" y="104"/>
			<point x="508" y="260" type="curve" smooth="yes"/>
			<point x="508" y="416"/>
			<point x="412" y="520"/>
			<point x="240" y="520" type="curve" smooth="yes"/>
			<point x="160" y="520"/>
			<point x="104" y="504"/>
			<point x="68" y="488" type="curve"/>
			<point x="68" y="332" type="line"/>
			<point x="132" y="332" type="line"/>
			<point x="156" y="480" type="line"/>
			<point x="124" y="428" type="line"/>
			<point x="152" y="440"/>
			<point x="176" y="452"/>
			<point x="232" y="452" type="curve" smooth="yes"/>
			<point x="340" y="452"/>
			<point x="404" y="376"/>
			<point x="404" y="252" type="curve" smooth="yes"/>
			<point x="404" y="128"/>
			<point x="344" y="44"/>
			<point x="232" y="44" type="curve" smooth="yes"/>
			<point x="176" y="44"/>
			<point x="140" y="56"/>
			<point x="112" y="68" type="curve"/>
			<point x="188" y="4" type="line"/>
			<point x="156" y="100" type="line" smooth="yes"/>
			<point x="146" y="130"/>
			<point x="130" y="156"/>
			<point x="94" y="156" type="curve" smooth="yes"/>
			<point x="60" y="156"/>
			<point x="44" y="132"/>
			<point x="40" y="100" type="curve"/>
			<point x="60" y="44"/>
			<point x="120" y="-12"/>
		</contour>
		<contour>
			<point x="168" y="232" type="line"/>
			<point x="420" y="240" type="line"/>
			<point x="420" y="280" type="line"/>
			<point x="168" y="288" type="line"/>
		</contour>
	</outline>
	<anchor name="aboveLC" x="251" y="528"/>
</glyph>
<glyph name="ya" format="2">
	<unicode hex="044F"/>
	<advance width="616"/>
	<outline>
		<contour>
			<point x="308" y="508" type="line" smooth="yes"/>
			<point x="168" y="508"/>
			<point x="96" y="448"/>
			<point x="96" y="362" type="curve" smooth="yes"/>
			<point x="96" y="276"/>
			<point x="168" y="248"/>
			<point x="268" y="240" type="curve"/>
			<point x="268" y="224" type="line"/>
			<point x="208" y="220"/>
			<point x="184" y="204"/>
			<point x="156" y="140" type="curve" smooth="yes"/>
			<point x="112" y="40" type="line"/>
			<point x="144" y="60" type="line"/>
			<point x="24" y="60" type="line"/>
			<point x="24" y="0" type="line"/>
			<point x="48" y="-4"/>
			<point x="72" y="-8"/>
			<point x="104" y="-8" type="curve" smooth="yes"/>
			<point x="172" y="-8"/>
			<point x="196" y="20"/>
			<point x="220" y="72" type="curve" smooth="yes"/>
			<point x="256" y="152" type="line" smooth="yes"/>
			<point x="276" y="196"/>
			<point x="292" y="212"/>
			<point x="332" y="212" type="curve" smooth="yes"/>
			<point x="412" y="212" type="line"/>
			<point x="412" y="268" type="line"/>
			<point x="316" y="268" type="line" smooth="yes"/>
			<point x="232" y="268"/>
			<point x="192" y="300"/>
			<point x="192" y="360" type="curve" smooth="yes"/>
			<point x="192" y="420"/>
			<point x="232" y="452"/>
			<point x="316" y="452" type="curve" smooth="yes"/>
			<point x="428" y="452" type="line"/>
			<point x="460" y="448" type="line"/>
			<point x="576" y="448" type="line"/>
			<point x="576" y="508" type="line"/>
		</contour>
		<contour>
			<point x="396" y="0" type="curve"/>
			<point x="492" y="0" type="line"/>
			<point x="492" y="75"/>
			<point x="492" y="151"/>
			<point x="492" y="226" type="curve" smooth="yes"/>
			<point x="492" y="282" type="line" smooth="yes"/>
			<point x="492" y="357"/>
			<point x="492" y="433"/>
			<point x="492" y="508" type="curve"/>
			<point x="396" y="508" type="line"/>
			<point x="396" y="433"/>
			<point x="396" y="357"/>
			<point x="396" y="257" type="curve" smooth="yes"/>
			<point x="396" y="226" type="line" smooth="yes"/>
			<point x="396" y="151"/>
			<point x="396" y="75"/>
		</contour>
		<contour>
			<point x="312" y="0" type="line"/>
			<point x="576" y="0" type="line"/>
			<point x="576" y="60" type="line"/>
			<point x="460" y="60" type="line"/>
			<point x="428" y="60" type="line"/>
			<point x="312" y="60" type="line"/>
		</contour>
	</outline>
	<anchor name="aboveLC" x="340" y="528"/>
</glyph>
<glyph name="ieukran" format="2">
	<unicode hex="0454"/>
	<advance width="548"/>
	<outline>
		<contour>
			<point x="294" y="-12" type="curve" smooth="yes"/>
			<point x="420" y="-12"/>
			<point x="480" y="56"/>
			<point x="512" y="112" type="curve"/>
			<point x="462" y="148" type="line"/>
			<point x="432" y="104"/>
			<point x="396" y="58"/>
			<point x="314" y="58" type="curve" smooth="yes"/>
			<point x="206" y="58"/>
			<point x="152" y="132"/>
			<point x="152" y="256" type="curve" smooth="yes"/>
			<point x="152" y="380"/>
			<point x="196" y="464"/>
			<point x="324" y="464" type="curve" smooth="yes"/>
			<point x="384" y="464"/>
			<point x="424" y="448"/>
			<point x="448" y="436" type="curve"/>
			<point x="400" y="476" type="line"/>
			<point x="420" y="344" type="line"/>
			<point x="484" y="344" type="line"/>
			<point x="488" y="488" type="line"/>
			<point x="448" y="504"/>
			<point x="392" y="520"/>
			<point x="316" y="520" type="curve" smooth="yes"/>
			<point x="132" y="520"/>
			<point x="48" y="404"/>
			<point x="48" y="248" type="curve" smooth="yes"/>
			<point x="48" y="92"/>
			<point x="134" y="-12"/>
		</contour>
		<contour>
			<point x="120" y="232" type="line"/>
			<point x="388" y="224" type="line"/>
			<point x="388" y="288" type="line"/>
			<point x="120" y="280" type="line"/>
		</contour>
	</outline>
	<anchor name="aboveLC" x="313" y="528"/>
</glyph>
<glyph name="lje" format="2">
	<unicode hex="0459"/>
	<advance width="848"/>
	<outline>
		<contour>
			<point x="102" y="-12" type="curve" smooth="yes"/>
			<point x="181" y="-12"/>
			<point x="214" y="22"/>
			<point x="244" y="101" type="curve" smooth="yes"/>
			<point x="283" y="204"/>
			<point x="291" y="353"/>
			<point x="294" y="508" type="curve"/>
			<point x="222" y="508" type="line"/>
			<point x="219" y="352"/>
			<point x="210" y="228"/>
			<point x="188" y="139" type="curve" smooth="yes"/>
			<point x="181" y="111"/>
			<point x="172" y="86"/>
			<point x="156" y="52" type="curve"/>
			<point x="170" y="61" type="line"/>
			<point x="127" y="61" type="line"/>
			<point x="143" y="52" type="line"/>
			<point x="125" y="97"/>
			<point x="106" y="106"/>
			<point x="79" y="106" type="curve" smooth="yes"/>
			<point x="45" y="106"/>
			<point x="23" y="86"/>
			<point x="13" y="52" type="curve"/>
			<point x="22" y="11"/>
			<point x="53" y="-12"/>
		</contour>
		<contour>
			<point x="220" y="448" type="line"/>
			<point x="227" y="448" type="line"/>
			<point x="227" y="508" type="line"/>
			<point x="120" y="508" type="line"/>
			<point x="120" y="448" type="line"/>
		</contour>
		<contour>
			<point x="236" y="448" type="line"/>
			<point x="432" y="448" type="line"/>
			<point x="432" y="508" type="line"/>
			<point x="236" y="508" type="line"/>
		</contour>
		<contour>
			<point x="340" y="0" type="line"/>
			<point x="464" y="0" type="line"/>
			<point x="464" y="60" type="line"/>
			<point x="448" y="60" type="line"/>
			<point x="340" y="60" type="line"/>
		</contour>
		<contour>
			<point x="416" y="0" type="curve"/>
			<point x="512" y="0" type="line"/>
			<point x="512" y="75"/>
			<point x="512" y="151"/>
			<point x="512" y="226" type="curve" smooth="yes"/>
			<point x="512" y="282" type="line" smooth="yes"/>
			<point x="512" y="357"/>
			<point x="512" y="433"/>
			<point x="512" y="508" type="curve"/>
			<point x="416" y="508" type="line"/>
			<point x="416" y="433"/>
			<point x="416" y="357"/>
			<point x="416" y="282" type="curve" smooth="yes"/>
			<point x="416" y="226" type="line" smooth="yes"/>
			<point x="416" y="151"/>
			<point x="416" y="75"/>
		</contour>
		<contour>
			<point x="464" y="448" type="line"/>
			<point x="480" y="448" type="line"/>
			<point x="604" y="448" type="line"/>
			<point x="604" y="508" type="line"/>
			<point x="464" y="508" type="line"/>
		</contour>
		<contour>
			<point x="496" y="0" type="line"/>
			<point x="608" y="0" type="line" smooth="yes"/>
			<point x="736" y="0"/>
			<point x="812" y="60"/>
			<point x="812" y="166" type="curve" smooth="yes"/>
			<point x="812" y="272"/>
			<point x="736" y="324"/>
			<point x="592" y="324" type="curve" smooth="yes"/>
			<point x="544" y="324"/>
			<point x="496" y="316"/>
			<point x="480" y="312" type="curve"/>
			<point x="480" y="252" type="line"/>
			<point x="496" y="257"/>
			<point x="536" y="264"/>
			<point x="584" y="264" type="curve" smooth="yes"/>
			<point x="680" y="264"/>
			<point x="716" y="224"/>
			<point x="716" y="162" type="curve" smooth="yes"/>
			<point x="716" y="100"/>
			<point x="680" y="60"/>
			<point x="600" y="60" type="curve" smooth="yes"/>
			<point x="496" y="60" type="line"/>
		</contour>
	</outline>
</glyph>
<glyph name="Fita" format="2">
	<unicode hex="0472"/>
	<advance width="768"/>
	<outline>
		<contour>
			<point x="648" y="312" type="line"/>
			<point x="648" y="376" type="line"/>
			<point x="120" y="376" type="line"/>
			<point x="120" y="312" type="line"/>
		</contour>
		<contour>
			<point x="152" y="336" type="curve" smooth="yes"/>
			<point x="152" y="500"/>
			<point x="230" y="622"/>
			<point x="384" y="622" type="curve" smooth="yes"/>
			<point x="538" y="622"/>
			<point x="616" y="500"/>
			<point x="616" y="336" type="curve" smooth="yes"/>
			<point x="616" y="172"/>
			<point x="538" y="48"/>
			<point x="384" y="48" type="curve" smooth="yes"/>
			<point x="230" y="48"/>
			<point x="152" y="172"/>
		</contour>
		<contour>
			<point x="384" y="686" type="curve" smooth="yes"/>
			<point x="184" y="686"/>
			<point x="48" y="544"/>
			<point x="48" y="332" type="curve" smooth="yes"/>
			<point x="48" y="120"/>
			<point x="184" y="-16"/>
			<point x="384" y="-16" type="curve" smooth="yes"/>
			<point x="584" y="-16"/>
			<point x="720" y="128"/>
			<point x="720" y="340" type="curve" smooth="yes"/>
			<point x="720" y="552"/>
			<point x="584" y="686"/>
		</contour>
	</outline>
	<anchor name="aboveUC" x="385" y="690"/>
</glyph>
<glyph name="fita" format="2">
	<unicode hex="0473"/>
	<advance width="608"/>
	<outline>
		<contour>
			<point x="136" y="234" type="line"/>
			<point x="472" y="234" type="line"/>
			<point x="472" y="290" type="line"/>
			<point x="136" y="290" type="line"/>
		</contour>
		<contour>
			<point x="306" y="48" type="curve" smooth="yes"/>
			<point x="206" y="48"/>
			<point x="148" y="116"/>
			<point x="148" y="256" type="curve" smooth="yes"/>
			<point x="148" y="392"/>
			<point x="206" y="460"/>
			<point x="306" y="460" type="curve" smooth="yes"/>
			<point x="406" y="460"/>
			<point x="464" y="392"/>
			<point x="464" y="252" type="curve" smooth="yes"/>
			<point x="464" y="116"/>
			<point x="406" y="48"/>
		</contour>
		<contour>
			<point x="306" y="-12" type="curve" smooth="yes"/>
			<point x="442" y="-12"/>
			<point x="562" y="92"/>
			<point x="562" y="258" type="curve" smooth="yes"/>
			<point x="562" y="424"/>
			<point x="442" y="520"/>
			<point x="306" y="520" type="curve" smooth="yes"/>
			<point x="170" y="520"/>
			<point x="50" y="420"/>
			<point x="50" y="252" type="curve" smooth="yes"/>
			<point x="50" y="84"/>
			<point x="170" y="-12"/>
		</contour>
	</outline>
	<anchor name="aboveLC" x="304" y="528"/>
</glyph>
<glyph name="izhitsa" format="2">
	<unicode hex="0475"/>
	<advance width="656"/>
	<outline>
		<contour>
			<point x="24" y="452" type="line"/>
			<point x="117" y="444" type="line"/>
			<point x="189" y="444" type="line"/>
			<point x="301" y="452" type="line"/>
			<point x="301" y="508" type="line"/>
			<point x="24" y="508" type="line"/>
		</contour>
		<contour>
			<point x="241" y="0" type="line"/>
			<point x="363" y="0" type="line"/>
			<point x="465" y="328" type="line" smooth="yes"/>
			<point x="482" y="382"/>
			<point x="496" y="417"/>
			<point x="508" y="440" type="curve"/>
			<point x="545" y="440" type="line"/>
			<point x="509" y="465" type="line"/>
			<point x="524" y="425"/>
			<point x="544" y="410"/>
			<point x="575" y="410" type="curve" smooth="yes"/>
			<point x="610" y="410"/>
			<point x="632" y="434"/>
			<point x="632" y="466" type="curve" smooth="yes"/>
			<point x="632" y="495"/>
			<point x="606" y="510"/>
			<point x="571" y="520" type="curve"/>
			<point x="535" y="520"/>
			<point x="506" y="509"/>
			<point x="483" y="485" type="curve" smooth="yes"/>
			<point x="455" y="456"/>
			<point x="432" y="408"/>
			<point x="412" y="338" type="curve" smooth="yes"/>
			<point x="384" y="242" type="line"/>
			<point x="351" y="56" type="line"/>
			<point x="323" y="56" type="line"/>
			<point x="185" y="508" type="line"/>
			<point x="72" y="508" type="line"/>
		</contour>
	</outline>
	<anchor name="aboveLC" x="349" y="528"/>
</glyph>
<glyph name="kadescender" format="2">
	<unicode hex="049B"/>
	<advance width="628"/>
	<outline>
		<contour>
			<point x="576" y="0" type="line"/>
			<point x="528" y="42" type="line"/>
			<point x="556" y="-150" type="line"/>
			<point x="601" y="-150" type="line"/>
			<point x="606" y="56" type="line"/>
			<point x="483" y="56" type="line"/>
			<point x="495" y="0" type="line"/>
		</contour>
		<component base="ka"/>
	</outline>
</glyph>
<glyph name="Shha" format="2">
	<unicode hex="04BA"/>
	<advance width="732"/>
	<outline>
		<contour>
			<point x="32" y="0" type="line"/>
			<point x="340" y="0" type="line"/>
			<point x="340" y="64" type="line"/>
			<point x="212" y="64" type="line"/>
			<point x="168" y="64" type="line"/>
			<point x="32" y="64" type="line"/>
		</contour>
		<contour>
			<point x="136" y="0" type="curve"/>
			<point x="244" y="0" type="line"/>
			<point x="244" y="104"/>
			<point x="244" y="208"/>
			<point x="244" y="312" type="curve" smooth="yes"/>
			<point x="244" y="360" type="line" smooth="yes"/>
			<point x="244" y="464"/>
			<point x="244" y="566"/>
			<point x="244" y="670" type="curve"/>
			<point x="136" y="670" type="line"/>
			<point x="136" y="566"/>
			<point x="136" y="464"/>
			<point x="136" y="360" type="curve" smooth="yes"/>
			<point x="136" y="312" type="line" smooth="yes"/>
			<point x="136" y="208"/>
			<point x="136" y="104"/>
		</contour>
		<contour>
			<point x="168" y="606" type="line"/>
			<point x="212" y="606" type="line"/>
			<point x="364" y="606" type="line"/>
			<point x="364" y="670" type="line"/>
			<point x="32" y="670" type="line"/>
			<point x="32" y="606" type="line"/>
		</contour>
		<contour>
			<point x="408" y="0" type="line"/>
			<point x="708" y="0" type="line"/>
			<point x="708" y="64" type="line"/>
			<point x="580" y="64" type="line"/>
			<point x="536" y="64" type="line"/>
			<point x="408" y="64" type="line"/>
		</contour>
		<contour>
			<point x="504" y="0" type="curve"/>
			<point x="612" y="0" type="line"/>
			<point x="612" y="232" type="line" smooth="yes"/>
			<point x="612" y="360"/>
			<point x="536" y="412"/>
			<point x="384" y="412" type="curve" smooth="yes"/>
			<point x="296" y="412"/>
			<point x="236" y="388"/>
			<point x="204" y="372" type="curve"/>
			<point x="204" y="320" type="line"/>
			<point x="228" y="328"/>
			<point x="280" y="344"/>
			<point x="344" y="344" type="curve" smooth="yes"/>
			<point x="456" y="344"/>
			<point x="504" y="304"/>
			<point x="504" y="208" type="curve" smooth="yes"/>
			<point x="504" y="139"/>
			<point x="504" y="69"/>
		</contour>
	</outline>
</glyph>
<glyph name="Schwacyr" format="2">
	<unicode hex="04D8"/>
	<advance width="680"/>
	<outline>
		<contour>
			<point x="332" y="-16" type="curve" smooth="yes"/>
			<point x="504" y="-16"/>
			<point x="632" y="120"/>
			<point x="632" y="340" type="curve" smooth="yes"/>
			<point x="632" y="560"/>
			<point x="512" y="686"/>
			<point x="314" y="686" type="curve" smooth="yes"/>
			<point x="222" y="686"/>
			<point x="153" y="658"/>
			<point x="98" y="620" type="curve"/>
			<point x="90" y="476" type="line"/>
			<point x="154" y="476" type="line"/>
			<point x="194" y="646" type="line"/>
			<point x="132" y="564" type="line"/>
			<point x="179" y="592"/>
			<point x="231" y="614"/>
			<point x="308" y="614" type="curve" smooth="yes"/>
			<point x="451" y="614"/>
			<point x="520" y="520"/>
			<point x="520" y="332" type="curve" smooth="yes"/>
			<point x="520" y="144"/>
			<point x="456" y="48"/>
			<point x="332" y="48" type="curve" smooth="yes"/>
			<point x="208" y="48"/>
			<point x="152" y="136"/>
			<point x="152" y="260" type="curve" smooth="yes"/>
			<point x="152" y="280"/>
			<point x="154" y="300"/>
			<point x="156" y="316" type="curve"/>
			<point x="552" y="316" type="line"/>
			<point x="552" y="372" type="line"/>
			<point x="56" y="372" type="line"/>
			<point x="52" y="356"/>
			<point x="48" y="320"/>
			<point x="48" y="280" type="curve" smooth="yes"/>
			<point x="48" y="96"/>
			<point x="160" y="-16"/>
		</contour>
	</outline>
</glyph>
<glyph name="b.sups" format="2">
	<unicode hex="1D47"/>
	<advance width="454"/>
	<outline>
		<contour>
			<point x="33" y="426" type="line"/>
			<point x="157" y="422" type="line"/>
			<point x="165" y="495" type="line"/>
			<point x="168" y="495" type="line"/>
			<point x="168" y="693" type="line"/>
			<point x="164" y="693" type="line"/>
			<point x="168" y="905" type="line"/>
			<point x="137" y="905" type="line"/>
			<point x="29" y="887" type="line"/>
			<point x="29" y="852" type="line"/>
			<point x="85" y="839" type="line"/>
			<point x="85" y="477" type="line"/>
			<point x="33" y="466" type="line"/>
		</contour>
		<contour>
			<point x="282" y="417" type="curve" smooth="yes"/>
			<point x="360" y="417"/>
			<point x="419" y="482"/>
			<point x="419" y="596" type="curve" smooth="yes"/>
			<point x="419" y="710"/>
			<point x="360" y="774"/>
			<point x="282" y="774" type="curve" smooth="yes"/>
			<point x="225" y="774"/>
			<point x="204" y="745"/>
			<point x="185" y="704" type="curve"/>
			<point x="147" y="704" type="line"/>
			<point x="147" y="652" type="line"/>
			<point x="180" y="689"/>
			<point x="206" y="711"/>
			<point x="246" y="711" type="curve" smooth="yes"/>
			<point x="296" y="711"/>
			<point x="330" y="676"/>
			<point x="330" y="593" type="curve" smooth="yes"/>
			<point x="330" y="511"/>
			<point x="296" y="476"/>
			<point x="246" y="476" type="curve" smooth="yes"/>
			<point x="206" y="476"/>
			<point x="179" y="497"/>
			<point x="147" y="534" type="curve"/>
			<point x="147" y="482" type="line"/>
			<point x="185" y="482" type="line"/>
			<point x="202" y="449"/>
			<point x="223" y="417"/>
		</contour>
	</outline>
</glyph>
<glyph name="g.sups" format="2">
	<unicode hex="1D4D"/>
	<advance width="418"/>
	<outline>
		<contour>
			<point x="187" y="252" type="curve" smooth="yes"/>
			<point x="286" y="252"/>
			<point x="377" y="302"/>
			<point x="377" y="379" type="curve" smooth="yes"/>
			<point x="377" y="432"/>
			<point x="338" y="470"/>
			<point x="257" y="470" type="curve" smooth="yes"/>
			<point x="168" y="470" type="line" smooth="yes"/>
			<point x="131" y="470"/>
			<point x="118" y="482"/>
			<point x="118" y="501" type="curve" smooth="yes"/>
			<point x="118" y="521"/>
			<point x="128" y="530"/>
			<point x="150" y="548" type="curve"/>
			<point x="108" y="548" type="line"/>
			<point x="108" y="521" type="line"/>
			<point x="69" y="517"/>
			<point x="42" y="504"/>
			<point x="42" y="470" type="curve" smooth="yes"/>
			<point x="42" y="436"/>
			<point x="71" y="424"/>
			<point x="108" y="421" type="curve"/>
			<point x="108" y="395" type="line"/>
			<point x="122" y="395"/>
			<point x="134" y="395"/>
			<point x="148" y="395" type="curve" smooth="yes"/>
			<point x="247" y="395" type="line" smooth="yes"/>
			<point x="286" y="395"/>
			<point x="304" y="379"/>
			<point x="304" y="354" type="curve" smooth="yes"/>
			<point x="304" y="321"/>
			<point x="265" y="292"/>
			<point x="195" y="292" type="curve" smooth="yes"/>
			<point x="126" y="292"/>
			<point x="102" y="317"/>
			<point x="102" y="344" type="curve" smooth="yes"/>
			<point x="102" y="368"/>
			<point x="116" y="389"/>
			<point x="134" y="400" type="curve"/>
			<point x="129" y="404" type="line"/>
			<point x="63" y="396"/>
			<point x="26" y="376"/>
			<point x="26" y="334" type="curve" smooth="yes"/>
			<point x="26" y="286"/>
			<point x="89" y="252"/>
		</contour>
		<contour>
			<point x="183" y="528" type="curve" smooth="yes"/>
			<point x="268" y="528"/>
			<point x="325" y="573"/>
			<point x="325" y="642" type="curve" smooth="yes"/>
			<point x="325" y="662"/>
			<point x="320" y="677"/>
			<point x="312" y="689" type="curve"/>
			<point x="300" y="689" type="line"/>
			<point x="288" y="724"/>
			<point x="249" y="754"/>
			<point x="181" y="754" type="curve" smooth="yes"/>
			<point x="97" y="754"/>
			<point x="39" y="707"/>
			<point x="39" y="639" type="curve" smooth="yes"/>
			<point x="39" y="569"/>
			<point x="97" y="528"/>
		</contour>
		<contour>
			<point x="183" y="567" type="curve" smooth="yes"/>
			<point x="145" y="567"/>
			<point x="122" y="593"/>
			<point x="122" y="641" type="curve" smooth="yes"/>
			<point x="122" y="689"/>
			<point x="145" y="715"/>
			<point x="183" y="715" type="curve" smooth="yes"/>
			<point x="221" y="715"/>
			<point x="244" y="689"/>
			<point x="244" y="641" type="curve" smooth="yes"/>
			<point x="244" y="593"/>
			<point x="221" y="567"/>
		</contour>
		<contour>
			<point x="286" y="676" type="line"/>
			<point x="391" y="676" type="line"/>
			<point x="391" y="761" type="line"/>
			<point x="354" y="761" type="line"/>
			<point x="316" y="699" type="line"/>
			<point x="286" y="699" type="line"/>
		</contour>
	</outline>
</glyph>
<glyph name="t.sups" format="2">
	<unicode hex="1D57"/>
	<advance width="274"/>
	<outline>
		<contour>
			<point x="172" y="419" type="curve" smooth="yes"/>
			<point x="216" y="419"/>
			<point x="246" y="439"/>
			<point x="256" y="446" type="curve"/>
			<point x="241" y="484" type="line"/>
			<point x="234" y="481"/>
			<point x="221" y="477"/>
			<point x="204" y="477" type="curve" smooth="yes"/>
			<point x="175" y="477"/>
			<point x="160" y="490"/>
			<point x="160" y="524" type="curve" smooth="yes"/>
			<point x="160" y="737" type="line"/>
			<point x="154" y="737" type="line"/>
			<point x="165" y="857" type="line"/>
			<point x="112" y="857" type="line"/>
			<point x="80" y="743" type="line"/>
			<point x="105" y="764" type="line"/>
			<point x="21" y="753" type="line"/>
			<point x="21" y="715" type="line"/>
			<point x="76" y="715" type="line"/>
			<point x="76" y="518" type="line" smooth="yes"/>
			<point x="76" y="449"/>
			<point x="115" y="419"/>
		</contour>
		<contour>
			<point x="120" y="715" type="line"/>
			<point x="247" y="715" type="line"/>
			<point x="247" y="761" type="line"/>
			<point x="120" y="761" type="line"/>
		</contour>
	</outline>
</glyph>
<glyph name="u.sups" format="2">
	<unicode hex="1D58"/>
	<advance width="465"/>
	<outline>
		<contour>
			<point x="176" y="417" type="curve" smooth="yes"/>
			<point x="231" y="417"/>
			<point x="263" y="451"/>
			<point x="286" y="488" type="curve"/>
			<point x="314" y="488" type="line"/>
			<point x="314" y="526" type="line"/>
			<point x="280" y="502"/>
			<point x="245" y="487"/>
			<point x="212" y="487" type="curve" smooth="yes"/>
			<point x="173" y="487"/>
			<point x="156" y="505"/>
			<point x="156" y="549" type="curve" smooth="yes"/>
			<point x="156" y="765" type="line"/>
			<point x="125" y="765" type="line"/>
			<point x="17" y="749" type="line"/>
			<point x="17" y="713" type="line"/>
			<point x="100" y="696" type="line"/>
			<point x="73" y="730" type="line"/>
			<point x="72" y="530" type="line" smooth="yes"/>
			<point x="72" y="457"/>
			<point x="108" y="417"/>
		</contour>
		<contour>
			<point x="314" y="420" type="line"/>
			<point x="438" y="426" type="line"/>
			<point x="438" y="464" type="line"/>
			<point x="384" y="475" type="line"/>
			<point x="384" y="765" type="line"/>
			<point x="353" y="765" type="line"/>
			<point x="245" y="749" type="line"/>
			<point x="245" y="713" type="line"/>
			<point x="301" y="702" type="line"/>
			<point x="301" y="493" type="line"/>
			<point x="307" y="493" type="line"/>
		</contour>
	</outline>
</glyph>
<glyph name="v.sups" format="2">
	<unicode hex="1D5B"/>
	<advance width="435"/>
	<outline>
		<contour>
			<point x="164" y="406" type="line"/>
			<point x="274" y="406" type="line"/>
			<point x="394" y="742" type="line"/>
			<point x="331" y="742" type="line"/>
			<point x="246" y="448" type="line"/>
			<point x="228" y="448" type="line"/>
			<point x="129" y="742" type="line"/>
			<point x="41" y="742" type="line"/>
		</contour>
		<contour>
			<point x="12" y="700" type="line"/>
			<point x="72" y="694" type="line"/>
			<point x="130" y="694" type="line"/>
			<point x="207" y="700" type="line"/>
			<point x="207" y="742" type="line"/>
			<point x="12" y="742" type="line"/>
		</contour>
		<contour>
			<point x="260" y="700" type="line"/>
			<point x="331" y="694" type="line"/>
			<point x="363" y="694" type="line"/>
			<point x="423" y="700" type="line"/>
			<point x="423" y="742" type="line"/>
			<point x="260" y="742" type="line"/>
		</contour>
	</outline>
</glyph>
<glyph name="z.sups" format="2">
	<unicode hex="1DBB"/>
	<advance width="365"/>
	<outline>
		<contour>
			<point x="28" y="406" type="line"/>
			<point x="332" y="406" type="line"/>
			<point x="337" y="522" type="line"/>
			<point x="290" y="522" type="line"/>
			<point x="267" y="418" type="line"/>
			<point x="290" y="446" type="line"/>
			<point x="129" y="446" type="line"/>
			<point x="129" y="457" type="line"/>
			<point x="328" y="708" type="line"/>
			<point x="328" y="745" type="line"/>
			<point x="39" y="745" type="line"/>
			<point x="34" y="634" type="line"/>
			<point x="81" y="634" type="line"/>
			<point x="105" y="733" type="line"/>
			<point x="81" y="704" type="line"/>
			<point x="226" y="704" type="line"/>
			<point x="226" y="694" type="line"/>
			<point x="28" y="443" type="line"/>
		</contour>
	</outline>
</glyph>
<glyph name="figuredash" format="2">
	<unicode hex="2012"/>
	<advance width="558"/>
	<outline>
		<contour>
			<point x="61" y="275" type="line"/>
			<point x="497" y="275" type="line"/>
			<point x="497" y="355" type="line"/>
			<point x="61" y="355" type="line"/>
		</contour>
	</outline>
</glyph>
<glyph name="quoteleft" format="2">
	<unicode hex="2018"/>
	<unicode hex="02BB"/>
	<advance width="228"/>
	<outline>
		<contour>
			<point x="36" y="532" type="curve" smooth="yes"/>
			<point x="36" y="500"/>
			<point x="40" y="476"/>
			<point x="48" y="460" type="curve"/>
			<point x="60" y="452"/>
			<point x="80" y="444"/>
			<point x="104" y="444" type="curve" smooth="yes"/>
			<point x="146" y="444"/>
			<point x="176" y="472"/>
			<point x="176" y="514" type="curve" smooth="yes"/>
			<point x="176" y="552"/>
			<point x="148" y="574"/>
			<point x="120" y="592" type="curve" smooth="yes"/>
			<point x="96" y="608" type="line"/>
			<point x="104" y="588" type="line"/>
			<point x="112" y="636"/>
			<point x="144" y="684"/>
			<point x="192" y="720" type="curve"/>
			<point x="160" y="752" type="line"/>
			<point x="96" y="708"/>
			<point x="36" y="636"/>
		</contour>
	</outline>
</glyph>
<glyph name="prime" format="2">
	<unicode hex="2032"/>
	<advance width="248"/>
	<outline>
		<contour>
			<point x="68" y="440" type="line"/>
			<point x="112" y="440" type="line"/>
			<point x="116" y="452"/>
			<point x="128" y="486"/>
			<point x="140" y="520" type="curve" smooth="yes"/>
			<point x="168" y="602"/>
			<point x="188" y="656"/>
			<point x="188" y="688" type="curve" smooth="yes"/>
			<point x="188" y="720"/>
			<point x="168" y="744"/>
			<point x="122" y="744" type="curve" smooth="yes"/>
			<point x="106" y="744"/>
			<point x="96" y="742"/>
			<point x="88" y="740" type="curve"/>
		</contour>
	</outline>
</glyph>
<glyph name="guilsinglleft" format="2">
	<unicode hex="2039"/>
	<advance width="320"/>
	<outline>
		<contour>
			<point x="248" y="72" type="line"/>
			<point x="280" y="108" type="line"/>
			<point x="112" y="304" type="line"/>
			<point x="112" y="265" type="line"/>
			<point x="280" y="460" type="line"/>
			<point x="248" y="496" type="line"/>
			<point x="40" y="312" type="line"/>
			<point x="40" y="256" type="line"/>
		</contour>
	</outline>
</glyph>
<glyph name="zero.sups" format="2">
	<unicode hex="2070"/>
	<advance width="392"/>
	<outline>
		<contour>
			<point x="196" y="397" type="curve" smooth="yes"/>
			<point x="299" y="397"/>
			<point x="364" y="476"/>
			<point x="364" y="621" type="curve" smooth="yes"/>
			<point x="364" y="766"/>
			<point x="299" y="840"/>
			<point x="196" y="840" type="curve" smooth="yes"/>
			<point x="93" y="840"/>
			<point x="28" y="761"/>
			<point x="28" y="616" type="curve" smooth="yes"/>
			<point x="28" y="471"/>
			<point x="93" y="397"/>
		</contour>
		<contour>
			<point x="196" y="438" type="curve" smooth="yes"/>
			<point x="135" y="438"/>
			<point x="118" y="496"/>
			<point x="118" y="618" type="curve" smooth="yes"/>
			<point x="118" y="741"/>
			<point x="135" y="799"/>
			<point x="196" y="799" type="curve" smooth="yes"/>
			<point x="257" y="799"/>
			<point x="274" y="741"/>
			<point x="274" y="618" type="curve" smooth="yes"/>
			<point x="274" y="496"/>
			<point x="257" y="438"/>
		</contour>
	</outline>
</glyph>
<glyph name="i.sups" format="2">
	<unicode hex="2071"/>
	<advance width="253"/>
	<outline>
		<contour>
			<point x="85" y="426" type="line"/>
			<point x="169" y="426" type="line"/>
			<point x="169" y="765" type="line"/>
			<point x="138" y="765" type="line"/>
			<point x="31" y="733" type="line"/>
			<point x="31" y="694" type="line"/>
			<point x="85" y="694" type="line"/>
		</contour>
		<contour>
			<point x="34" y="426" type="line"/>
			<point x="220" y="426" type="line"/>
			<point x="220" y="470" type="line"/>
			<point x="145" y="470" type="line"/>
			<point x="110" y="470" type="line"/>
			<point x="34" y="470" type="line"/>
		</contour>
		<contour>
			<point x="127" y="821" type="curve" smooth="yes"/>
			<point x="156" y="821"/>
			<point x="178" y="843"/>
			<point x="178" y="872" type="curve" smooth="yes"/>
			<point x="178" y="902"/>
			<point x="156" y="924"/>
			<point x="127" y="924" type="curve" smooth="yes"/>
			<point x="98" y="924"/>
			<point x="76" y="902"/>
			<point x="76" y="872" type="curve" smooth="yes"/>
			<point x="76" y="843"/>
			<point x="98" y="821"/>
		</contour>
	</outline>
</glyph>
<glyph name="four.sups" format="2">
	<unicode hex="2074"/>
	<advance width="332"/>
	<outline>
		<contour>
			<point x="183" y="406" type="line"/>
			<point x="265" y="406" type="line"/>
			<point x="265" y="848" type="line"/>
			<point x="199" y="848" type="line"/>
			<point x="14" y="575" type="line"/>
			<point x="14" y="533" type="line"/>
			<point x="320" y="533" type="line"/>
			<point x="320" y="582" type="line"/>
			<point x="73" y="582" type="line"/>
			<point x="73" y="610" type="line"/>
			<point x="65" y="582" type="line"/>
			<point x="181" y="749" type="line"/>
			<point x="166" y="741" type="line"/>
			<point x="187" y="741" type="line"/>
			<point x="187" y="563" type="line"/>
			<point x="183" y="549" type="line"/>
		</contour>
	</outline>
</glyph>
<glyph name="five.sups" format="2">
	<unicode hex="2075"/>
	<advance width="392"/>
	<outline>
		<contour>
			<point x="178" y="417" type="curve" smooth="yes"/>
			<point x="287" y="417"/>
			<point x="357" y="471"/>
			<point x="357" y="553" type="curve" smooth="yes"/>
			<point x="357" y="637"/>
			<point x="300" y="684"/>
			<point x="203" y="684" type="curve" smooth="yes"/>
			<point x="174" y="684"/>
			<point x="147" y="675"/>
			<point x="131" y="658" type="curve"/>
			<point x="115" y="665" type="line"/>
			<point x="127" y="828" type="line"/>
			<point x="96" y="779" type="line"/>
			<point x="340" y="779" type="line"/>
			<point x="340" y="851" type="line"/>
			<point x="85" y="851" type="line"/>
			<point x="70" y="642" type="line"/>
			<point x="104" y="626" type="line"/>
			<point x="122" y="634"/>
			<point x="141" y="638"/>
			<point x="178" y="638" type="curve" smooth="yes"/>
			<point x="237" y="638"/>
			<point x="267" y="606"/>
			<point x="267" y="548" type="curve" smooth="yes"/>
			<point x="267" y="490"/>
			<point x="232" y="457"/>
			<point x="169" y="457" type="curve" smooth="yes"/>
			<point x="144" y="457"/>
			<point x="120" y="459"/>
			<point x="99" y="465" type="curve"/>
			<point x="134" y="438" type="line"/>
			<point x="124" y="494" type="line" smooth="yes"/>
			<point x="117" y="529"/>
			<point x="102" y="544"/>
			<point x="75" y="544" type="curve" smooth="yes"/>
			<point x="51" y="544"/>
			<point x="38" y="528"/>
			<point x="34" y="510" type="curve"/>
			<point x="46" y="451"/>
			<point x="95" y="417"/>
		</contour>
	</outline>
</glyph>
<glyph name="six.sups" format="2">
	<unicode hex="2076"/>
	<advance width="392"/>
	<outline>
		<contour>
			<point x="198" y="397" type="curve" smooth="yes"/>
			<point x="298" y="397"/>
			<point x="363" y="454"/>
			<point x="363" y="542" type="curve" smooth="yes"/>
			<point x="363" y="622"/>
			<point x="313" y="671"/>
			<point x="235" y="671" type="curve" smooth="yes"/>
			<point x="186" y="671"/>
			<point x="154" y="653"/>
			<point x="134" y="624" type="curve"/>
			<point x="104" y="627" type="line"/>
			<point x="112" y="589" type="line"/>
			<point x="134" y="611"/>
			<point x="164" y="618"/>
			<point x="199" y="618" type="curve" smooth="yes"/>
			<point x="248" y="618"/>
			<point x="277" y="588"/>
			<point x="277" y="531" type="curve" smooth="yes"/>
			<point x="277" y="473"/>
			<point x="248" y="438"/>
			<point x="199" y="438" type="curve" smooth="yes"/>
			<point x="154" y="438"/>
			<point x="119" y="471"/>
			<point x="119" y="581" type="curve" smooth="yes"/>
			<point x="119" y="698"/>
			<point x="178" y="773"/>
			<point x="335" y="803" type="curve"/>
			<point x="327" y="840" type="line"/>
			<point x="138" y="823"/>
			<point x="29" y="716"/>
			<point x="29" y="580" type="curve" smooth="yes"/>
			<point x="29" y="451"/>
			<point x="104" y="397"/>
		</contour>
	</outline>
</glyph>
<glyph name="seven.sups" format="2">
	<unicode hex="2077"/>
	<advance width="309"/>
	<outline>
		<contour>
			<point x="60" y="406" type="line"/>
			<point x="150" y="406" type="line"/>
			<point x="294" y="801" type="line"/>
			<point x="294" y="848" type="line"/>
			<point x="15" y="848" type="line"/>
			<point x="15" y="787" type="line"/>
			<point x="241" y="791" type="line"/>
			<point x="241" y="765" type="line"/>
			<point x="246" y="785" type="line"/>
			<point x="60" y="425" type="line"/>
		</contour>
	</outline>
</glyph>
<glyph name="eight.sups" format="2">
	<unicode hex="2078"/>
	<advance width="392"/>
	<outline>
		<contour>
			<point x="191" y="417" type="curve" smooth="yes"/>
			<point x="300" y="417"/>
			<point x="363" y="465"/>
			<point x="363" y="536" type="curve" smooth="yes"/>
			<point x="363" y="608"/>
			<point x="305" y="639"/>
			<point x="225" y="673" type="curve" smooth="yes"/>
			<point x="150" y="704"/>
			<point x="128" y="723"/>
			<point x="128" y="759" type="curve" smooth="yes"/>
			<point x="128" y="797"/>
			<point x="153" y="820"/>
			<point x="199" y="820" type="curve" smooth="yes"/>
			<point x="246" y="820"/>
			<point x="269" y="797"/>
			<point x="269" y="756" type="curve" smooth="yes"/>
			<point x="269" y="719"/>
			<point x="245" y="690"/>
			<point x="213" y="662" type="curve"/>
			<point x="235" y="651" type="line"/>
			<point x="251" y="675" type="line"/>
			<point x="306" y="686"/>
			<point x="346" y="710"/>
			<point x="346" y="762" type="curve" smooth="yes"/>
			<point x="346" y="820"/>
			<point x="293" y="860"/>
			<point x="201" y="860" type="curve" smooth="yes"/>
			<point x="105" y="860"/>
			<point x="49" y="810"/>
			<point x="49" y="745" type="curve" smooth="yes"/>
			<point x="49" y="681"/>
			<point x="101" y="648"/>
			<point x="168" y="621" type="curve" smooth="yes"/>
			<point x="252" y="586"/>
			<point x="281" y="567"/>
			<point x="281" y="524" type="curve" smooth="yes"/>
			<point x="281" y="481"/>
			<point x="250" y="457"/>
			<point x="196" y="457" type="curve" smooth="yes"/>
			<point x="142" y="457"/>
			<point x="108" y="481"/>
			<point x="108" y="526" type="curve" smooth="yes"/>
			<point x="108" y="570"/>
			<point x="134" y="600"/>
			<point x="186" y="634" type="curve"/>
			<point x="159" y="643" type="line"/>
			<point x="141" y="619" type="line"/>
			<point x="70" y="608"/>
			<point x="30" y="576"/>
			<point x="30" y="521" type="curve" smooth="yes"/>
			<point x="30" y="457"/>
			<point x="89" y="417"/>
		</contour>
	</outline>
</glyph>
<glyph name="nine.sups" format="2">
	<unicode hex="2079"/>
	<advance width="392"/>
	<outline>
		<contour>
			<point x="67" y="397" type="line"/>
			<point x="255" y="415"/>
			<point x="363" y="520"/>
			<point x="363" y="657" type="curve" smooth="yes"/>
			<point x="363" y="785"/>
			<point x="285" y="840"/>
			<point x="190" y="840" type="curve" smooth="yes"/>
			<point x="94" y="840"/>
			<point x="28" y="782"/>
			<point x="28" y="697" type="curve" smooth="yes"/>
			<point x="28" y="616"/>
			<point x="82" y="568"/>
			<point x="159" y="568" type="curve" smooth="yes"/>
			<point x="210" y="568"/>
			<point x="239" y="588"/>
			<point x="256" y="617" type="curve"/>
			<point x="280" y="614" type="line"/>
			<point x="280" y="647" type="line"/>
			<point x="258" y="627"/>
			<point x="231" y="620"/>
			<point x="199" y="620" type="curve" smooth="yes"/>
			<point x="146" y="620"/>
			<point x="115" y="651"/>
			<point x="115" y="706" type="curve" smooth="yes"/>
			<point x="115" y="764"/>
			<point x="141" y="799"/>
			<point x="190" y="799" type="curve" smooth="yes"/>
			<point x="238" y="799"/>
			<point x="273" y="764"/>
			<point x="273" y="651" type="curve" smooth="yes"/>
			<point x="273" y="541"/>
			<point x="209" y="462"/>
			<point x="58" y="432" type="curve"/>
		</contour>
	</outline>
</glyph>
<glyph name="parenleft.sups" format="2">
	<unicode hex="207D"/>
	<advance width="230"/>
	<outline>
		<contour>
			<point x="110" y="607" type="curve" smooth="yes"/>
			<point x="110" y="710"/>
			<point x="136" y="790"/>
			<point x="202" y="890" type="curve"/>
			<point x="170" y="914" type="line"/>
			<point x="84" y="834"/>
			<point x="28" y="734"/>
			<point x="28" y="607" type="curve" smooth="yes"/>
			<point x="28" y="480"/>
			<point x="84" y="380"/>
			<point x="170" y="300" type="curve"/>
			<point x="202" y="324" type="line"/>
			<point x="136" y="424"/>
			<point x="110" y="504"/>
		</contour>
	</outline>
</glyph>
<glyph name="parenright.sups" format="2">
	<unicode hex="207E"/>
	<advance width="255"/>
	<outline>
		<contour>
			<point x="119" y="611" type="curve" smooth="yes"/>
			<point x="119" y="510"/>
			<point x="89" y="433"/>
			<point x="24" y="342" type="curve"/>
			<point x="54" y="316" type="line"/>
			<point x="144" y="397"/>
			<point x="200" y="489"/>
			<point x="200" y="611" type="curve" smooth="yes"/>
			<point x="200" y="733"/>
			<point x="144" y="825"/>
			<point x="54" y="906" type="curve"/>
			<point x="24" y="880" type="line"/>
			<point x="89" y="789"/>
			<point x="119" y="711"/>
		</contour>
	</outline>
</glyph>
<glyph name="n.sups" format="2">
	<unicode hex="207F"/>
	<advance width="470"/>
	<outline>
		<contour>
			<point x="84" y="406" type="line"/>
			<point x="168" y="406" type="line"/>
			<point x="168" y="678" type="line"/>
			<point x="161" y="678" type="line"/>
			<point x="151" y="745" type="line"/>
			<point x="121" y="745" type="line"/>
			<point x="30" y="713" type="line"/>
			<point x="30" y="674" type="line"/>
			<point x="84" y="674" type="line"/>
		</contour>
		<contour>
			<point x="312" y="406" type="line"/>
			<point x="396" y="406" type="line"/>
			<point x="396" y="640" type="line" smooth="yes"/>
			<point x="396" y="714"/>
			<point x="361" y="754"/>
			<point x="293" y="754" type="curve" smooth="yes"/>
			<point x="237" y="754"/>
			<point x="205" y="720"/>
			<point x="182" y="683" type="curve"/>
			<point x="154" y="683" type="line"/>
			<point x="154" y="645" type="line"/>
			<point x="188" y="669"/>
			<point x="223" y="684"/>
			<point x="257" y="684" type="curve" smooth="yes"/>
			<point x="295" y="684"/>
			<point x="312" y="665"/>
			<point x="312" y="622" type="curve" smooth="yes"/>
		</contour>
		<contour>
			<point x="33" y="406" type="line"/>
			<point x="214" y="406" type="line"/>
			<point x="214" y="450" type="line"/>
			<point x="144" y="450" type="line"/>
			<point x="108" y="450" type="line"/>
			<point x="33" y="450" type="line"/>
		</contour>
		<contour>
			<point x="266" y="406" type="line"/>
			<point x="447" y="406" type="line"/>
			<point x="447" y="450" type="line"/>
			<point x="372" y="450" type="line"/>
			<point x="337" y="450" type="line"/>
			<point x="266" y="450" type="line"/>
		</contour>
	</outline>
</glyph>
<glyph name="Euro" format="2">
	<unicode hex="20AC"/>
	<advance width="536"/>
	<outline>
		<contour>
			<point x="320" y="-12" type="curve" smooth="yes"/>
			<point x="428" y="-12"/>
			<point x="484" y="36"/>
			<point x="500" y="124" type="curve"/>
			<point x="492" y="148"/>
			<point x="476" y="164"/>
			<point x="448" y="164" type="curve" smooth="yes"/>
			<point x="416" y="164"/>
			<point x="400" y="148"/>
			<point x="392" y="104" type="curve" smooth="yes"/>
			<point x="376" y="16" type="line"/>
			<point x="440" y="40" type="line"/>
			<point x="411" y="40"/>
			<point x="381" y="40"/>
			<point x="352" y="40" type="curve" smooth="yes"/>
			<point x="244" y="40"/>
			<point x="196" y="142"/>
			<point x="196" y="324" type="curve" smooth="yes"/>
			<point x="196" y="506"/>
			<point x="248" y="608"/>
			<point x="352" y="608" type="curve" smooth="yes"/>
			<point x="381" y="608"/>
			<point x="411" y="608"/>
			<point x="440" y="608" type="curve"/>
			<point x="376" y="632" type="line"/>
			<point x="392" y="544" type="line" smooth="yes"/>
			<point x="400" y="500"/>
			<point x="416" y="484"/>
			<point x="448" y="484" type="curve" smooth="yes"/>
			<point x="476" y="484"/>
			<point x="492" y="500"/>
			<point x="500" y="524" type="curve"/>
			<point x="484" y="612"/>
			<point x="428" y="660"/>
			<point x="328" y="660" type="curve" smooth="yes"/>
			<point x="184" y="660"/>
			<point x="92" y="532"/>
			<point x="92" y="320" type="curve" smooth="yes"/>
			<point x="92" y="108"/>
			<point x="180" y="-12"/>
		</contour>
		<contour>
			<point x="31" y="372" type="line"/>
			<point x="396" y="372" type="line"/>
			<point x="396" y="420" type="line"/>
			<point x="31" y="420" type="line"/>
		</contour>
		<contour>
			<point x="31" y="228" type="line"/>
			<point x="396" y="228" type="line"/>
			<point x="396" y="276" type="line"/>
			<point x="31" y="276" type="line"/>
		</contour>
	</outline>
</glyph>
<glyph name="tugrik" format="2">
	<unicode hex="20AE"/>
	<advance width="536"/>
	<outline>
		<contour>
			<point x="28" y="472" type="line"/>
			<point x="88" y="472" type="line"/>
			<point x="120" y="624" type="line"/>
			<point x="78" y="588" type="line"/>
			<point x="456" y="588" type="line"/>
			<point x="416" y="624" type="line"/>
			<point x="448" y="472" type="line"/>
			<point x="508" y="472" type="line"/>
			<point x="504" y="648" type="line"/>
			<point x="32" y="648" type="line"/>
		</contour>
		<contour>
			<point x="102" y="125" type="line"/>
			<point x="262" y="188" type="line"/>
			<point x="262" y="241" type="line"/>
			<point x="102" y="178" type="line"/>
		</contour>
		<contour>
			<point x="102" y="261" type="line"/>
			<point x="262" y="324" type="line"/>
			<point x="262" y="377" type="line"/>
			<point x="102" y="314" type="line"/>
		</contour>
		<contour>
			<point x="134" y="0" type="line"/>
			<point x="402" y="0" type="line"/>
			<point x="402" y="60" type="line"/>
			<point x="290" y="60" type="line"/>
			<point x="246" y="60" type="line"/>
			<point x="134" y="60" type="line"/>
		</contour>
		<contour>
			<point x="218" y="0" type="curve"/>
			<point x="318" y="0" type="line"/>
			<point x="318" y="75"/>
			<point x="318" y="149"/>
			<point x="318" y="224" type="curve" smooth="yes"/>
			<point x="318" y="371" type="line" smooth="yes"/>
			<point x="318" y="488"/>
			<point x="318" y="568"/>
			<point x="318" y="648" type="curve"/>
			<point x="218" y="648" type="line"/>
			<point x="218" y="568"/>
			<point x="218" y="488"/>
			<point x="218" y="337" type="curve" smooth="yes"/>
			<point x="218" y="191" type="line" smooth="yes"/>
			<point x="218" y="149"/>
			<point x="218" y="75"/>
		</contour>
		<contour>
			<point x="272" y="186" type="line"/>
			<point x="435" y="250" type="line"/>
			<point x="435" y="303" type="line"/>
			<point x="272" y="239" type="line"/>
		</contour>
		<contour>
			<point x="272" y="322" type="line"/>
			<point x="435" y="386" type="line"/>
			<point x="435" y="439" type="line"/>
			<point x="272" y="375" type="line"/>
		</contour>
	</outline>
</glyph>
<glyph name="peso" format="2">
	<unicode hex="20B1"/>
	<advance width="536"/>
	<outline>
		<contour>
			<point x="168" y="236" type="line"/>
			<point x="228" y="236" type="line" smooth="yes"/>
			<point x="376" y="236"/>
			<point x="448" y="324"/>
			<point x="448" y="448" type="curve" smooth="yes"/>
			<point x="448" y="572"/>
			<point x="376" y="648"/>
			<point x="244" y="648" type="curve" smooth="yes"/>
			<point x="184" y="648" type="line"/>
			<point x="184" y="590" type="line"/>
			<point x="236" y="590" type="line" smooth="yes"/>
			<point x="318" y="590"/>
			<point x="356" y="543"/>
			<point x="356" y="444" type="curve" smooth="yes"/>
			<point x="356" y="345"/>
			<point x="318" y="292"/>
			<point x="220" y="292" type="curve" smooth="yes"/>
			<point x="168" y="292" type="line"/>
		</contour>
		<contour>
			<point x="124" y="0" type="curve"/>
			<point x="220" y="0" type="line"/>
			<point x="220" y="101"/>
			<point x="220" y="203"/>
			<point x="220" y="304" type="curve" smooth="yes"/>
			<point x="220" y="352" type="line" smooth="yes"/>
			<point x="220" y="451"/>
			<point x="220" y="549"/>
			<point x="220" y="648" type="curve"/>
			<point x="124" y="648" type="line"/>
			<point x="124" y="549"/>
			<point x="124" y="451"/>
			<point x="124" y="352" type="curve" smooth="yes"/>
			<point x="124" y="304" type="line" smooth="yes"/>
			<point x="124" y="203"/>
			<point x="124" y="101"/>
		</contour>
		<contour>
			<point x="44" y="0" type="line"/>
			<point x="328" y="0" type="line"/>
			<point x="328" y="60" type="line"/>
			<point x="192" y="60" type="line"/>
			<point x="148" y="60" type="line"/>
			<point x="44" y="60" type="line"/>
		</contour>
		<contour>
			<point x="44" y="588" type="line"/>
			<point x="140" y="588" type="line"/>
			<point x="156" y="588" type="line"/>
			<point x="156" y="648" type="line"/>
			<point x="44" y="648" type="line"/>
		</contour>
		<contour>
			<point x="44" y="472" type="line"/>
			<point x="170" y="472" type="line"/>
			<point x="170" y="482" type="line"/>
			<point x="391" y="482" type="line"/>
			<point x="391" y="472" type="line"/>
			<point x="504" y="472" type="line"/>
			<point x="504" y="524" type="line"/>
			<point x="44" y="524" type="line"/>
		</contour>
		<contour>
			<point x="44" y="364" type="line"/>
			<point x="170" y="364" type="line"/>
			<point x="170" y="374" type="line"/>
			<point x="391" y="374" type="line"/>
			<point x="391" y="364" type="line"/>
			<point x="504" y="364" type="line"/>
			<point x="504" y="416" type="line"/>
			<point x="44" y="416" type="line"/>
		</contour>
	</outline>
</glyph>
<glyph name="hryvnia" format="2">
	<unicode hex="20B4"/>
	<advance width="536"/>
	<outline>
		<contour>
			<point x="34" y="232" type="line"/>
			<point x="502" y="232" type="line"/>
			<point x="502" y="282" type="line"/>
			<point x="34" y="282" type="line"/>
		</contour>
		<contour>
			<point x="34" y="362" type="line"/>
			<point x="502" y="362" type="line"/>
			<point x="502" y="412" type="line"/>
			<point x="34" y="412" type="line"/>
		</contour>
		<contour>
			<point x="260" y="-12" type="curve" smooth="yes"/>
			<point x="387" y="-12"/>
			<point x="456" y="35"/>
			<point x="472" y="124" type="curve"/>
			<point x="464" y="148"/>
			<point x="448" y="164"/>
			<point x="422" y="164" type="curve" smooth="yes"/>
			<point x="396" y="164"/>
			<point x="372" y="148"/>
			<point x="364" y="104" type="curve" smooth="yes"/>
			<point x="348" y="16" type="line"/>
			<point x="396" y="56" type="line"/>
			<point x="372" y="48"/>
			<point x="332" y="40"/>
			<point x="284" y="40" type="curve" smooth="yes"/>
			<point x="190" y="40"/>
			<point x="148" y="80"/>
			<point x="148" y="152" type="curve" smooth="yes"/>
			<point x="148" y="213"/>
			<point x="167" y="241"/>
			<point x="207" y="267" type="curve" smooth="yes"/>
			<point x="367" y="375" type="line" smooth="yes"/>
			<point x="427" y="415"/>
			<point x="447" y="453"/>
			<point x="447" y="501" type="curve" smooth="yes"/>
			<point x="447" y="608"/>
			<point x="367" y="660"/>
			<point x="259" y="660" type="curve" smooth="yes"/>
			<point x="151" y="660"/>
			<point x="84" y="602"/>
			<point x="67" y="519" type="curve"/>
			<point x="75" y="495"/>
			<point x="91" y="479"/>
			<point x="117" y="479" type="curve" smooth="yes"/>
			<point x="143" y="479"/>
			<point x="167" y="495"/>
			<point x="175" y="539" type="curve" smooth="yes"/>
			<point x="191" y="627" type="line"/>
			<point x="143" y="592" type="line"/>
			<point x="167" y="600"/>
			<point x="199" y="608"/>
			<point x="239" y="608" type="curve" smooth="yes"/>
			<point x="327" y="608"/>
			<point x="363" y="568"/>
			<point x="363" y="506" type="curve" smooth="yes"/>
			<point x="363" y="452"/>
			<point x="345" y="418"/>
			<point x="311" y="395" type="curve" smooth="yes"/>
			<point x="170" y="296" type="line" smooth="yes"/>
			<point x="89" y="240"/>
			<point x="64" y="209"/>
			<point x="64" y="142" type="curve" smooth="yes"/>
			<point x="64" y="44"/>
			<point x="148" y="-12"/>
		</contour>
	</outline>
</glyph>
